<?xml version="1.0" encoding="UTF-8"?>
<svg width="80px" height="80px" viewBox="0 0 80 80" version="1.1" xmlns="http://www.w3.org/2000/svg" xmlns:xlink="http://www.w3.org/1999/xlink" style="background: #FFFFFF;">
    <!-- Generator: Sketch 47.1 (45422) - http://www.bohemiancoding.com/sketch -->
    <title>1</title>
    <desc>Created with Sketch.</desc>
    <defs>
        <polygon id="path-1" points="66.2281 1 0.5001 1 0.5001 0.1736 66.2281 0.1736 66.2281 1"></polygon>
    </defs>
    <g id="Page-1" stroke="none" stroke-width="1" fill="none" fill-rule="evenodd">
        <g id="1">
            <g id="Page-1" transform="translate(7.000000, 4.000000)">
                <path d="M31.2935,41.8952 C31.2935,41.8952 32.9155,42.2502 34.8535,41.9742 C34.8535,42.8042 34.1805,43.4772 33.3505,43.4772 L32.7965,43.4772 C31.9665,43.4772 31.2935,42.8042 31.2935,41.9742 L31.2935,41.8952 Z" id="Fill-1" fill="#2F527F"></path>
                <polygon id="Fill-3" fill="#B1DBFE" points="2.6749 70.1149 4.9519 58.5679 6.4139 56.8549 22.7329 51.0419 25.9619 47.0569 32.9929 51.0419 40.6489 47.0569 43.8779 50.7289 60.3329 56.9619 62.0619 59.6529 63.9179 70.1149"></polygon>
                <path d="M29.7867,54.235 L31.8047,57.798 L29.8497,66.897 L29.2417,69.725 C29.2417,69.725 37.5657,69.892 37.5657,69.889 C37.5657,69.885 37.1447,66.046 37.1447,66.046 L34.8527,57.78 L36.6827,54.165 L33.6677,51.04 L29.7867,54.235 Z" id="Fill-5" fill="#2F527F"></path>
                <path d="M39.8033,47.5348 L39.0883,45.0508" id="Stroke-7" stroke="#2F527F" stroke-linecap="round" stroke-linejoin="round"></path>
                <path d="M27.5054,45.1608 L26.8284,47.2298" id="Stroke-9" stroke="#2F527F" stroke-linecap="round" stroke-linejoin="round"></path>
                <path d="M14.567,69.5163 L14.584,65.8423" id="Stroke-11" stroke="#2F527F" stroke-linecap="round" stroke-linejoin="round"></path>
                <path d="M52.1978,65.6549 L52.2168,69.3529" id="Stroke-13" stroke="#2F527F" stroke-linecap="round" stroke-linejoin="round"></path>
                <path d="M22.8057,51.0934 L7.4337,56.4454 C5.8977,57.1724 4.8347,58.3544 4.4627,60.6514 L2.8437,70.2664" id="Stroke-15" stroke="#2F527F" stroke-linecap="round" stroke-linejoin="round"></path>
                <path d="M43.9498,50.6754 L59.3578,56.1864 C60.9018,56.8994 61.9758,58.0704 62.3708,60.3634 L64.0858,69.9614" id="Stroke-17" stroke="#2F527F" stroke-linecap="round" stroke-linejoin="round"></path>
                <path d="M29.1793,29.1237 C29.1823,29.6587 28.7503,30.0947 28.2153,30.0977 C27.6803,30.1007 27.2443,29.6687 27.2423,29.1337 C27.2393,28.5987 27.6703,28.1627 28.2053,28.1597 C28.7413,28.1577 29.1773,28.5887 29.1793,29.1237" id="Fill-19" fill="#2F527F"></path>
                <path d="M30.9127,35.7819 C30.8177,36.3009 31.2177,36.7779 31.7447,36.7759 L33.8757,36.7649 C34.4037,36.7619 34.7987,36.2809 34.6987,35.7629" id="Stroke-21" stroke="#2F527F" stroke-linecap="round" stroke-linejoin="round"></path>
                <path d="M29.2418,40.0573 C29.2418,40.0573 32.8858,41.1473 36.9058,40.0193" id="Stroke-23" stroke="#2F527F" stroke-linecap="round" stroke-linejoin="round"></path>
                <path d="M25.6387,26.4313 C27.0547,25.9413 28.4727,25.9343 29.8927,26.4103" id="Stroke-25" stroke="#2F527F" stroke-linecap="round" stroke-linejoin="round"></path>
                <path d="M36.5924,29.0871 C36.5944,29.6221 37.0304,30.0541 37.5664,30.0511 C38.1014,30.0481 38.5324,29.6121 38.5294,29.0771 C38.5274,28.5421 38.0914,28.1101 37.5564,28.1131 C37.0214,28.1161 36.5894,28.5521 36.5924,29.0871" id="Fill-27" fill="#2F527F"></path>
                <path d="M39.5513,26.362 C38.0163,25.93 36.5753,25.851 35.2973,26.383" id="Stroke-29" stroke="#2F527F" stroke-linecap="round" stroke-linejoin="round"></path>
                <path d="M21.1348,33.0265 C17.0258,33.0465 17.0048,26.0005 20.6108,25.0945" id="Stroke-31" stroke="#2F527F" stroke-linecap="round" stroke-linejoin="round"></path>
                <path d="M44.9942,32.9079 C49.1032,32.8869 49.0552,25.8419 45.4402,24.9709" id="Stroke-33" stroke="#2F527F" stroke-linecap="round" stroke-linejoin="round"></path>
                <polygon id="Stroke-35" stroke="#2F527F" stroke-linecap="round" stroke-linejoin="round" points="33.3795 51.2126 27.9545 55.7756 22.8025 50.4686 26.0155 47.0936"></polygon>
                <polygon id="Stroke-37" stroke="#2F527F" stroke-linecap="round" stroke-linejoin="round" points="33.3795 51.2126 38.8495 55.7226 43.9485 50.3626 40.7025 47.0206"></polygon>
                <polyline id="Stroke-39" stroke="#2F527F" stroke-linecap="round" stroke-linejoin="round" points="29.7867 54.235 31.8047 57.798 34.5057 57.786"></polyline>
                <polyline id="Stroke-41" stroke="#2F527F" stroke-linecap="round" stroke-linejoin="round" points="36.5709 54.1979 34.8529 57.7799 32.1649 57.7979"></polyline>
                <path d="M45.1241,24.8918 L44.8041,36.0768 L44.8011,36.1988 C44.6621,42.1588 37.1481,46.9408 33.4601,46.9598 L33.0601,46.9618 C30.0431,46.9768 21.8121,42.2718 21.6131,36.3138 L21.6081,36.1908 L20.7201,25.5408" id="Stroke-43" stroke="#2F527F" stroke-linecap="round" stroke-linejoin="round"></path>
                <path d="M31.8043,57.7985 L29.2413,69.7255" id="Stroke-45" stroke="#2F527F" stroke-linecap="round" stroke-linejoin="round"></path>
                <path d="M34.8526,57.7799 L37.5656,69.8889" id="Stroke-47" stroke="#2F527F" stroke-linecap="round" stroke-linejoin="round"></path>
                <path d="M44.9512,12.4333 C45.9682,11.0813 46.7822,9.0113 46.0882,7.4723 C45.4592,6.0793 44.1862,5.1203 42.6922,4.8363 C42.5192,4.8043 42.4532,4.6103 42.5702,4.4803 C43.1592,3.8233 42.5152,2.3723 42.2362,1.4183 C41.2172,2.0833 41.2562,3.2123 40.0542,3.4183 C40.3572,2.3873 39.5472,0.9823 39.1062,0.0003 C38.6682,1.3233 37.2222,2.0153 35.8862,2.4523 C33.8922,3.1033 31.8192,3.5133 29.7262,3.6703 C27.8502,3.8113 25.8672,3.7743 24.2312,4.6923 C22.5952,5.6113 21.5942,7.9513 22.8102,9.3713 C21.3622,9.9993 19.8272,10.0013 18.7682,10.9383 L18.7672,10.9373 L18.7642,10.9423 C18.4892,11.1863 18.2472,11.4943 18.0472,11.8923 L18.0422,11.8993 C18.0402,11.9033 18.0392,11.9073 18.0372,11.9113 C17.9992,11.9873 17.9652,12.0723 17.9302,12.1553 C16.2392,15.8993 17.8722,19.6663 17.8722,19.6663 C17.1232,22.3853 18.0312,23.9683 18.0312,23.9683 L19.0662,26.1303 L19.7142,26.1923 C19.9682,26.3223 19.6922,28.3803 19.9392,29.1133 C20.0042,29.3053 21.4302,29.3083 21.4292,29.2503 C21.3962,27.7173 20.5852,20.5713 21.2422,19.1813 C21.8982,17.7923 23.9262,15.2853 26.8212,15.4983 C28.9962,15.6593 30.7572,17.2423 32.6482,17.9123 C34.9302,18.7193 36.7952,17.8813 39.2132,17.9733 C40.9282,18.0373 41.7472,20.0793 41.8172,20.4453 C41.9242,21.0093 43.5992,21.8323 43.9762,22.2663 C44.4852,22.8523 44.5482,24.8913 44.5312,26.1103 C44.3272,33.0203 45.5652,27.0013 45.9992,26.2363 C49.5102,20.0503 47.3252,15.5223 44.9512,12.4333" id="Fill-49" fill="#2F527F"></path>
                <g id="Group-53" transform="translate(0.000000, 69.826200)">
                    <mask id="mask-2" fill="white">
                        <use xlink:href="#path-1"></use>
                    </mask>
                    <g id="Clip-52"></g>
                    <path d="M0.5001,0.4996 L66.2281,0.1736" id="Stroke-51" stroke="#2F527F" stroke-linecap="round" stroke-linejoin="round" mask="url(#mask-2)"></path>
                </g>
            </g>
        </g>
    </g>
</svg>