<?xml version="1.0" encoding="UTF-8"?>
<svg width="80px" height="80px" viewBox="0 0 80 80" version="1.1" xmlns="http://www.w3.org/2000/svg" xmlns:xlink="http://www.w3.org/1999/xlink" style="background: #FFFFFF;">
    <!-- Generator: Sketch 47.1 (45422) - http://www.bohemiancoding.com/sketch -->
    <title>Business Performance</title>
    <desc>Created with Sketch.</desc>
    <defs></defs>
    <g id="Page-1" stroke="none" stroke-width="1" fill="none" fill-rule="evenodd">
        <g id="Business-Performance">
            <g id="Page-1" transform="translate(9.000000, 9.000000)">
                <path d="M42.7369046,39.5362319 C42.533386,39.5362319 42.326418,39.4922281 42.1306607,39.3987916 C41.4312812,39.0653346 41.1363517,38.2312635 41.4718124,37.5360614 L55.7347853,7.98097072 C56.070246,7.28576861 56.9093289,6.99260076 57.608421,7.32605775 C58.308088,7.65951475 58.60273,8.49358584 58.2672693,9.18878796 L44.0042964,38.7435929 C43.7628337,39.244207 43.2603613,39.5362319 42.7369046,39.5362319" id="Fill-1" fill="#2F527D"></path>
                <path d="M42.7369046,39.5362319 C42.533386,39.5362319 42.326418,39.4922281 42.1306607,39.3987916 C41.4312812,39.0653346 41.1363517,38.2312635 41.4718124,37.5360614 L55.7347853,7.98097072 C56.070246,7.28576861 56.9093289,6.99260076 57.608421,7.32605775 C58.308088,7.65951475 58.60273,8.49358584 58.2672693,9.18878796 L44.0042964,38.7435929 C43.7628337,39.244207 43.2603613,39.5362319 42.7369046,39.5362319 Z" id="Stroke-3" stroke="#FEFEFE" stroke-width="0.9"></path>
                <path d="M43.4855793,38.6376812 C43.2303003,38.6376812 42.9717788,38.5742899 42.7374291,38.4406169 L28.5458625,30.3521633 C27.8666907,29.9646496 27.6517965,29.1358773 28.0656668,28.5011375 C28.4798319,27.8658465 29.3656441,27.6649236 30.0451107,28.0521618 L44.2366773,36.1406154 C44.9161439,36.5281291 45.1307434,37.3569014 44.716873,37.9916412 C44.4453812,38.4080944 43.9710811,38.6376812 43.4855793,38.6376812" id="Fill-5" fill="#2F527D"></path>
                <path d="M43.4855793,38.6376812 C43.2303003,38.6376812 42.9717788,38.5742899 42.7374291,38.4406169 L28.5458625,30.3521633 C27.8666907,29.9646496 27.6517965,29.1358773 28.0656668,28.5011375 C28.4798319,27.8658465 29.3656441,27.6649236 30.0451107,28.0521618 L44.2366773,36.1406154 C44.9161439,36.5281291 45.1307434,37.3569014 44.716873,37.9916412 C44.4453812,38.4080944 43.9710811,38.6376812 43.4855793,38.6376812 Z" id="Stroke-7" stroke="#FEFEFE" stroke-width="0.9"></path>
                <path d="M15.8034863,47.6231884 C15.4838621,47.6231884 15.162485,47.5180431 14.8966185,47.3028686 C14.2880472,46.8096049 14.2012753,45.9250626 14.7029158,45.3266535 L28.9203465,28.36608 C29.4216948,27.7676709 30.3209663,27.6826353 30.9295377,28.1756118 C31.5381091,28.6685883 31.6245887,29.5534178 31.1235326,30.1515396 L16.9061019,47.1124004 C16.6235822,47.4490953 16.2151411,47.6231884 15.8034863,47.6231884" id="Fill-9" fill="#2F527D"></path>
                <path d="M15.8034863,47.6231884 C15.4838621,47.6231884 15.162485,47.5180431 14.8966185,47.3028686 C14.2880472,46.8096049 14.2012753,45.9250626 14.7029158,45.3266535 L28.9203465,28.36608 C29.4216948,27.7676709 30.3209663,27.6826353 30.9295377,28.1756118 C31.5381091,28.6685883 31.6245887,29.5534178 31.1235326,30.1515396 L16.9061019,47.1124004 C16.6235822,47.4490953 16.2151411,47.6231884 15.8034863,47.6231884 Z" id="Stroke-11" stroke="#FEFEFE" stroke-width="0.9"></path>
                <path d="M6.73913043,62 C5.99487444,62 5.39130435,61.3718699 5.39130435,60.5973292 L5.39130435,1.40267077 C5.39130435,0.627843014 5.99487444,0 6.73913043,0 C7.48338643,0 8.08695652,0.627843014 8.08695652,1.40267077 L8.08695652,60.5973292 C8.08695652,61.3718699 7.48338643,62 6.73913043,62" id="Fill-13" fill="#2F527D"></path>
                <path d="M6.73913043,62 C5.99487444,62 5.39130435,61.3718699 5.39130435,60.5973292 L5.39130435,1.40267077 C5.39130435,0.627843014 5.99487444,0 6.73913043,0 C7.48338643,0 8.08695652,0.627843014 8.08695652,1.40267077 L8.08695652,60.5973292 C8.08695652,61.3718699 7.48338643,62 6.73913043,62 Z" id="Stroke-15" stroke="#FEFEFE" stroke-width="0.9"></path>
                <path d="M60.5970487,56.6086957 L1.40266427,56.6086957 C0.628127185,56.6086957 0,56.0051256 0,55.2605937 C0,54.5163377 0.628127185,53.9130435 1.40266427,53.9130435 L60.5973357,53.9130435 C61.3718728,53.9130435 62,54.5163377 62,55.2605937 C62,56.0051256 61.3715857,56.6086957 60.5970487,56.6086957" id="Fill-17" fill="#2F527D"></path>
                <path d="M60.5970487,56.6086957 L1.40266427,56.6086957 C0.628127185,56.6086957 0,56.0051256 0,55.2605937 C0,54.5163377 0.628127185,53.9130435 1.40266427,53.9130435 L60.5973357,53.9130435 C61.3718728,53.9130435 62,54.5163377 62,55.2605937 C62,56.0051256 61.3715857,56.6086957 60.5970487,56.6086957 Z" id="Stroke-19" stroke="#FEFEFE" stroke-width="0.9"></path>
                <path d="M29.6520268,26.057971 C31.6372167,26.057971 33.2463768,27.6674254 33.2463768,29.652321 C33.2463768,31.6372167 31.6372167,33.2463768 29.6520268,33.2463768 C27.6671312,33.2463768 26.057971,31.6372167 26.057971,29.652321 C26.057971,27.6674254 27.6671312,26.057971 29.6520268,26.057971" id="Fill-21" fill="#CDE5F7"></path>
                <path d="M29.6520268,26.057971 C31.6372167,26.057971 33.2463768,27.6674254 33.2463768,29.652321 C33.2463768,31.6372167 31.6372167,33.2463768 29.6520268,33.2463768 C27.6671312,33.2463768 26.057971,31.6372167 26.057971,29.652321 C26.057971,27.6674254 27.6671312,26.057971 29.6520268,26.057971 Z" id="Stroke-23" stroke="#2E527E" stroke-width="0.9"></path>
                <path d="M16.173913,43.1304348 C18.1591842,43.1304348 19.7681159,44.7398892 19.7681159,46.7247848 C19.7681159,48.7096804 18.1591842,50.3188406 16.173913,50.3188406 C14.1886419,50.3188406 12.5797101,48.7096804 12.5797101,46.7247848 C12.5797101,44.7398892 14.1886419,43.1304348 16.173913,43.1304348" id="Fill-25" fill="#CDE5F7"></path>
                <path d="M16.173913,43.1304348 C18.1591842,43.1304348 19.7681159,44.7398892 19.7681159,46.7247848 C19.7681159,48.7096804 18.1591842,50.3188406 16.173913,50.3188406 C14.1886419,50.3188406 12.5797101,48.7096804 12.5797101,46.7247848 C12.5797101,44.7398892 14.1886419,43.1304348 16.173913,43.1304348 Z" id="Stroke-27" stroke="#2E527E" stroke-width="0.9"></path>
                <path d="M43.1302877,34.1449275 C45.1151833,34.1449275 46.7246377,35.7543819 46.7246377,37.7392776 C46.7246377,39.7241732 45.1151833,41.3333333 43.1302877,41.3333333 C41.145392,41.3333333 39.5362319,39.7241732 39.5362319,37.7392776 C39.5362319,35.7543819 41.145392,34.1449275 43.1302877,34.1449275" id="Fill-29" fill="#CDE5F7"></path>
                <path d="M43.1302877,34.1449275 C45.1151833,34.1449275 46.7246377,35.7543819 46.7246377,37.7392776 C46.7246377,39.7241732 45.1151833,41.3333333 43.1302877,41.3333333 C41.145392,41.3333333 39.5362319,39.7241732 39.5362319,37.7392776 C39.5362319,35.7543819 41.145392,34.1449275 43.1302877,34.1449275 Z" id="Stroke-31" stroke="#2E527E" stroke-width="0.9"></path>
                <path d="M57.5073935,5.39130435 C59.4922891,5.39130435 61.1014493,7.00046448 61.1014493,8.98565436 C61.1014493,10.97055 59.4922891,12.5797101 57.5073935,12.5797101 C55.5224978,12.5797101 53.9130435,10.97055 53.9130435,8.98565436 C53.9130435,7.00046448 55.5224978,5.39130435 57.5073935,5.39130435" id="Fill-33" fill="#CDE5F7"></path>
                <path d="M57.5073935,5.39130435 C59.4922891,5.39130435 61.1014493,7.00046448 61.1014493,8.98565436 C61.1014493,10.97055 59.4922891,12.5797101 57.5073935,12.5797101 C55.5224978,12.5797101 53.9130435,10.97055 53.9130435,8.98565436 C53.9130435,7.00046448 55.5224978,5.39130435 57.5073935,5.39130435 Z" id="Stroke-35" stroke="#2E527E" stroke-width="0.9"></path>
            </g>
        </g>
    </g>
</svg>