<?xml version="1.0" encoding="UTF-8"?>
<svg width="80px" height="80px" viewBox="0 0 80 80" version="1.1" xmlns="http://www.w3.org/2000/svg" xmlns:xlink="http://www.w3.org/1999/xlink" style="background: #FFFFFF;">
    <!-- Generator: Sketch 47.1 (45422) - http://www.bohemiancoding.com/sketch -->
    <title>Centralized</title>
    <desc>Created with Sketch.</desc>
    <defs></defs>
    <g id="Page-1" stroke="none" stroke-width="1" fill="none" fill-rule="evenodd">
        <g id="Centralized">
            <g id="Page-1" transform="translate(7.000000, 8.000000)">
                <path d="M24,21.783848 L20.0302694,17.9330166 C20.4926409,17.0707838 20.7786726,16.0945368 20.7786726,15.0413302 C20.7786726,11.7035629 18.144682,9 14.8914191,9 C11.6381561,9 9,11.7021378 9,15.0413302 C9,18.3805226 11.6381561,21.0855107 14.8914191,21.0855107 C16.0383227,21.0855107 17.0991391,20.7349169 18.0044432,20.1534442 L21.9686198,24 C22.5684532,23.1862233 23.2446543,22.4408551 24,21.783848" id="Fill-1" fill="#2F527F"></path>
                <path d="M41.6529023,21 L47.1572037,11.8603036 C47.6990854,12.0132752 48.2612515,12.1233576 48.8509463,12.1233576 C52.2500226,12.1233576 55,9.40989856 55,6.06024917 C55,2.71202941 52.2500226,0 48.8509463,0 C45.4562166,0 42.709137,2.71059977 42.709137,6.06024917 C42.709137,7.72292191 43.3886625,9.22547485 44.4869148,10.3220097 L39,19.4359725 C39.943222,19.8577167 40.8328353,20.3838246 41.6529023,21" id="Fill-3" fill="#2F527F"></path>
                <path d="M60.1186181,28 C57.5887079,28 55.4432109,29.6406748 54.6119348,31.9282765 L47.287269,31.1907514 C47.287269,31.2473753 47.2969834,31.3011679 47.2969834,31.3563761 C47.2969834,32.3303055 47.1915127,33.2801699 47,34.2003067 L54.3218903,34.9364162 C54.7659776,37.8029963 57.184866,40 60.1186181,40 C63.3687824,40 66,37.3160316 66,34.0007078 C66,30.6867996 63.3687824,28 60.1186181,28" id="Fill-5" fill="#2F527F"></path>
                <path d="M39.1839596,52.1921298 L37.5127339,45 C36.5702815,45.3236179 35.5910366,45.5551722 34.5665088,45.6709493 L36.2405646,52.864474 C34.3216975,53.8534616 33,55.8077234 33,58.0897878 C33,61.3566552 35.6816026,64 39.0042427,64 C42.3183922,64 44.9999948,61.3552603 44.9999948,58.0897878 C45.0042401,54.8829014 42.4117884,52.2869833 39.1839596,52.1921298" id="Fill-7" fill="#2F527F"></path>
                <g id="Group-11" transform="translate(0.000000, 34.000000)" fill="#2F527F">
                    <path d="M19.7407375,0.39354 L10.7069875,3.47494 C9.6647375,1.85374 7.8703625,0.77714 5.8284875,0.77714 C2.6068625,0.77714 -0.0001375,3.43434 -0.0001375,6.71314 C-0.0001375,9.99474 2.6068625,12.65194 5.8284875,12.65194 C9.0473625,12.65194 11.6612375,9.99474 11.6612375,6.71314 C11.6612375,6.57594 11.6323625,6.44994 11.6213625,6.31414 L20.6839875,3.22434 C20.2756125,2.32834 19.9511125,1.38334 19.7407375,0.39354" id="Fill-9"></path>
                </g>
                <path d="M33,21 C38.5233118,21 43,25.7005226 43,31.5 C43,37.2994774 38.5233118,42 33,42 C27.4766882,42 23,37.2994774 23,31.5 C23,25.7005226 27.4766882,21 33,21" id="Fill-12" fill="#B1DBFE"></path>
                <polygon id="Fill-14" fill="#D6D6D6" points="41.5446777 21.1445312 38.8747559 19.3994141 44.3005371 10.2902832 47.3757324 11.9589844"></polygon>
                <polygon id="Fill-16" fill="#D6D6D6" points="45 34.2342899 45.3764311 31 54.6408691 31.8275146 54.291748 34.9628906"></polygon>
                <path d="M49,54 L55,44" id="Fill-18" fill="#D6D6D6"></path>
                <polygon id="Fill-20" fill="#D6D6D6" points="40 52.0770821 36.2346191 52.7824707 34.4597168 45.6481934 37.5749512 45.0036621"></polygon>
                <polygon id="Fill-22" fill="#D6D6D6" points="11.6862793 40.2705078 10.7529297 37.4421387 19.6518555 34.1743164 20.7304688 37.4421387"></polygon>
                <polygon id="Fill-24" fill="#D6D6D6" points="18.0328369 20.1755371 20.0941162 17.8936768 25 22.4242021 22.7773386 25"></polygon>
            </g>
        </g>
    </g>
</svg>