<?xml version="1.0" encoding="UTF-8"?>
<svg width="80px" height="80px" viewBox="0 0 80 80" version="1.1" xmlns="http://www.w3.org/2000/svg" xmlns:xlink="http://www.w3.org/1999/xlink" style="background: #FFFFFF;">
    <!-- Generator: Sketch 47.1 (45422) - http://www.bohemiancoding.com/sketch -->
    <title>Concealed</title>
    <desc>Created with Sketch.</desc>
    <defs></defs>
    <g id="Page-1" stroke="none" stroke-width="1" fill="none" fill-rule="evenodd">
        <g id="Concealed">
            <g id="Page-1" transform="translate(10.000000, 10.000000)">
                <path d="M27,13.5 C27,20.4035523 21.4035243,26 14.4999375,26 C7.5964757,26 2,20.4035523 2,13.5 C2,6.59644772 7.5964757,1 14.4999375,1 C21.4035243,1 27,6.59644772 27,13.5" id="Fill-1" fill="#B1DBFE"></path>
                <path d="M52.84,36.4146341 C52.36672,36.4146341 51.90364,36.3859512 51.4477,36.3439512 C51.35794,36.3357561 51.26818,36.3285854 51.17944,36.3183415 C50.7439,36.2701951 50.32162,36.2046341 49.91668,36.1184573 C49.88812,36.112439 49.86058,36.1042439 49.83202,36.0980976 L49.23022,32.7749756 C50.29306,32.4779024 51.54358,32.3170732 52.84,32.3170732 C56.63644,32.3170732 58.96,33.6436585 58.96,34.3658537 C58.96,35.0880488 56.63644,36.4146341 52.84,36.4146341 L52.84,36.4146341 Z M58.96,40.3902927 C58.6183,40.7969756 56.65888,41.5365854 53.35,41.5365854 C52.45342,41.5365854 51.58438,41.4781951 50.78572,41.367561 C50.7847,41.362439 50.7847,41.3583415 50.78368,41.3532195 L50.3053,38.7092683 L50.22472,38.2616098 C50.29,38.2718537 50.35936,38.2759512 50.42464,38.2861951 C50.64496,38.3179512 50.86834,38.343561 51.09478,38.367122 C51.23044,38.380439 51.36406,38.3958049 51.50074,38.4060488 C51.77818,38.427561 52.05868,38.4398537 52.34122,38.4480488 C52.42588,38.4500976 52.51054,38.4552195 52.5952,38.4562439 C52.6768,38.4572683 52.75738,38.4634146 52.84,38.4634146 C54.30778,38.4634146 55.77862,38.2759512 57.0628,37.9133171 C57.073,37.9102439 57.08218,37.9081951 57.09238,37.905122 C57.40858,37.8149756 57.71152,37.7125366 58.0012,37.600878 C58.0573,37.5793659 58.11136,37.5568293 58.16542,37.5342927 C58.42348,37.4287805 58.67134,37.3160976 58.90186,37.1931707 C58.92022,37.1839512 58.94164,37.1767805 58.96,37.1665366 L58.96,40.3902927 Z M58.96,44.6097561 C58.96,45.3319512 56.63644,46.6585366 52.84,46.6585366 C51.30184,46.6585366 49.82182,46.426 48.6835,46.0305854 L50.03296,43.3200488 C51.055,43.4921463 52.18312,43.5853659 53.35,43.5853659 C55.30636,43.5853659 57.44224,43.336439 58.96,42.7291037 L58.96,44.6097561 Z M42.64,50.7560976 L58.96,50.7560976 L58.96,48.7073171 L42.64,48.7073171 L42.64,50.7560976 Z M42.64,54.8536585 L58.96,54.8536585 L58.96,52.804878 L42.64,52.804878 L42.64,54.8536585 Z M42.64,58.9512195 L58.96,58.9512195 L58.96,56.902439 L42.64,56.902439 L42.64,58.9512195 Z M41.62,46.6585366 L36.63118,46.6585366 C36.1987,46.5243415 34.60342,45.8738537 32.9449,45.171122 C32.94388,45.1700976 32.94286,45.1690732 32.94082,45.1690732 L32.1646,44.8392195 L30.77842,42.0559512 C30.7825,41.8910244 30.75088,41.7250732 30.6754,41.5734634 L30.48058,41.1821463 L30.6805,40.0758049 L31.21498,37.125561 L31.95346,33.0423415 L32.35432,30.8296585 L36.87802,27.195122 L42.28198,27.195122 L46.80466,30.8286341 L47.20552,33.0413171 L47.944,37.1245366 L48.47848,40.0747805 L48.71512,41.3839512 L48.55192,41.7117561 L47.0005,44.8279512 L46.73836,44.9334634 L46.21306,45.1444878 C46.21204,45.1444878 46.21102,45.1455122 46.21102,45.1455122 L42.44416,46.6585366 L41.62,46.6585366 Z M40.6,51.7804878 L40.6,55.8780488 L40.6,58.9512195 L30.4,58.9512195 L30.4,55.8780488 L30.4,51.7804878 L30.4,48.7073171 L36.52,48.7073171 L40.6,48.7073171 L40.6,51.7804878 Z M26.32,46.6585366 C22.52356,46.6585366 20.2,45.3319512 20.2,44.6097561 L20.2,42.3960488 C22.4338,43.2667805 25.77124,43.3098049 26.32,43.3098049 C27.2584,43.3098049 28.16926,43.2421951 29.03932,43.1438537 L30.4765,46.0305854 C29.33716,46.4249756 27.85612,46.6585366 26.32,46.6585366 L26.32,46.6585366 Z M12.04,50.7560976 L28.36,50.7560976 L28.36,48.7073171 L12.04,48.7073171 L12.04,50.7560976 Z M12.04,54.8536585 L28.36,54.8536585 L28.36,52.804878 L12.04,52.804878 L12.04,54.8536585 Z M12.04,58.9512195 L28.36,58.9512195 L28.36,56.902439 L12.04,56.902439 L12.04,58.9512195 Z M20.2,37.1665366 C20.21836,37.1767805 20.23978,37.1839512 20.25814,37.1931707 C20.48764,37.3160976 20.73448,37.4277561 20.99152,37.5332683 C21.04762,37.5558049 21.1027,37.5793659 21.16084,37.6019024 C21.44848,37.7125366 21.74938,37.8139512 22.06354,37.9040976 C22.07782,37.9081951 22.09312,37.9122927 22.10842,37.9165183 C23.38852,38.2769756 24.8563,38.4634146 26.32,38.4634146 C26.39956,38.4634146 26.47708,38.4572683 26.55664,38.4562439 C26.6515,38.4552195 26.74534,38.4500976 26.84122,38.4470244 C27.11458,38.4388293 27.3859,38.427561 27.65416,38.4060488 C27.79594,38.3958049 27.93466,38.380439 28.0744,38.3660976 C28.29778,38.343561 28.5181,38.3179512 28.73536,38.2861951 C28.80166,38.2769756 28.87102,38.2718537 28.9363,38.2616098 L28.9312,38.2892683 L28.88326,38.2800488 L28.37632,41.0766341 C28.37122,41.1073659 28.36612,41.139122 28.36408,41.170878 C27.70618,41.2302927 27.01666,41.26 26.32,41.26 C22.72858,41.26 20.58964,40.5080976 20.2,40.0911707 L20.2,37.1665366 Z M26.32,32.3170732 C27.61642,32.3170732 28.86694,32.4779024 29.92978,32.776 L29.32798,36.099122 C29.29942,36.1052683 29.27188,36.1134634 29.24332,36.1196098 C28.8394,36.2046341 28.4161,36.2712195 27.98056,36.3193659 C27.89182,36.3296098 27.80206,36.3367805 27.7123,36.3449756 C27.25636,36.3859512 26.79328,36.4146341 26.32,36.4146341 C22.52356,36.4146341 20.2,35.0880488 20.2,34.3658537 C20.2,33.6436585 22.52356,32.3170732 26.32,32.3170732 L26.32,32.3170732 Z M35.11036,21.0487805 L44.04964,21.0487805 L42.54004,24.0809756 L42.09226,24.9803902 L42.00964,25.1463415 L37.15036,25.1463415 L35.11036,21.0487805 Z M47.74,24.1219512 C50.13394,24.1219512 51.53134,24.8113659 51.7945,25.1463415 C51.53134,25.4813171 50.13394,26.1707317 47.74,26.1707317 C46.42318,26.1707317 45.21754,25.6298537 44.40562,25.1463415 C45.26446,24.6341463 46.44664,24.1219512 47.74,24.1219512 L47.74,24.1219512 Z M61,44.6097561 L61,34.3658537 C61,31.6758049 56.89552,30.2682927 52.84,30.2682927 C51.43648,30.2682927 50.0656,30.4383415 48.86506,30.754878 L48.74368,30.0849268 C48.69982,29.8421463 48.56926,29.6229268 48.3775,29.4672195 L46.72408,28.1396098 C47.05354,28.1867317 47.39116,28.2195122 47.74,28.2195122 C50.6878,28.2195122 53.86,27.2586341 53.86,25.1463415 C53.86,23.0340488 50.6878,22.0731707 47.74,22.0731707 C47.00764,22.0731707 46.31302,22.192 45.67042,22.3753659 L46.6129,20.4822927 C46.771,20.1647317 46.75366,19.7877561 46.56802,19.485561 C46.38238,19.1833659 46.05394,19 45.7,19 L33.46,19 C33.10606,19 32.77864,19.1843902 32.59198,19.4865854 C32.40532,19.7887805 32.389,20.1657561 32.5471,20.4833171 L35.23888,25.8890244 L30.7825,29.4682439 C30.59074,29.6229268 30.46018,29.8421463 30.41632,30.0859512 L30.29494,30.7559024 C29.0944,30.4383415 27.72352,30.2682927 26.32,30.2682927 C22.26448,30.2682927 18.16,31.6758049 18.16,34.3658537 L18.16,44.6097561 C18.16,45.4077561 18.5272,46.09 19.14124,46.6585366 L11.02,46.6585366 C10.45696,46.6585366 10,47.116439 10,47.6829268 L10,51.7804878 L10,55.8780488 L10,59.9756098 C10,60.5420976 10.45696,61 11.02,61 L29.38,61 L41.62,61 L59.98,61 C60.54304,61 61,60.5420976 61,59.9756098 L61,55.8780488 L61,51.7804878 L61,47.6829268 C61,47.1277073 60.55936,46.683122 60.01162,46.6646829 C60.62974,46.095122 61,45.4108293 61,44.6097561 L61,44.6097561 Z" id="Fill-3" fill="#2F527F"></path>
                <path d="M42.6,38.2 L39.096,35.572125 C39.257,35.234 39.602125,35 40,35 C40.551,35 41,35.448 41,36 L43,36 C43,34.346 41.654125,33 40,33 C38.346,33 37,34.346 37,36 C37,36.314 37.148,36.611 37.4,36.800125 L40.904125,39.428 C40.743125,39.766 40.398,40 40,40 C39.449,40 39,39.552 39,39 L37,39 C37,40.302 37.839,41.402 39,41.816125 L39,43 L41,43 L41,41.816125 C42.161,41.402 43,40.302 43,39 C43,38.686125 42.852125,38.389125 42.6,38.2" id="Fill-5" fill="#2F527F"></path>
                <polygon id="Fill-7" fill="#2F527F" points="39 32 39 33 40 33 41 33 41 32"></polygon>
                <path d="M14,26 C7.383,26 2,20.617 2,14 C2,7.383 7.383,2 14,2 C20.617,2 26,7.383 26,14 C26,20.617 20.617,26 14,26 M14,0 C6.28,0 0,6.28 0,14 C0,21.72 6.28,28 14,28 C21.72,28 28,21.72 28,14 C28,6.28 21.72,0 14,0" id="Fill-9" fill="#2F527F"></path>
                <polygon id="Fill-11" fill="#2F527F" points="20 9.48659541 18.5132732 8 14 12.5134046 9.48659541 8 8 9.48659541 12.5134046 14 8 18.5134046 9.48659541 20 14 15.4865954 18.5132732 20 20 18.5134046 15.4865954 14"></polygon>
            </g>
        </g>
    </g>
</svg>