<?xml version="1.0" encoding="UTF-8"?>
<svg width="80px" height="80px" viewBox="0 0 80 80" version="1.1" xmlns="http://www.w3.org/2000/svg" xmlns:xlink="http://www.w3.org/1999/xlink" style="background: #FFFFFF;">
    <!-- Generator: Sketch 47.1 (45422) - http://www.bohemiancoding.com/sketch -->
    <title>Decentralized</title>
    <desc>Created with Sketch.</desc>
    <defs>
        <polygon id="path-1" points="7 0 0 0 0 15 7 15 7 0"></polygon>
    </defs>
    <g id="Page-1" stroke="none" stroke-width="1" fill="none" fill-rule="evenodd">
        <g id="Decentralized">
            <g id="Page-1" transform="translate(6.000000, 6.000000)">
                <path d="M26,22.6361045 L21.7656207,18.5285511 C22.258817,17.6088361 22.5639174,16.5675059 22.5639174,15.4440855 C22.5639174,11.8838005 19.7543275,9 16.2841803,9 C12.8140331,9 10,11.8822803 10,15.4440855 C10,19.0058907 12.8140331,21.8912114 16.2841803,21.8912114 C17.5075442,21.8912114 18.6390817,21.5172447 19.6047394,20.8970071 L23.8331945,25 C24.4730168,24.1319715 25.1942979,23.3369121 26,22.6361045" id="Fill-1" fill="#2F527F"></path>
                <path d="M43.6529023,22 L49.1572037,12.42508 C49.6990854,12.585336 50.2612515,12.7006604 50.8509463,12.7006604 C54.2500226,12.7006604 57,9.85798897 57,6.34883246 C57,2.84117367 54.2500226,0 50.8509463,0 C47.4562166,0 44.709137,2.83967595 44.709137,6.34883246 C44.709137,8.0906801 45.3886625,9.66478317 46.4869148,10.8135339 L41,20.361495 C41.943222,20.8033222 42.8328353,21.3544829 43.6529023,22" id="Fill-3" fill="#2F527F"></path>
                <path d="M62.8090717,30 C60.1460083,30 57.8875904,31.7773977 57.012563,34.2556329 L49.3023884,33.4566474 C49.3023884,33.5179899 49.3126141,33.5762652 49.3126141,33.6360741 C49.3126141,34.6911643 49.2015923,35.720184 49,36.7169989 L56.7072529,37.5144509 C57.1747133,40.6199127 59.7209115,43 62.8090717,43 C66.2302973,43 69,40.0923676 69,36.5007668 C69,32.9106995 66.2302973,30 62.8090717,30" id="Fill-5" fill="#2F527F"></path>
                <path d="M41.1839596,54.5706629 L39.5127339,47 C38.5702815,47.3406505 37.5910366,47.5843917 36.5665088,47.7062624 L38.2405646,55.2783937 C36.3216975,56.3194332 35,58.3765509 35,60.778724 C35,64.2175318 37.6816026,67 41.0042427,67 C44.3183922,67 46.9999948,64.2160634 46.9999948,60.778724 C47.0042401,57.4030541 44.4117884,54.6705088 41.1839596,54.5706629" id="Fill-7" fill="#2F527F"></path>
                <g id="Group-11" transform="translate(0.000000, 36.000000)" fill="#2F527F">
                    <path d="M20.6380438,0.42165 L11.1936688,3.72315 C10.1040438,1.98615 8.22810625,0.83265 6.09341875,0.83265 C2.72535625,0.83265 -0.00014375,3.67965 -0.00014375,7.19265 C-0.00014375,10.70865 2.72535625,13.55565 6.09341875,13.55565 C9.45860625,13.55565 12.1912938,10.70865 12.1912938,7.19265 C12.1912938,7.04565 12.1611063,6.91065 12.1496063,6.76515 L21.6241688,3.45465 C21.1972313,2.49465 20.8579813,1.48215 20.6380438,0.42165" id="Fill-9"></path>
                </g>
                <path d="M34.5,22 C40.2994774,22 45,26.7005226 45,32.5 C45,38.2994774 40.2994774,43 34.5,43 C28.7005226,43 24,38.2994774 24,32.5 C24,26.7005226 28.7005226,22 34.5,22" id="Fill-12" fill="#B1DBFE"></path>
            </g>
            <g id="Page-1" transform="translate(37.000000, 32.000000)">
                <mask id="mask-2" fill="white">
                    <use xlink:href="#path-1"></use>
                </mask>
                <g id="Clip-2"></g>
                <path d="M4.10099641,11.6445214 L4.10099641,7.40150671 C5.06589325,7.66493808 5.71344624,8.51479102 5.71344624,9.52300181 C5.71344624,10.5312371 5.06589325,11.38109 4.10099641,11.6445214 L4.10099641,11.6445214 Z M2.8313499,5.95466847 C1.96799521,5.6752322 1.26967115,4.83741357 1.26967115,3.8474871 C1.26967115,2.85758514 1.96797057,2.01984004 2.8313499,1.74030573 L2.8313499,5.95466847 Z M4.10099641,6.10790377 L4.10099641,1.72726651 C5.06589325,1.99425181 5.73032885,2.8539822 5.73032885,3.85704592 L7,3.85704592 C7,2.14510965 5.77693472,0.720550826 4.10099641,0.432585139 L4.10099641,-0.789473684 L2.8313499,-0.789473684 L2.8313499,0.44128612 C1.25695374,0.748001806 0,2.15427632 0,3.84437436 C0,5.53447239 1.25695374,6.94562436 2.83132526,7.25354102 L2.83132526,11.6287861 C1.96797057,11.3456244 1.28655376,10.4983204 1.28655376,9.51359004 L0.0169072601,9.51359004 C0.0169072601,11.2077322 1.25695374,12.6207224 2.83132526,12.9289332 L2.83132526,14.2105263 L4.10097176,14.2105263 L4.10097176,12.9381489 C5.77691008,12.651041 6.98306809,11.2308449 6.98306809,9.52305083 C6.98306809,7.81528122 5.77693472,6.39501161 4.10099641,6.10790377 L4.10099641,6.10790377 Z" id="Fill-1" fill="#2F527F" mask="url(#mask-2)"></path>
            </g>
        </g>
    </g>
</svg>