<?xml version="1.0" encoding="UTF-8"?>
<svg width="80px" height="80px" viewBox="0 0 80 80" version="1.1" xmlns="http://www.w3.org/2000/svg" xmlns:xlink="http://www.w3.org/1999/xlink" style="background: #FFFFFF;">
    <!-- Generator: Sketch 47.1 (45422) - http://www.bohemiancoding.com/sketch -->
    <title>2</title>
    <desc>Created with Sketch.</desc>
    <defs>
        <polygon id="path-1" points="66.2291 1 0.5001 1 0.5001 0.5005 66.2291 0.5005"></polygon>
    </defs>
    <g id="Page-1" stroke="none" stroke-width="1" fill="none" fill-rule="evenodd">
        <g id="2">
            <g id="Page-1" transform="translate(7.000000, 8.000000)">
                <path d="M29.8663,47.2873 L31.8663,50.8613 L29.8663,59.9493 L30.4233,62.9793 C30.4233,62.9793 36.3593,63.2393 36.3593,63.2363 C36.3593,63.2333 37.1663,59.1353 37.1663,59.1353 L34.9153,50.8573 L36.7623,47.2513 L33.7633,44.1113 L29.8663,47.2873 Z" id="Fill-1" fill="#C9C9C9"></path>
                <path d="M2.7052,63.2365 L4.5572,52.8995 C4.5572,52.8995 5.4822,50.1225 8.2602,49.0425 C11.0372,47.9625 20.1402,45.0315 20.1402,45.0315 C20.1402,45.0315 21.3742,41.7915 24.3062,42.2545 C24.3062,42.2545 25.9082,42.0605 26.7862,42.9555 L27.2362,47.6535 L30.4762,63.2365 L2.7052,63.2365 Z" id="Fill-3" fill="#B1DBFE"></path>
                <path d="M63.8536,63.2365 L62.0016,52.8995 C62.0016,52.8995 61.0766,50.1225 58.2986,49.0425 C55.5216,47.9625 46.4186,45.0315 46.4186,45.0315 C46.4186,45.0315 45.1846,41.7915 42.2526,42.2545 C42.2526,42.2545 40.4426,41.5305 39.8676,42.8845 L39.3226,47.6535 L36.0826,63.2365 L63.8536,63.2365 Z" id="Fill-5" fill="#B1DBFE"></path>
                <path d="M14.5704,62.4933 L14.6054,58.8193" id="Stroke-7" stroke="#2F527F" stroke-linecap="round" stroke-linejoin="round"></path>
                <path d="M20.6798,44.8517 C20.6798,44.8517 19.3978,49.4137 22.8258,56.4917 C24.5888,60.1317 25.9088,62.8577 25.9088,62.8577" id="Stroke-9" stroke="#2F527F" stroke-linecap="round" stroke-linejoin="round"></path>
                <path d="M46.17,44.8898 C46.17,44.8898 47.452,49.4518 44.024,56.5298 C42.261,60.1688 40.941,62.8948 40.941,62.8948" id="Stroke-11" stroke="#2F527F" stroke-linecap="round" stroke-linejoin="round"></path>
                <path d="M52.2208,58.8195 L52.2208,62.5175" id="Stroke-13" stroke="#2F527F" stroke-linecap="round" stroke-linejoin="round"></path>
                <path d="M20.7012,44.8517 L7.5032,49.3857 C5.9632,50.1067 4.8942,51.2827 4.5112,53.5787 L2.8442,63.1847" id="Stroke-15" stroke="#2F527F" stroke-linecap="round" stroke-linejoin="round"></path>
                <path d="M46.2296,44.8517 L59.4266,49.3857 C60.9666,50.1067 62.0366,51.2827 62.4186,53.5787 L64.0866,63.1847" id="Stroke-17" stroke="#2F527F" stroke-linecap="round" stroke-linejoin="round"></path>
                <path d="M30.4229,62.8576 L26.5209,42.4936 L24.3269,42.2196 C21.2989,41.8676 20.6789,44.8886 20.6789,44.8886" id="Stroke-19" stroke="#2F527F" stroke-linecap="round" stroke-linejoin="round"></path>
                <path d="M36.547,62.8576 L39.98,42.2086 C39.98,42.2086 41.114,41.7836 42.474,41.9086 C45.528,42.1896 46.147,44.8516 46.147,44.8516" id="Stroke-21" stroke="#2F527F" stroke-linecap="round" stroke-linejoin="round"></path>
                <g id="Group-25" transform="translate(0.000000, 62.733100)">
                    <mask id="mask-2" fill="white">
                        <use xlink:href="#path-1"></use>
                    </mask>
                    <g id="Clip-24"></g>
                    <path d="M0.5001,0.5005 L66.2291,0.5005" id="Stroke-23" stroke="#2F527F" stroke-linecap="round" stroke-linejoin="round" mask="url(#mask-2)"></path>
                </g>
                <path d="M20.7481,22.5588 C19.2261,22.5588 17.9911,21.1828 17.9911,19.4848 C17.9911,18.4358 18.4621,17.5098 19.1821,16.9548" id="Stroke-26" stroke="#2F527F" stroke-linecap="round" stroke-linejoin="round"></path>
                <path d="M44.7345,22.5588 C46.2565,22.5588 47.4915,21.1828 47.4915,19.4848 C47.4915,18.4358 47.0205,17.5098 46.3005,16.9548" id="Stroke-28" stroke="#2F527F" stroke-linecap="round" stroke-linejoin="round"></path>
                <path d="M30.6466,23.8781 L30.4896,24.2641 C30.3776,24.8521 30.8296,25.3951 31.4266,25.3951 L33.8396,25.3951 C34.4376,25.3951 34.8886,24.8521 34.7776,24.2641 L34.6206,23.8781" id="Stroke-30" stroke="#2F527F" stroke-linecap="round" stroke-linejoin="round"></path>
                <path d="M28.7491,19.4479 C28.7491,20.0539 28.2581,20.5459 27.6511,20.5459 C27.0461,20.5459 26.5541,20.0539 26.5541,19.4479 C26.5541,18.8419 27.0461,18.3509 27.6511,18.3509 C28.2581,18.3509 28.7491,18.8419 28.7491,19.4479" id="Fill-32" fill="#2F527F"></path>
                <path d="M24.754,16.3781 C26.49,16.0521 28.087,16.0761 29.573,16.3781" id="Stroke-34" stroke="#2F527F" stroke-linecap="round" stroke-linejoin="round"></path>
                <path d="M37.1456,19.4479 C37.1456,20.0539 37.6366,20.5459 38.2436,20.5459 C38.8496,20.5459 39.3406,20.0539 39.3406,19.4479 C39.3406,18.8419 38.8496,18.3509 38.2436,18.3509 C37.6366,18.3509 37.1456,18.8419 37.1456,19.4479" id="Fill-36" fill="#2F527F"></path>
                <path d="M40.5128,16.3781 C39.0298,16.0771 37.4328,16.0511 35.6938,16.3781" id="Stroke-38" stroke="#2F527F" stroke-linecap="round" stroke-linejoin="round"></path>
                <polyline id="Stroke-40" stroke="#2F527F" stroke-linecap="round" stroke-linejoin="round" points="26.2589 42.4601 27.3179 40.7991 33.4739 44.2831 28.0269 48.8191"></polyline>
                <polyline id="Stroke-42" stroke="#2F527F" stroke-linecap="round" stroke-linejoin="round" points="40.0499 42.0607 38.8659 40.7987 33.4739 44.2837 38.7219 49.0197"></polyline>
                <polyline id="Stroke-44" stroke="#2F527F" stroke-linecap="round" stroke-linejoin="round" points="29.8663 47.2873 31.8663 50.8613 34.5673 50.8613"></polyline>
                <polyline id="Stroke-46" stroke="#2F527F" stroke-linecap="round" stroke-linejoin="round" points="36.6505 47.2844 34.9155 50.8574 32.2275 50.8614"></polyline>
                <path d="M31.8663,50.8615 L29.8033,59.6225" id="Stroke-48" stroke="#2F527F" stroke-linecap="round" stroke-linejoin="round"></path>
                <path d="M34.9151,50.8576 L37.1151,59.4376" id="Stroke-50" stroke="#2F527F" stroke-linecap="round" stroke-linejoin="round"></path>
                <path d="M38.1397,38.2424 L43.0767,32.2814 C43.8727,31.3204 44.3297,30.1244 44.3777,28.8774 L45.0947,10.1394 C45.0947,4.8374 40.7577,0.5004 35.4557,0.5004 L30.0297,0.5004 C24.7277,0.5004 20.3897,4.8374 20.3897,10.1394 L21.1067,28.8814 C21.1547,30.1254 21.6107,31.3194 22.4057,32.2784 L27.3457,38.2424 C28.1957,39.2674 29.4567,39.8614 30.7887,39.8614 L34.6967,39.8614 C36.0277,39.8614 37.2897,39.2674 38.1397,38.2424 Z" id="Stroke-52" stroke="#2F527F" stroke-linecap="round" stroke-linejoin="round"></path>
                <path d="M35.4981,35.4719 L34.0831,35.4719 L34.0831,34.6649 C34.0831,34.1529 33.6681,33.7379 33.1561,33.7379 L31.6671,33.7379 C31.1551,33.7379 30.7401,34.1529 30.7401,34.6649 L30.7401,35.4719 L29.4771,35.4719 C28.6691,35.4719 27.8681,35.1569 27.3581,34.5309 C26.9121,33.9839 26.6571,33.4039 26.5111,32.9279 C26.2771,32.1699 26.3901,31.3209 26.9301,30.7409 C26.9381,30.7319 26.9461,30.7239 26.9541,30.7149 C27.4301,30.2189 28.1171,29.9859 28.8041,29.9909 L32.1961,30.0189 L32.1961,30.0209 L32.3751,30.0199 L32.5451,30.0209 L32.5451,30.0189 L35.9361,29.9929 L35.9371,29.9939 C35.9371,29.9939 35.9581,29.9929 35.9781,29.9919 L36.2301,29.9899 C36.5111,29.9949 36.9401,30.0379 37.3171,30.2029 C37.3961,30.2429 37.4771,30.2849 37.5621,30.3379 C37.5921,30.3579 37.6201,30.3769 37.6471,30.3989 C37.7211,30.4489 37.7951,30.5039 37.8681,30.5649 C38.5671,31.1459 38.7711,32.1279 38.4821,32.9899 C38.3211,33.4669 38.0471,34.0389 37.5761,34.5769 C37.0591,35.1679 36.2831,35.4719 35.4981,35.4719 M39.5941,31.4019 C39.5941,31.4019 39.0911,29.1719 36.0501,26.9929 C35.5641,26.6439 34.9811,26.4459 34.3841,26.4459 L32.5451,26.4459 L32.1961,26.4459 L30.5251,26.4459 C29.9071,26.4459 29.3031,26.6559 28.8111,27.0279 C25.9421,29.1969 25.4661,31.4019 25.4661,31.4019 C22.6341,30.4819 20.8691,26.9329 20.8691,26.9329 L21.4501,31.1259 L28.4811,39.6139 L32.1961,39.6139 L32.5451,39.6139 L36.4431,39.6139 L43.7911,31.1259 L44.3971,26.9329 C44.3971,26.9329 42.5531,30.4819 39.5941,31.4019" id="Fill-54" fill="#2F527F"></path>
                <path d="M27.1163,35.8615 L27.4283,41.0075" id="Stroke-56" stroke="#2F527F" stroke-linecap="round" stroke-linejoin="round"></path>
                <path d="M39.1163,36.7951 L38.8663,40.7991" id="Stroke-58" stroke="#2F527F" stroke-linecap="round" stroke-linejoin="round"></path>
                <path d="M37.0245,0.1222 L35.3575,0.1222 L30.1285,0.1222 L28.4605,0.1222 C28.4605,0.1222 21.0275,1.4342 20.2155,8.6132 L20.6265,15.6972 C20.5875,15.5662 20.9095,13.1272 23.5055,11.0052 C23.9095,10.6762 24.1475,10.1842 24.1645,9.6642 C24.2155,8.0522 24.6585,4.5212 27.4205,2.6652 C28.2345,2.1192 29.2145,1.8692 30.1955,1.8692 L35.2895,1.8692 C36.2695,1.8692 37.2505,2.1192 38.0635,2.6652 C40.8265,4.5212 41.2695,8.0522 41.3205,9.6642 C41.3365,10.1842 41.5755,10.6762 41.9785,11.0052 C44.5765,13.1272 44.8965,15.5662 44.8595,15.6972 L45.2685,8.6132 C44.4575,1.4342 37.0245,0.1222 37.0245,0.1222" id="Fill-60" fill="#2F527F"></path>
                <path d="M30.3448,31.2355 C31.8698,31.6935 33.3968,31.6935 34.9218,31.2355" id="Stroke-62" stroke="#2F527F" stroke-linecap="round" stroke-linejoin="round"></path>
                <path d="M20.7247,17.423 C20.6777,16.427 20.5917,14.203 20.7477,14.07 C20.9497,13.897 22.3247,8.278 22.3247,8.278 L21.3947,4.962 C17.8397,9.561 18.6107,17.299 18.9107,17.194 L18.9117,17.194 L18.6267,17.46 L19.0677,17.731 C19.0677,17.731 19.7357,17.178 20.3897,17.801 L20.6337,17.715 C20.7097,17.823 20.7477,17.903 20.7477,17.903 C20.7477,17.903 20.7437,17.816 20.7367,17.678 L20.8087,17.653 L20.7247,17.423 Z" id="Fill-64" fill="#2F527F"></path>
                <path d="M44.753,17.423 C44.8,16.426 44.886,14.203 44.73,14.07 C44.528,13.897 43.153,8.278 43.153,8.278 L44.083,4.962 C47.638,9.561 46.867,17.299 46.567,17.194 C46.567,17.194 46.566,17.194 46.566,17.194 L46.851,17.46 L46.41,17.731 C46.41,17.731 45.742,17.178 45.088,17.801 L44.844,17.715 C44.768,17.823 44.73,17.903 44.73,17.903 C44.73,17.903 44.734,17.816 44.741,17.678 L44.669,17.653 L44.753,17.423 Z" id="Fill-66" fill="#2F527F"></path>
            </g>
        </g>
    </g>
</svg>