<?xml version="1.0" encoding="UTF-8"?>
<svg width="80px" height="80px" viewBox="0 0 80 80" version="1.1" xmlns="http://www.w3.org/2000/svg" xmlns:xlink="http://www.w3.org/1999/xlink" style="background: #FFFFFF;">
    <!-- Generator: Sketch 47.1 (45422) - http://www.bohemiancoding.com/sketch -->
    <title>Global connectivity</title>
    <desc>Created with Sketch.</desc>
    <defs></defs>
    <g id="Page-1" stroke="none" stroke-width="1" fill="none" fill-rule="evenodd">
        <g id="Global-connectivity">
            <g id="Page-1" transform="translate(11.000000, 4.000000)">
                <path d="M53,41 C53,43.7614559 50.9855,46 48.5,46 C46.0145,46 44,43.7614559 44,41 C44,38.2385441 46.0145,36 48.5,36 C50.9855,36 53,38.2385441 53,41" id="Fill-1" fill="#CDE5F7"></path>
                <path d="M35,41 C35,43.7614559 32.9855,46 30.5,46 C28.0145,46 26,43.7614559 26,41 C26,38.2385441 28.0145,36 30.5,36 C32.9855,36 35,38.2385441 35,41" id="Fill-3" fill="#CDE5F7"></path>
                <path d="M17,41 C17,43.7614559 14.9855,46 12.5,46 C10.0145,46 8,43.7614559 8,41 C8,38.2385441 10.0145,36 12.5,36 C14.9855,36 17,38.2385441 17,41" id="Fill-5" fill="#CDE5F7"></path>
                <path d="M12.5,46.1657031 C10.6730154,46.1657031 9.18645967,44.6129369 9.18645967,42.7050809 L9.18645967,40.4456457 C9.18645967,39.1596985 10.1880602,38.1139888 11.418694,38.1139888 L13.581306,38.1139888 C14.81242,38.1139888 15.8135403,39.1596985 15.8135403,40.4456457 L15.8135403,42.7050809 C15.8135403,44.6129369 14.3274648,46.1657031 12.5,46.1657031 L12.5,46.1657031 Z M12.5494558,51.3245378 C12.5225672,51.3531256 12.4779129,51.3531256 12.4505442,51.3245378 L11.0681818,49.8801042 C11.2487196,49.5541036 11.3490717,49.1789521 11.3490717,48.783739 L11.3490717,48.2796918 L13.6509283,48.2796918 L13.6509283,48.783739 C13.6509283,49.1784505 13.7512804,49.5541036 13.9318182,49.8801042 L12.5494558,51.3245378 Z M18.2455186,50.1709971 L15.7127081,48.8489391 C15.6896607,48.8364006 15.6742958,48.8113236 15.6742958,48.783739 L15.6742958,47.1828251 C16.9860755,46.1662046 17.837388,44.537706 17.837388,42.7050809 L17.837388,40.4456457 C17.837388,37.9946224 15.9282971,36 13.581306,36 L11.418694,36 C9.07170294,36 7.16309219,37.9946224 7.16309219,40.4456457 L7.16309219,42.7050809 C7.16309219,44.537706 8.01440461,46.1662046 9.32570423,47.1828251 L9.32570423,48.783739 C9.32570423,48.8113236 9.31081946,48.8364006 9.28729193,48.8489391 L6.75496159,50.1709971 C5.67221511,50.7367336 5,51.873222 5,53.1371014 L5,63.1398041 C5,64.0205074 5.24775928,64.8731245 5.71494878,65.6058736 L6.78809219,67.2865323 C7.03297055,67.671213 7.16309219,68.1185862 7.16309219,68.5800025 L7.16309219,70.9427548 C7.16309219,71.5265468 7.61587708,72 8.17429577,72 C8.73319462,72 9.18645967,71.5265468 9.18645967,70.9427548 L9.18645967,68.5800025 C9.18645967,67.7003023 8.93918054,66.8471837 8.47151088,66.1144346 L7.39836748,64.4332744 C7.15300896,64.0485936 7.02384763,63.601722 7.02384763,63.1398041 L7.02384763,53.1371014 C7.02384763,52.6786943 7.26776569,52.2669304 7.66005122,52.0618008 L9.41645327,51.1444852 L11.0201665,52.8191254 C11.4282971,53.2454339 11.9641485,53.4585882 12.5,53.4585882 C13.0358515,53.4585882 13.5717029,53.2454339 13.9803137,52.8191254 L15.5835467,51.1444852 L17.3404289,52.0618008 C17.7327145,52.2669304 17.9766325,52.6786943 17.9766325,53.1371014 L17.9766325,63.1398041 C17.9766325,63.601722 17.846991,64.0485936 17.6016325,64.4332744 L16.5289693,66.1144346 C16.0608195,66.8471837 15.8135403,67.7003023 15.8135403,68.5800025 L15.8135403,70.9427548 C15.8135403,71.5265468 16.2672855,72 16.8257042,72 C17.3846031,72 17.837388,71.5265468 17.837388,70.9427548 L17.837388,68.5800025 C17.837388,68.1185862 17.9670294,67.671213 18.2119078,67.2865323 L19.2855314,65.6058736 C19.7527209,64.8731245 20,64.0205074 20,63.1398041 L20,53.1371014 C20,51.873222 19.3277849,50.7367336 18.2455186,50.1709971 L18.2455186,50.1709971 Z" id="Fill-7" fill="#2F527D"></path>
                <path d="M12.5,46.1657031 C10.6730154,46.1657031 9.18645967,44.6129369 9.18645967,42.7050809 L9.18645967,40.4456457 C9.18645967,39.1596985 10.1880602,38.1139888 11.418694,38.1139888 L13.581306,38.1139888 C14.81242,38.1139888 15.8135403,39.1596985 15.8135403,40.4456457 L15.8135403,42.7050809 C15.8135403,44.6129369 14.3274648,46.1657031 12.5,46.1657031 Z M12.5494558,51.3245378 C12.5225672,51.3531256 12.4779129,51.3531256 12.4505442,51.3245378 L11.0681818,49.8801042 C11.2487196,49.5541036 11.3490717,49.1789521 11.3490717,48.783739 L11.3490717,48.2796918 L13.6509283,48.2796918 L13.6509283,48.783739 C13.6509283,49.1784505 13.7512804,49.5541036 13.9318182,49.8801042 L12.5494558,51.3245378 Z M18.2455186,50.1709971 L15.7127081,48.8489391 C15.6896607,48.8364006 15.6742958,48.8113236 15.6742958,48.783739 L15.6742958,47.1828251 C16.9860755,46.1662046 17.837388,44.537706 17.837388,42.7050809 L17.837388,40.4456457 C17.837388,37.9946224 15.9282971,36 13.581306,36 L11.418694,36 C9.07170294,36 7.16309219,37.9946224 7.16309219,40.4456457 L7.16309219,42.7050809 C7.16309219,44.537706 8.01440461,46.1662046 9.32570423,47.1828251 L9.32570423,48.783739 C9.32570423,48.8113236 9.31081946,48.8364006 9.28729193,48.8489391 L6.75496159,50.1709971 C5.67221511,50.7367336 5,51.873222 5,53.1371014 L5,63.1398041 C5,64.0205074 5.24775928,64.8731245 5.71494878,65.6058736 L6.78809219,67.2865323 C7.03297055,67.671213 7.16309219,68.1185862 7.16309219,68.5800025 L7.16309219,70.9427548 C7.16309219,71.5265468 7.61587708,72 8.17429577,72 C8.73319462,72 9.18645967,71.5265468 9.18645967,70.9427548 L9.18645967,68.5800025 C9.18645967,67.7003023 8.93918054,66.8471837 8.47151088,66.1144346 L7.39836748,64.4332744 C7.15300896,64.0485936 7.02384763,63.601722 7.02384763,63.1398041 L7.02384763,53.1371014 C7.02384763,52.6786943 7.26776569,52.2669304 7.66005122,52.0618008 L9.41645327,51.1444852 L11.0201665,52.8191254 C11.4282971,53.2454339 11.9641485,53.4585882 12.5,53.4585882 C13.0358515,53.4585882 13.5717029,53.2454339 13.9803137,52.8191254 L15.5835467,51.1444852 L17.3404289,52.0618008 C17.7327145,52.2669304 17.9766325,52.6786943 17.9766325,53.1371014 L17.9766325,63.1398041 C17.9766325,63.601722 17.846991,64.0485936 17.6016325,64.4332744 L16.5289693,66.1144346 C16.0608195,66.8471837 15.8135403,67.7003023 15.8135403,68.5800025 L15.8135403,70.9427548 C15.8135403,71.5265468 16.2672855,72 16.8257042,72 C17.3846031,72 17.837388,71.5265468 17.837388,70.9427548 L17.837388,68.5800025 C17.837388,68.1185862 17.9670294,67.671213 18.2119078,67.2865323 L19.2855314,65.6058736 C19.7527209,64.8731245 20,64.0205074 20,63.1398041 L20,53.1371014 C20,51.873222 19.3277849,50.7367336 18.2455186,50.1709971 Z" id="Stroke-9" stroke="#FCFDFE"></path>
                <path d="M30.4997599,46.1657031 C28.6727168,46.1657031 27.1861135,44.6129369 27.1861135,42.7050809 L27.1861135,40.4456457 C27.1861135,39.1596985 28.1877461,38.1139888 29.4184193,38.1139888 L31.5811005,38.1139888 C32.8117737,38.1139888 33.8134063,39.1596985 33.8134063,40.4456457 L33.8134063,42.7050809 C33.8134063,44.6129369 32.3272832,46.1657031 30.4997599,46.1657031 L30.4997599,46.1657031 Z M30.5492173,51.3245378 C30.5218477,51.3531256 30.4776721,51.3531256 30.4503025,51.3245378 L29.0678959,49.8801042 C29.2484395,49.5541036 29.3487948,49.1789521 29.3487948,48.783739 L29.3487948,48.2796918 L31.6507251,48.2796918 L31.6507251,48.783739 C31.6507251,49.1784505 31.7510804,49.5541036 31.9316239,49.8801042 L30.5492173,51.3245378 Z M36.2449822,50.1709971 L33.7125708,48.8489391 C33.6890425,48.8364006 33.6741573,48.8113236 33.6741573,48.783739 L33.6741573,47.1828251 C34.9854989,46.1662046 35.8368386,44.537706 35.8368386,42.7050809 L35.8368386,40.4456457 C35.8368386,37.9946224 33.9281667,36 31.5811005,36 L29.4184193,36 C27.0713531,36 25.1626813,37.9946224 25.1626813,40.4456457 L25.1626813,42.7050809 C25.1626813,44.537706 26.0140209,46.1662046 27.3253625,47.1828251 L27.3253625,48.783739 C27.3253625,48.8113236 27.3104773,48.8364006 27.286949,48.8489391 L24.7545376,50.1709971 C23.6717565,50.7367336 23,51.873222 23,53.1371014 L23,63.1398041 C23,64.0205074 23.247287,64.8731245 23.7144915,65.6058736 L24.7876693,67.2870338 C25.0325555,67.671213 25.1626813,68.1185862 25.1626813,68.580504 L25.1626813,70.9427548 C25.1626813,71.5265468 25.6154806,72 26.1743974,72 C26.732834,72 27.1861135,71.5265468 27.1861135,70.9427548 L27.1861135,68.5800025 C27.1861135,67.7003023 26.9388265,66.8471837 26.4711418,66.1144346 L25.3979641,64.4332744 C25.1525977,64.0485936 25.0234322,63.601722 25.0234322,63.1398041 L25.0234322,53.1371014 C25.0234322,52.6786943 25.2673581,52.2669304 25.6596562,52.0618008 L27.4161145,51.1444852 L29.019879,52.8191254 C29.4280227,53.2449324 29.9638913,53.4585882 30.4997599,53.4585882 C31.0356285,53.4585882 31.5714972,53.2449324 31.980121,52.8191254 L33.5834054,51.1444852 L35.3398636,52.0618008 C35.7321617,52.2669304 35.9760876,52.6786943 35.9760876,53.1371014 L35.9760876,63.1398041 C35.9760876,63.601722 35.8469221,64.0485936 35.6015557,64.4332744 L34.528378,66.1144346 C34.0606934,66.8471837 33.8134063,67.7003023 33.8134063,68.5800025 L33.8134063,70.9427548 C33.8134063,71.5265468 34.2666859,72 34.8256026,72 C35.3840392,72 35.8368386,71.5265468 35.8368386,70.9427548 L35.8368386,68.5800025 C35.8368386,68.1185862 35.9669644,67.671213 36.2118506,67.2865323 L37.2850283,65.6058736 C37.752713,64.8731245 38,64.0205074 38,63.1398041 L38,53.1371014 C38,51.873222 37.3277634,50.7367336 36.2449822,50.1709971 L36.2449822,50.1709971 Z" id="Fill-11" fill="#2F527D"></path>
                <path d="M30.4997599,46.1657031 C28.6727168,46.1657031 27.1861135,44.6129369 27.1861135,42.7050809 L27.1861135,40.4456457 C27.1861135,39.1596985 28.1877461,38.1139888 29.4184193,38.1139888 L31.5811005,38.1139888 C32.8117737,38.1139888 33.8134063,39.1596985 33.8134063,40.4456457 L33.8134063,42.7050809 C33.8134063,44.6129369 32.3272832,46.1657031 30.4997599,46.1657031 Z M30.5492173,51.3245378 C30.5218477,51.3531256 30.4776721,51.3531256 30.4503025,51.3245378 L29.0678959,49.8801042 C29.2484395,49.5541036 29.3487948,49.1789521 29.3487948,48.783739 L29.3487948,48.2796918 L31.6507251,48.2796918 L31.6507251,48.783739 C31.6507251,49.1784505 31.7510804,49.5541036 31.9316239,49.8801042 L30.5492173,51.3245378 Z M36.2449822,50.1709971 L33.7125708,48.8489391 C33.6890425,48.8364006 33.6741573,48.8113236 33.6741573,48.783739 L33.6741573,47.1828251 C34.9854989,46.1662046 35.8368386,44.537706 35.8368386,42.7050809 L35.8368386,40.4456457 C35.8368386,37.9946224 33.9281667,36 31.5811005,36 L29.4184193,36 C27.0713531,36 25.1626813,37.9946224 25.1626813,40.4456457 L25.1626813,42.7050809 C25.1626813,44.537706 26.0140209,46.1662046 27.3253625,47.1828251 L27.3253625,48.783739 C27.3253625,48.8113236 27.3104773,48.8364006 27.286949,48.8489391 L24.7545376,50.1709971 C23.6717565,50.7367336 23,51.873222 23,53.1371014 L23,63.1398041 C23,64.0205074 23.247287,64.8731245 23.7144915,65.6058736 L24.7876693,67.2870338 C25.0325555,67.671213 25.1626813,68.1185862 25.1626813,68.580504 L25.1626813,70.9427548 C25.1626813,71.5265468 25.6154806,72 26.1743974,72 C26.732834,72 27.1861135,71.5265468 27.1861135,70.9427548 L27.1861135,68.5800025 C27.1861135,67.7003023 26.9388265,66.8471837 26.4711418,66.1144346 L25.3979641,64.4332744 C25.1525977,64.0485936 25.0234322,63.601722 25.0234322,63.1398041 L25.0234322,53.1371014 C25.0234322,52.6786943 25.2673581,52.2669304 25.6596562,52.0618008 L27.4161145,51.1444852 L29.019879,52.8191254 C29.4280227,53.2449324 29.9638913,53.4585882 30.4997599,53.4585882 C31.0356285,53.4585882 31.5714972,53.2449324 31.980121,52.8191254 L33.5834054,51.1444852 L35.3398636,52.0618008 C35.7321617,52.2669304 35.9760876,52.6786943 35.9760876,53.1371014 L35.9760876,63.1398041 C35.9760876,63.601722 35.8469221,64.0485936 35.6015557,64.4332744 L34.528378,66.1144346 C34.0606934,66.8471837 33.8134063,67.7003023 33.8134063,68.5800025 L33.8134063,70.9427548 C33.8134063,71.5265468 34.2666859,72 34.8256026,72 C35.3840392,72 35.8368386,71.5265468 35.8368386,70.9427548 L35.8368386,68.5800025 C35.8368386,68.1185862 35.9669644,67.671213 36.2118506,67.2865323 L37.2850283,65.6058736 C37.752713,64.8731245 38,64.0205074 38,63.1398041 L38,53.1371014 C38,51.873222 37.3277634,50.7367336 36.2449822,50.1709971 Z" id="Stroke-13" stroke="#FCFDFE"></path>
                <path d="M47.5,46.1657031 C45.6725352,46.1657031 44.1864597,44.6129369 44.1864597,42.7050809 L44.1864597,40.4456457 C44.1864597,39.1596985 45.18758,38.1139888 46.4182138,38.1139888 L48.581306,38.1139888 C49.8119398,38.1139888 50.8135403,39.1596985 50.8135403,40.4456457 L50.8135403,42.7050809 C50.8135403,44.6129369 49.3269846,46.1657031 47.5,46.1657031 L47.5,46.1657031 Z M47.5494558,51.3245378 C47.5220871,51.3531256 47.4774328,51.3531256 47.4505442,51.3245378 L46.0677017,49.8801042 C46.2487196,49.5541036 46.3490717,49.1789521 46.3490717,48.783739 L46.3490717,48.2796918 L48.6504481,48.2796918 L48.6504481,48.783739 C48.6504481,49.1784505 48.7512804,49.5541036 48.9318182,49.8801042 L47.5494558,51.3245378 Z M53.2450384,50.1709971 L50.7127081,48.8489391 C50.6891805,48.8364006 50.6742958,48.8113236 50.6742958,48.783739 L50.6742958,47.1828251 C51.9855954,46.1662046 52.8369078,44.537706 52.8369078,42.7050809 L52.8369078,40.4456457 C52.8369078,37.9946224 50.9282971,36 48.581306,36 L46.4182138,36 C44.0717029,36 42.162612,37.9946224 42.162612,40.4456457 L42.162612,42.7050809 C42.162612,44.537706 43.0139245,46.1662046 44.3257042,47.1828251 L44.3257042,48.783739 C44.3257042,48.8113236 44.3103393,48.8364006 44.2872919,48.8489391 L41.7544814,50.1709971 C40.6722151,50.7367336 40,51.873222 40,53.1371014 L40,63.1398041 C40,64.0205074 40.2472791,64.8731245 40.7144686,65.6058736 L41.7880922,67.2865323 C42.0329706,67.671213 42.162612,68.1185862 42.162612,68.5800025 L42.162612,70.9427548 C42.162612,71.5265468 42.6153969,72 43.1742958,72 C43.7327145,72 44.1859795,71.5265468 44.1859795,70.9427548 L44.1859795,68.5800025 C44.1859795,67.7003023 43.9387004,66.8471837 43.4710307,66.1144346 L42.3983675,64.4332744 C42.153009,64.0485936 42.0233675,63.601722 42.0233675,63.1398041 L42.0233675,53.1371014 C42.0233675,52.6786943 42.2672855,52.2669304 42.6595711,52.0618008 L44.4164533,51.1444852 L46.0196863,52.8191254 C46.4282971,53.2454339 46.9641485,53.4585882 47.5,53.4585882 C48.0358515,53.4585882 48.5717029,53.2454339 48.9798335,52.8191254 L50.5835467,51.1444852 L52.3399488,52.0618008 C52.7322343,52.2669304 52.9761524,52.6786943 52.9761524,53.1371014 L52.9761524,63.1398041 C52.9761524,63.601722 52.846991,64.0485936 52.6016325,64.4332744 L51.5284891,66.1144346 C51.0608195,66.8471837 50.8135403,67.7003023 50.8135403,68.5800025 L50.8135403,70.9427548 C50.8135403,71.5265468 51.2668054,72 51.8257042,72 C52.3841229,72 52.8369078,71.5265468 52.8369078,70.9427548 L52.8369078,68.5800025 C52.8369078,68.1185862 52.9670294,67.671213 53.2119078,67.2865323 L54.2850512,65.6058736 C54.7527209,64.8731245 55,64.0205074 55,63.1398041 L55,53.1371014 C55,51.873222 54.3273047,50.7367336 53.2450384,50.1709971 L53.2450384,50.1709971 Z" id="Fill-15" fill="#2F527D"></path>
                <path d="M47.5,46.1657031 C45.6725352,46.1657031 44.1864597,44.6129369 44.1864597,42.7050809 L44.1864597,40.4456457 C44.1864597,39.1596985 45.18758,38.1139888 46.4182138,38.1139888 L48.581306,38.1139888 C49.8119398,38.1139888 50.8135403,39.1596985 50.8135403,40.4456457 L50.8135403,42.7050809 C50.8135403,44.6129369 49.3269846,46.1657031 47.5,46.1657031 Z M47.5494558,51.3245378 C47.5220871,51.3531256 47.4774328,51.3531256 47.4505442,51.3245378 L46.0677017,49.8801042 C46.2487196,49.5541036 46.3490717,49.1789521 46.3490717,48.783739 L46.3490717,48.2796918 L48.6504481,48.2796918 L48.6504481,48.783739 C48.6504481,49.1784505 48.7512804,49.5541036 48.9318182,49.8801042 L47.5494558,51.3245378 Z M53.2450384,50.1709971 L50.7127081,48.8489391 C50.6891805,48.8364006 50.6742958,48.8113236 50.6742958,48.783739 L50.6742958,47.1828251 C51.9855954,46.1662046 52.8369078,44.537706 52.8369078,42.7050809 L52.8369078,40.4456457 C52.8369078,37.9946224 50.9282971,36 48.581306,36 L46.4182138,36 C44.0717029,36 42.162612,37.9946224 42.162612,40.4456457 L42.162612,42.7050809 C42.162612,44.537706 43.0139245,46.1662046 44.3257042,47.1828251 L44.3257042,48.783739 C44.3257042,48.8113236 44.3103393,48.8364006 44.2872919,48.8489391 L41.7544814,50.1709971 C40.6722151,50.7367336 40,51.873222 40,53.1371014 L40,63.1398041 C40,64.0205074 40.2472791,64.8731245 40.7144686,65.6058736 L41.7880922,67.2865323 C42.0329706,67.671213 42.162612,68.1185862 42.162612,68.5800025 L42.162612,70.9427548 C42.162612,71.5265468 42.6153969,72 43.1742958,72 C43.7327145,72 44.1859795,71.5265468 44.1859795,70.9427548 L44.1859795,68.5800025 C44.1859795,67.7003023 43.9387004,66.8471837 43.4710307,66.1144346 L42.3983675,64.4332744 C42.153009,64.0485936 42.0233675,63.601722 42.0233675,63.1398041 L42.0233675,53.1371014 C42.0233675,52.6786943 42.2672855,52.2669304 42.6595711,52.0618008 L44.4164533,51.1444852 L46.0196863,52.8191254 C46.4282971,53.2454339 46.9641485,53.4585882 47.5,53.4585882 C48.0358515,53.4585882 48.5717029,53.2454339 48.9798335,52.8191254 L50.5835467,51.1444852 L52.3399488,52.0618008 C52.7322343,52.2669304 52.9761524,52.6786943 52.9761524,53.1371014 L52.9761524,63.1398041 C52.9761524,63.601722 52.846991,64.0485936 52.6016325,64.4332744 L51.5284891,66.1144346 C51.0608195,66.8471837 50.8135403,67.7003023 50.8135403,68.5800025 L50.8135403,70.9427548 C50.8135403,71.5265468 51.2668054,72 51.8257042,72 C52.3841229,72 52.8369078,71.5265468 52.8369078,70.9427548 L52.8369078,68.5800025 C52.8369078,68.1185862 52.9670294,67.671213 53.2119078,67.2865323 L54.2850512,65.6058736 C54.7527209,64.8731245 55,64.0205074 55,63.1398041 L55,53.1371014 C55,51.873222 54.3273047,50.7367336 53.2450384,50.1709971 Z" id="Stroke-17" stroke="#FCFDFE"></path>
                <path d="M49.9632389,28.8343436 C49.8549339,24.0562779 49.0038245,19.4697682 47.4910158,15.3835692 L53.814744,15.3835692 C56.2444364,19.3284403 57.7127361,23.9203667 57.8942336,28.8343436 L49.9632389,28.8343436 Z M31.0420032,28.8343436 L31.0420032,15.3835692 L45.2635917,15.3835692 C46.8209093,19.3284403 47.7615311,23.9203667 47.8782434,28.8343436 L31.0420032,28.8343436 Z M31.0420032,2.12385832 C36.4889057,2.61185823 41.2899344,6.901924 44.3595661,13.3084616 L31.0420032,13.3084616 L31.0420032,2.12385832 Z M52.4048004,13.3084616 L46.6463354,13.3084616 C45.9519963,11.7494226 45.1552867,10.2775439 44.2606574,8.9154776 C42.9466552,6.91374236 41.4758828,5.22814834 39.888398,3.8783928 C44.9114767,5.77967195 49.2456563,9.08290441 52.4048004,13.3084616 L52.4048004,13.3084616 Z M28.9575022,13.3084616 L15.6404339,13.3084616 C18.7100656,6.901924 23.5110943,2.61185823 28.9575022,2.12385832 L28.9575022,13.3084616 Z M28.9575022,28.8343436 L12.1212621,28.8343436 C12.2384689,23.9203667 13.1790907,19.3284403 14.7364083,15.3835692 L28.9575022,15.3835692 L28.9575022,28.8343436 Z M10.0372556,28.8343436 L2.10576638,28.8343436 C2.2877584,23.9203667 3.75506907,19.3284403 6.18525601,15.3835692 L12.5094788,15.3835692 C10.9966701,19.4697682 10.1445716,24.0562779 10.0372556,28.8343436 L10.0372556,28.8343436 Z M20.1096238,3.87888523 C18.5231282,5.2291332 17.0528502,6.91472723 15.7393426,8.9154776 C14.8442188,10.2775439 14.0480037,11.7494226 13.3541591,13.3084616 L7.59519963,13.3084616 C10.7538492,9.08388927 15.0875342,5.78016438 20.1096238,3.87888523 L20.1096238,3.87888523 Z M51.2129504,8.74952809 C45.5469652,3.10724461 38.0130889,0 30,0 C21.9869111,0 14.4530348,3.10724461 8.78655501,8.74952809 C3.12007517,14.3913191 0,21.8925326 0,29.8718974 C0,33.8517311 0.773466091,37.7168283 2.29863836,41.3598387 C2.52019386,41.8887104 3.13095513,42.1388658 3.66160034,41.9177639 C4.1927401,41.6976469 4.44396822,41.089986 4.22241271,40.5606219 C2.93610498,37.4898172 2.22742409,34.2476463 2.10527183,30.9094512 L10.0372556,30.9094512 C10.0461574,31.3216166 10.0600046,31.7332896 10.0802809,32.1410231 C10.1089644,32.7137213 10.6000462,33.1539553 11.1727276,33.1258867 C11.7478817,33.0973256 12.1904982,32.6103106 12.1613201,32.0381048 C12.143022,31.6643491 12.1296693,31.2871464 12.1207675,30.9094512 L28.9575022,30.9094512 L28.9575022,32.0898102 C28.9575022,32.6625084 29.4243513,33.127364 30,33.127364 C30.5756487,33.127364 31.0420032,32.6625084 31.0420032,32.0898102 L31.0420032,30.9094512 L47.8787379,30.9094512 C47.8703307,31.2876388 47.8564835,31.665334 47.8381854,32.0390897 C47.8095018,32.6117879 48.2521183,33.0988029 48.8267779,33.127364 C48.8445815,33.1283488 48.8618905,33.1283488 48.879694,33.1283488 C49.4316046,33.1283488 49.8915301,32.697471 49.9197191,32.1425004 C49.9399954,31.7342744 49.9533481,31.322109 49.9632389,30.9094512 L57.8947282,30.9094512 C57.7730705,34.2481387 57.0629059,37.4908021 55.7765982,40.5625916 C55.5555372,41.0919558 55.8057763,41.6991242 56.3379051,41.9197336 C56.4684646,41.9743935 56.6044641,42 56.7379908,42 C57.1459893,42 57.5337114,41.7596933 57.7008671,41.361316 C59.2260394,37.7183056 60,33.8522236 60,29.8718974 C60,21.8925326 56.8794303,14.3913191 51.2129504,8.74952809 L51.2129504,8.74952809 Z" id="Fill-19" fill="#2F527D"></path>
                <path d="M49.9632389,28.8343436 C49.8549339,24.0562779 49.0038245,19.4697682 47.4910158,15.3835692 L53.814744,15.3835692 C56.2444364,19.3284403 57.7127361,23.9203667 57.8942336,28.8343436 L49.9632389,28.8343436 Z M31.0420032,28.8343436 L31.0420032,15.3835692 L45.2635917,15.3835692 C46.8209093,19.3284403 47.7615311,23.9203667 47.8782434,28.8343436 L31.0420032,28.8343436 Z M31.0420032,2.12385832 C36.4889057,2.61185823 41.2899344,6.901924 44.3595661,13.3084616 L31.0420032,13.3084616 L31.0420032,2.12385832 Z M52.4048004,13.3084616 L46.6463354,13.3084616 C45.9519963,11.7494226 45.1552867,10.2775439 44.2606574,8.9154776 C42.9466552,6.91374236 41.4758828,5.22814834 39.888398,3.8783928 C44.9114767,5.77967195 49.2456563,9.08290441 52.4048004,13.3084616 Z M28.9575022,13.3084616 L15.6404339,13.3084616 C18.7100656,6.901924 23.5110943,2.61185823 28.9575022,2.12385832 L28.9575022,13.3084616 Z M28.9575022,28.8343436 L12.1212621,28.8343436 C12.2384689,23.9203667 13.1790907,19.3284403 14.7364083,15.3835692 L28.9575022,15.3835692 L28.9575022,28.8343436 Z M10.0372556,28.8343436 L2.10576638,28.8343436 C2.2877584,23.9203667 3.75506907,19.3284403 6.18525601,15.3835692 L12.5094788,15.3835692 C10.9966701,19.4697682 10.1445716,24.0562779 10.0372556,28.8343436 Z M20.1096238,3.87888523 C18.5231282,5.2291332 17.0528502,6.91472723 15.7393426,8.9154776 C14.8442188,10.2775439 14.0480037,11.7494226 13.3541591,13.3084616 L7.59519963,13.3084616 C10.7538492,9.08388927 15.0875342,5.78016438 20.1096238,3.87888523 Z M51.2129504,8.74952809 C45.5469652,3.10724461 38.0130889,0 30,0 C21.9869111,0 14.4530348,3.10724461 8.78655501,8.74952809 C3.12007517,14.3913191 0,21.8925326 0,29.8718974 C0,33.8517311 0.773466091,37.7168283 2.29863836,41.3598387 C2.52019386,41.8887104 3.13095513,42.1388658 3.66160034,41.9177639 C4.1927401,41.6976469 4.44396822,41.089986 4.22241271,40.5606219 C2.93610498,37.4898172 2.22742409,34.2476463 2.10527183,30.9094512 L10.0372556,30.9094512 C10.0461574,31.3216166 10.0600046,31.7332896 10.0802809,32.1410231 C10.1089644,32.7137213 10.6000462,33.1539553 11.1727276,33.1258867 C11.7478817,33.0973256 12.1904982,32.6103106 12.1613201,32.0381048 C12.143022,31.6643491 12.1296693,31.2871464 12.1207675,30.9094512 L28.9575022,30.9094512 L28.9575022,32.0898102 C28.9575022,32.6625084 29.4243513,33.127364 30,33.127364 C30.5756487,33.127364 31.0420032,32.6625084 31.0420032,32.0898102 L31.0420032,30.9094512 L47.8787379,30.9094512 C47.8703307,31.2876388 47.8564835,31.665334 47.8381854,32.0390897 C47.8095018,32.6117879 48.2521183,33.0988029 48.8267779,33.127364 C48.8445815,33.1283488 48.8618905,33.1283488 48.879694,33.1283488 C49.4316046,33.1283488 49.8915301,32.697471 49.9197191,32.1425004 C49.9399954,31.7342744 49.9533481,31.322109 49.9632389,30.9094512 L57.8947282,30.9094512 C57.7730705,34.2481387 57.0629059,37.4908021 55.7765982,40.5625916 C55.5555372,41.0919558 55.8057763,41.6991242 56.3379051,41.9197336 C56.4684646,41.9743935 56.6044641,42 56.7379908,42 C57.1459893,42 57.5337114,41.7596933 57.7008671,41.361316 C59.2260394,37.7183056 60,33.8522236 60,29.8718974 C60,21.8925326 56.8794303,14.3913191 51.2129504,8.74952809 Z" id="Stroke-21" stroke="#FCFDFE"></path>
            </g>
        </g>
    </g>
</svg>