<?xml version="1.0" encoding="UTF-8"?>
<svg width="80px" height="80px" viewBox="0 0 80 80" version="1.1" xmlns="http://www.w3.org/2000/svg" xmlns:xlink="http://www.w3.org/1999/xlink" style="background: #FFFFFF;">
    <!-- Generator: Sketch 47.1 (45422) - http://www.bohemiancoding.com/sketch -->
    <title>Inefficient</title>
    <desc>Created with Sketch.</desc>
    <defs></defs>
    <g id="Page-1" stroke="none" stroke-width="1" fill="none" fill-rule="evenodd">
        <g id="Inefficient">
            <g id="Page-1" transform="translate(4.000000, 7.000000)">
                <path d="M71.3957132,7.42093803 C69.1851112,3.45952789 64.9921911,1 60.4539899,1 C58.3185564,1 56.2031885,1.55570728 54.3415721,2.60651333 L30.7942315,15.8807095 L33.5030755,20.7292362 L57.0514966,7.45504001 C58.0928966,6.86910597 59.2696617,6.55924297 60.458003,6.55924297 C62.9935119,6.55924297 65.334694,7.93138268 66.569186,10.1415011 C67.481395,11.7745209 67.7045852,13.668266 67.1978539,15.4750509 C66.6932834,17.2818359 65.5191423,18.7838732 63.8930642,19.6998214 L42.5478363,31.7291402 C42.1412781,29.1170835 40.9279321,26.7080885 39.0297347,24.8003927 C35.6821901,21.4424326 30.3762515,20.2542886 25.9200101,21.8608019 L23.9927949,22.5575674 L25.8647528,27.7866412 L27.7993768,27.0935959 C30.2885806,26.1838481 33.2508675,26.8617024 35.1166513,28.7315761 C36.1929345,29.8138489 36.8743901,31.1847486 37.0900172,32.6703549 C36.9997224,32.6489637 36.9092733,32.6261773 36.8229916,32.6010659 C35.0198738,32.0920163 33.5268454,30.9114677 32.613556,29.2720925 L31.6073478,27.4866988 L26.775727,30.2133072 L27.7884179,31.9987009 C29.4243745,34.9306962 32.0992615,37.0474992 35.3261044,37.957247 C35.4376995,37.9862337 35.5508381,38.0177006 35.663668,38.0442071 C35.4932656,38.2609097 35.3111325,38.4675367 35.1178861,38.661608 L17.4727385,56.3834775 C16.1527366,57.7077194 14.3962326,58.4359518 12.5279792,58.4359518 C10.6586453,58.4359518 8.90198692,57.7077194 7.58476327,56.3834775 C6.26723093,55.0592356 5.54209422,53.2977132 5.54209422,51.4190041 C5.54209422,49.541535 6.26723093,47.7789276 7.58476327,46.4559258 L22.9103378,31.0663217 L18.9944761,27.1338983 L3.67029072,42.5235023 C1.30364083,44.9021155 0,48.061044 0,51.4188491 C0,54.7792893 1.30364083,57.9368228 3.66982767,60.315746 C6.037558,62.6934291 9.18151492,64 12.5276705,64 C15.873826,64 19.0179373,62.6934291 21.3855133,60.315746 L39.0348283,42.5951165 C40.3268929,41.2922658 41.3205987,39.7172193 41.9430926,37.9897989 C42.965662,37.716363 43.9377588,37.3232602 44.8411699,36.8117305 L66.6029886,24.548193 C69.5163465,22.9038575 71.6216817,20.2163114 72.5261732,16.9794133 C73.4318995,13.7411202 73.0305893,10.3453379 71.3957132,7.42093803" id="Fill-1" fill="#30537C"></path>
                <path d="M71.3957132,7.42093803 C69.1851112,3.45952789 64.9921911,1 60.4539899,1 C58.3185564,1 56.2031885,1.55570728 54.3415721,2.60651333 L30.7942315,15.8807095 L33.5030755,20.7292362 L57.0514966,7.45504001 C58.0928966,6.86910597 59.2696617,6.55924297 60.458003,6.55924297 C62.9935119,6.55924297 65.334694,7.93138268 66.569186,10.1415011 C67.481395,11.7745209 67.7045852,13.668266 67.1978539,15.4750509 C66.6932834,17.2818359 65.5191423,18.7838732 63.8930642,19.6998214 L42.5478363,31.7291402 C42.1412781,29.1170835 40.9279321,26.7080885 39.0297347,24.8003927 C35.6821901,21.4424326 30.3762515,20.2542886 25.9200101,21.8608019 L23.9927949,22.5575674 L25.8647528,27.7866412 L27.7993768,27.0935959 C30.2885806,26.1838481 33.2508675,26.8617024 35.1166513,28.7315761 C36.1929345,29.8138489 36.8743901,31.1847486 37.0900172,32.6703549 C36.9997224,32.6489637 36.9092733,32.6261773 36.8229916,32.6010659 C35.0198738,32.0920163 33.5268454,30.9114677 32.613556,29.2720925 L31.6073478,27.4866988 L26.775727,30.2133072 L27.7884179,31.9987009 C29.4243745,34.9306962 32.0992615,37.0474992 35.3261044,37.957247 C35.4376995,37.9862337 35.5508381,38.0177006 35.663668,38.0442071 C35.4932656,38.2609097 35.3111325,38.4675367 35.1178861,38.661608 L17.4727385,56.3834775 C16.1527366,57.7077194 14.3962326,58.4359518 12.5279792,58.4359518 C10.6586453,58.4359518 8.90198692,57.7077194 7.58476327,56.3834775 C6.26723093,55.0592356 5.54209422,53.2977132 5.54209422,51.4190041 C5.54209422,49.541535 6.26723093,47.7789276 7.58476327,46.4559258 L22.9103378,31.0663217 L18.9944761,27.1338983 L3.67029072,42.5235023 C1.30364083,44.9021155 0,48.061044 0,51.4188491 C0,54.7792893 1.30364083,57.9368228 3.66982767,60.315746 C6.037558,62.6934291 9.18151492,64 12.5276705,64 C15.873826,64 19.0179373,62.6934291 21.3855133,60.315746 L39.0348283,42.5951165 C40.3268929,41.2922658 41.3205987,39.7172193 41.9430926,37.9897989 C42.965662,37.716363 43.9377588,37.3232602 44.8411699,36.8117305 L66.6029886,24.548193 C69.5163465,22.9038575 71.6216817,20.2163114 72.5261732,16.9794133 C73.4318995,13.7411202 73.0305893,10.3453379 71.3957132,7.42093803 Z" id="Stroke-3" stroke="#FFFFFF" stroke-width="2"></path>
                <path d="M26.9886959,16.9801032 C27.6559291,16.8550202 28.1016403,16.1962395 27.9799884,15.5088163 L25.4457468,1.04397988 C25.3240949,0.355490114 24.6808661,-0.102792077 24.0136329,0.0198532568 C23.3452143,0.144936262 22.8983177,0.803716912 23.0199695,1.49357787 L25.5553965,15.9558242 C25.675863,16.6458375 26.3179064,17.1027485 26.9886959,16.9801032" id="Fill-5" fill="#B1DBFE"></path>
                <path d="M6.49091109,24.9803505 L20.9575226,22.4453648 C21.6461549,22.3237909 22.1045319,21.6834919 21.979423,21.0153538 C21.8543141,20.3448464 21.1953971,19.8983845 20.5090506,20.0199584 L6.04122003,22.5561288 C5.35502593,22.6741487 4.89542978,23.3180017 5.02053868,23.9861397 C5.1432094,24.6554625 5.80471698,25.1007398 6.49091109,24.9803505" id="Fill-7" fill="#B1DBFE"></path>
            </g>
        </g>
    </g>
</svg>