<?xml version="1.0" encoding="UTF-8"?>
<svg width="80px" height="80px" viewBox="0 0 80 80" version="1.1" xmlns="http://www.w3.org/2000/svg" xmlns:xlink="http://www.w3.org/1999/xlink" style="background: #FFFFFF;">
    <!-- Generator: Sketch 47.1 (45422) - http://www.bohemiancoding.com/sketch -->
    <title>Smart Contracting</title>
    <desc>Created with Sketch.</desc>
    <defs></defs>
    <g id="Page-1" stroke="none" stroke-width="1" fill="none" fill-rule="evenodd">
        <g id="Smart-Contracting">
            <g id="Page-1" transform="translate(12.000000, 8.000000)">
                <path d="M53.1998766,45.829913 L53.1998766,49.6386235 C53.1998766,51.7386635 51.4954286,53.4469631 49.3997532,53.4469631 C47.3044481,53.4469631 45.6,51.7386635 45.6,49.6386235 L45.6,45.829913 L53.1998766,45.829913 Z M42.8225455,53.4469631 L38.0001234,53.4469631 L38.0001234,40.1170327 C38.0001234,34.8667473 33.7380779,30.5954418 28.5,30.5954418 C25.3986818,30.5954418 22.6401039,32.0930326 20.9049351,34.4041523 L9.50012338,34.4041523 C8.45080519,34.4041523 7.59987662,35.2566328 7.59987662,36.3083221 C7.59987662,37.3600115 8.45080519,38.1998791 9.50012338,38.1998791 L19.1908636,38.1998791 C19.0657597,38.8153121 19.0002468,39.4522611 19.0002468,40.1040488 L19.0002468,53.4469631 L9.50012338,53.4469631 C6.35698052,53.4469631 3.79975325,50.8843282 3.79975325,47.7340828 L3.79975325,9.52159085 C3.79975325,6.37134542 6.35698052,3.79572671 9.50012338,3.79572671 L42.8225455,3.79572671 C42.1737078,4.9171577 41.7998766,6.23000727 41.7998766,7.6170501 L41.7998766,49.6386235 C41.7998766,51.0252954 42.1733377,52.3255321 42.8225455,53.4469631 L42.8225455,53.4469631 Z M28.5,45.829913 C25.3568571,45.829913 22.8,43.2669071 22.8,40.1170327 C22.8,36.9667872 25.3568571,34.4041523 28.5,34.4041523 C31.6431429,34.4041523 34.2,36.9667872 34.2,40.1170327 C34.2,43.2669071 31.6431429,45.829913 28.5,45.829913 L28.5,45.829913 Z M34.2,58.4438785 L29.8546753,54.0160253 C29.4975,53.6521074 29.0092987,53.4469631 28.5,53.4469631 C27.9907013,53.4469631 27.5025,53.6521074 27.1453247,54.0160253 L22.8,58.4438785 L22.8,47.7288892 C24.3885974,48.9271102 26.3628701,49.6386235 28.5,49.6386235 C30.6367597,49.6386235 32.6110325,48.9271102 34.2,47.7288892 L34.2,58.4438785 Z M45.6,7.6170501 C45.6,5.51701013 47.3044481,3.80833957 49.3997532,3.80833957 C51.4954286,3.80833957 53.1998766,5.51701013 53.1998766,7.6170501 L53.1998766,11.4257606 L45.6,11.4257606 L45.6,7.6170501 Z M55.1001234,15.2341002 C56.1494416,15.2341002 57,14.3816197 57,13.3299304 L57,7.6170501 C57,3.41697017 53.5907338,0 49.3997532,0 L9.50012338,0 C4.26167532,0 0,4.27130545 0,9.52159085 L0,47.7340828 C0,52.9843681 4.26167532,57.2556736 9.50012338,57.2556736 L19.0002468,57.2556736 L19.0002468,63.0954244 C19.0002468,63.868518 19.4662403,64.5648217 20.1802208,64.857885 C20.8942013,65.1509484 21.7136688,64.9821587 22.2547987,64.4309029 L28.5,58.0669768 L34.7455714,64.4309029 C35.2867013,64.9821587 36.1061688,65.1505774 36.8197792,64.857885 C37.5337597,64.5648217 38.0001234,63.868518 38.0001234,63.0954244 L38.0001234,57.2556736 L49.3997532,57.2556736 C53.5907338,57.2556736 57,53.8383325 57,49.6386235 L57,43.9257432 C57,42.8740539 56.1494416,42.0212024 55.1001234,42.0212024 L45.6,42.0212024 L45.6,15.2341002 L55.1001234,15.2341002 Z" id="Fill-1" fill="#2F527D"></path>
                <path d="M53.1998766,45.829913 L53.1998766,49.6386235 C53.1998766,51.7386635 51.4954286,53.4469631 49.3997532,53.4469631 C47.3044481,53.4469631 45.6,51.7386635 45.6,49.6386235 L45.6,45.829913 L53.1998766,45.829913 Z M42.8225455,53.4469631 L38.0001234,53.4469631 L38.0001234,40.1170327 C38.0001234,34.8667473 33.7380779,30.5954418 28.5,30.5954418 C25.3986818,30.5954418 22.6401039,32.0930326 20.9049351,34.4041523 L9.50012338,34.4041523 C8.45080519,34.4041523 7.59987662,35.2566328 7.59987662,36.3083221 C7.59987662,37.3600115 8.45080519,38.1998791 9.50012338,38.1998791 L19.1908636,38.1998791 C19.0657597,38.8153121 19.0002468,39.4522611 19.0002468,40.1040488 L19.0002468,53.4469631 L9.50012338,53.4469631 C6.35698052,53.4469631 3.79975325,50.8843282 3.79975325,47.7340828 L3.79975325,9.52159085 C3.79975325,6.37134542 6.35698052,3.79572671 9.50012338,3.79572671 L42.8225455,3.79572671 C42.1737078,4.9171577 41.7998766,6.23000727 41.7998766,7.6170501 L41.7998766,49.6386235 C41.7998766,51.0252954 42.1733377,52.3255321 42.8225455,53.4469631 Z M28.5,45.829913 C25.3568571,45.829913 22.8,43.2669071 22.8,40.1170327 C22.8,36.9667872 25.3568571,34.4041523 28.5,34.4041523 C31.6431429,34.4041523 34.2,36.9667872 34.2,40.1170327 C34.2,43.2669071 31.6431429,45.829913 28.5,45.829913 Z M34.2,58.4438785 L29.8546753,54.0160253 C29.4975,53.6521074 29.0092987,53.4469631 28.5,53.4469631 C27.9907013,53.4469631 27.5025,53.6521074 27.1453247,54.0160253 L22.8,58.4438785 L22.8,47.7288892 C24.3885974,48.9271102 26.3628701,49.6386235 28.5,49.6386235 C30.6367597,49.6386235 32.6110325,48.9271102 34.2,47.7288892 L34.2,58.4438785 Z M45.6,7.6170501 C45.6,5.51701013 47.3044481,3.80833957 49.3997532,3.80833957 C51.4954286,3.80833957 53.1998766,5.51701013 53.1998766,7.6170501 L53.1998766,11.4257606 L45.6,11.4257606 L45.6,7.6170501 Z M55.1001234,15.2341002 C56.1494416,15.2341002 57,14.3816197 57,13.3299304 L57,7.6170501 C57,3.41697017 53.5907338,0 49.3997532,0 L9.50012338,0 C4.26167532,0 0,4.27130545 0,9.52159085 L0,47.7340828 C0,52.9843681 4.26167532,57.2556736 9.50012338,57.2556736 L19.0002468,57.2556736 L19.0002468,63.0954244 C19.0002468,63.868518 19.4662403,64.5648217 20.1802208,64.857885 C20.8942013,65.1509484 21.7136688,64.9821587 22.2547987,64.4309029 L28.5,58.0669768 L34.7455714,64.4309029 C35.2867013,64.9821587 36.1061688,65.1505774 36.8197792,64.857885 C37.5337597,64.5648217 38.0001234,63.868518 38.0001234,63.0954244 L38.0001234,57.2556736 L49.3997532,57.2556736 C53.5907338,57.2556736 57,53.8383325 57,49.6386235 L57,43.9257432 C57,42.8740539 56.1494416,42.0212024 55.1001234,42.0212024 L45.6,42.0212024 L45.6,15.2341002 L55.1001234,15.2341002 Z" id="Stroke-3" stroke="#FCFDFE" stroke-width="2.5"></path>
                <path d="M35,39.5 C35,43.0901057 32.0898235,46 28.5001818,46 C24.9101765,46 22,43.0901057 22,39.5 C22,35.9098943 24.9101765,33 28.5001818,33 C32.0898235,33 35,35.9098943 35,39.5" id="Fill-5" fill="#CDE5F7"></path>
                <path d="M32.1426246,12 L9.85701365,12 C8.83136906,12 8,12.8952956 8,13.9998052 C8,15.1043148 8.83136906,16 9.85701365,16 L32.1426246,16 C33.1682692,16 34,15.1043148 34,13.9998052 C34,12.8952956 33.1682692,12 32.1426246,12" id="Fill-7" fill="#2E527E"></path>
                <path d="M32.1426246,12 L9.85701365,12 C8.83136906,12 8,12.8952956 8,13.9998052 C8,15.1043148 8.83136906,16 9.85701365,16 L32.1426246,16 C33.1682692,16 34,15.1043148 34,13.9998052 C34,12.8952956 33.1682692,12 32.1426246,12 Z" id="Stroke-9" stroke="#FCFDFE" stroke-width="2.5"></path>
                <path d="M32.1426246,23 L9.85701365,23 C8.83136906,23 8,23.8952956 8,24.9998052 C8,26.1043148 8.83136906,27 9.85701365,27 L32.1426246,27 C33.1682692,27 34,26.1043148 34,24.9998052 C34,23.8952956 33.1682692,23 32.1426246,23" id="Fill-11" fill="#2E527E"></path>
                <path d="M32.1426246,23 L9.85701365,23 C8.83136906,23 8,23.8952956 8,24.9998052 C8,26.1043148 8.83136906,27 9.85701365,27 L32.1426246,27 C33.1682692,27 34,26.1043148 34,24.9998052 C34,23.8952956 33.1682692,23 32.1426246,23 Z" id="Stroke-13" stroke="#FCFDFE" stroke-width="2.5"></path>
            </g>
        </g>
    </g>
</svg>