<?xml version="1.0" encoding="UTF-8"?>
<svg width="80px" height="80px" viewBox="0 0 80 80" version="1.1" xmlns="http://www.w3.org/2000/svg" xmlns:xlink="http://www.w3.org/1999/xlink" style="background: #FFFFFF;">
    <!-- Generator: Sketch 47.1 (45422) - http://www.bohemiancoding.com/sketch -->
    <title>3</title>
    <desc>Created with Sketch.</desc>
    <defs>
        <polygon id="path-1" points="66.2291 1 0.5001 1 0.5001 0.4971 66.2291 0.4971"></polygon>
    </defs>
    <g id="Page-1" stroke="none" stroke-width="1" fill="none" fill-rule="evenodd">
        <g id="3">
            <g id="Page-1" transform="translate(8.000000, 6.000000)">
                <path d="M12.6788,66.2703 C12.6788,66.2703 13.6208,54.4503 10.8898,51.4493 L20.1398,48.1173 L19.9158,47.1973 L25.1968,44.4763 L30.4228,66.0653 L35.9158,66.3223 L40.8188,44.2823 L46.4498,46.7823 L46.2298,48.1173 L56.0528,51.4493 C56.0528,51.4493 54.2638,54.1873 54.2638,58.8593 L54.2638,66.2703 L12.6788,66.2703 Z" id="Fill-1" fill="#B1DBFE"></path>
                <path d="M29.8663,50.3729 L31.8663,53.9469 L29.8663,63.0349 L30.4233,66.0649 C30.4233,66.0649 36.3593,66.3249 36.3593,66.3219 C36.3593,66.3189 37.1663,62.2209 37.1663,62.2209 L34.9153,53.9429 L36.7623,50.3369 L33.7633,47.1969 L29.8663,50.3729 Z" id="Fill-3" fill="#C9C9C9"></path>
                <path d="M21.1007,23.1175 L21.5907,32.5595 L21.5947,32.6825 C21.7637,38.6415 29.9717,43.3865 32.9887,43.3865 L33.3887,43.3865 C37.0767,43.3865 44.6147,38.6415 44.7837,32.6825 L44.7867,32.5595 L45.1627,21.3765" id="Stroke-5" stroke="#2F527F" stroke-linecap="round" stroke-linejoin="round"></path>
                <path d="M29.6983,26.5814 C29.6983,27.1164 29.2633,27.5504 28.7283,27.5504 C28.1943,27.5504 27.7603,27.1164 27.7603,26.5814 C27.7603,26.0464 28.1943,25.6124 28.7283,25.6124 C29.2633,25.6124 29.6983,26.0464 29.6983,26.5814" id="Fill-7" fill="#2F527F"></path>
                <path d="M31.5372,31.2279 L31.3982,32.2479 C31.3002,32.7669 31.6982,33.2459 32.2252,33.2459 L34.3562,33.2459 C34.8842,33.2459 35.2812,32.7669 35.1832,32.2479 L35.0452,31.2279" id="Stroke-9" stroke="#2F527F" stroke-linecap="round" stroke-linejoin="round"></path>
                <path d="M26.171,23.8709 L30.426,23.8709" id="Stroke-11" stroke="#2F527F" stroke-linecap="round" stroke-linejoin="round"></path>
                <path d="M37.1114,26.5814 C37.1114,27.1164 37.5454,27.5504 38.0804,27.5504 C38.6154,27.5504 39.0484,27.1164 39.0484,26.5814 C39.0484,26.0464 38.6154,25.6124 38.0804,25.6124 C37.5454,25.6124 37.1114,26.0464 37.1114,26.5814" id="Fill-13" fill="#2F527F"></path>
                <path d="M40.0841,23.8709 L35.8291,23.8709" id="Stroke-15" stroke="#2F527F" stroke-linecap="round" stroke-linejoin="round"></path>
                <path d="M39.2139,43.575 L39.2139,41.235" id="Stroke-17" stroke="#2F527F" stroke-linecap="round" stroke-linejoin="round"></path>
                <path d="M27.419,41.2518 L27.419,43.7148" id="Stroke-19" stroke="#2F527F" stroke-linecap="round" stroke-linejoin="round"></path>
                <path d="M20.1397,48.117 L7.5027,52.471 C5.9627,53.192 4.8947,54.368 4.5107,56.664 L2.8437,66.27" id="Stroke-21" stroke="#2F527F" stroke-linecap="round" stroke-linejoin="round"></path>
                <path d="M46.2296,47.9373 L59.4266,52.4713 C60.9666,53.1923 62.0366,54.3683 62.4186,56.6643 L64.0866,66.2703" id="Stroke-23" stroke="#2F527F" stroke-linecap="round" stroke-linejoin="round"></path>
                <g id="Group-27" transform="translate(0.000000, 65.822100)">
                    <mask id="mask-2" fill="white">
                        <use xlink:href="#path-1"></use>
                    </mask>
                    <g id="Clip-26"></g>
                    <path d="M0.5001,0.4971 L66.2291,0.4971" id="Stroke-25" stroke="#2F527F" stroke-linecap="round" stroke-linejoin="round" mask="url(#mask-2)"></path>
                </g>
                <path d="M45.1339,21.5438 C45.1339,18.3748 42.6419,18.5518 42.4779,17.5488 C41.9349,14.2268 37.7619,15.6138 35.5579,15.6138 C33.3169,15.6138 31.1559,14.4978 30.0159,13.7938 C29.1009,13.2288 28.0679,12.8798 26.9919,12.8458 C25.4019,12.7958 23.2899,13.2358 21.8909,15.4888 C20.8639,17.1418 21.1629,18.4668 21.1629,21.6028 L21.2529,26.7928" id="Stroke-28" stroke="#2F527F" stroke-linecap="round" stroke-linejoin="round"></path>
                <path d="M19.5616,23.4095 C19.5616,23.4095 17.2356,21.2495 18.8086,17.0705 C17.7296,17.2265 14.9486,6.3205 22.8146,6.6175 C22.8146,6.6175 22.1096,1.5025 27.8356,0.9995 C27.8356,0.9995 40.6436,-2.5535 45.8486,9.2945 C45.9336,9.4885 46.0406,9.6775 46.1646,9.8505 C47.1226,11.1905 51.3616,17.7935 46.4856,23.5815 L46.0176,26.7385 L45.1566,26.7385" id="Stroke-30" stroke="#2F527F" stroke-linecap="round" stroke-linejoin="round"></path>
                <path d="M45.1055,29.1346 C46.5895,29.1346 47.7935,27.8856 47.7935,26.3466 C47.7935,25.2966 47.2335,24.3826 46.4085,23.9066" id="Stroke-32" stroke="#2F527F" stroke-linecap="round" stroke-linejoin="round"></path>
                <polyline id="Stroke-34" stroke="#2F527F" stroke-linecap="round" stroke-linejoin="round" points="19.5616 23.4095 20.0526 26.3955 21.1226 26.3955"></polyline>
                <path d="M21.1329,29.3919 C19.7889,29.3919 18.6989,28.1769 18.6989,26.6779 C18.6989,25.7519 19.1149,24.9339 19.7499,24.4449" id="Stroke-36" stroke="#2F527F" stroke-linecap="round" stroke-linejoin="round"></path>
                <polyline id="Stroke-38" stroke="#2F527F" stroke-linecap="round" stroke-linejoin="round" points="25.8663 45.1463 27.3173 43.8843 33.4733 47.3693 28.0263 51.9053"></polyline>
                <polyline id="Stroke-40" stroke="#2F527F" stroke-linecap="round" stroke-linejoin="round" points="40.5538 44.7821 39.2728 43.9281 33.4738 47.3691 38.7218 52.1051"></polyline>
                <polyline id="Stroke-42" stroke="#2F527F" stroke-linecap="round" stroke-linejoin="round" points="29.8663 50.3729 31.8663 53.9469 34.5673 53.9469"></polyline>
                <polyline id="Stroke-44" stroke="#2F527F" stroke-linecap="round" stroke-linejoin="round" points="36.6505 50.37 34.9155 53.943 32.2275 53.947"></polyline>
                <path d="M31.8663,53.9471 L29.8033,62.2051" id="Stroke-46" stroke="#2F527F" stroke-linecap="round" stroke-linejoin="round"></path>
                <path d="M34.921,53.9696 L36.775,62.2046" id="Stroke-48" stroke="#2F527F" stroke-linecap="round" stroke-linejoin="round"></path>
                <path d="M20.9493,26.3953 L19.9163,26.5203 L19.5613,23.4093 C19.5613,23.4093 17.2083,20.6523 18.8083,17.0703 C18.8083,17.0703 16.1363,12.9473 18.2513,9.0723 C18.2513,9.0723 19.6913,6.5763 22.3203,6.6153 C22.3203,6.6153 23.2633,1.4963 27.8363,0.9993 C27.8363,0.9993 39.8253,-2.4587 45.7413,9.0563 C45.7413,9.0563 51.9483,17.0303 46.4493,23.6973 L46.0173,26.7383 L45.1563,26.7383 L45.0693,20.7393 C45.0693,20.7393 44.5743,18.5303 42.4493,18.1133 C42.4493,18.1133 42.0643,14.9053 39.0493,15.1133 L36.4153,15.5653 L33.5743,15.0723 L29.0533,13.3003 L26.4493,12.8503 L23.0263,14.1433 L21.4353,16.4273 L21.1373,19.8173 L20.9493,26.3953 Z" id="Fill-50" fill="#2F527F"></path>
                <path d="M36.9376,37.9862 C36.9376,38.7062 36.3476,39.2962 35.6376,39.2962 L31.2576,39.2962 C30.5476,39.2962 29.9586,38.7062 29.9586,37.9862 L29.9586,37.5862 C29.9586,36.8762 30.5476,36.2862 31.2576,36.2862 L35.6376,36.2862 C36.3476,36.2862 36.9376,36.8762 36.9376,37.5862 L36.9376,37.9862 Z M37.4256,36.3822 C37.2506,36.0202 37.0416,35.6792 36.7446,35.4172 C35.9776,34.7402 34.8186,34.7472 33.8306,35.0072 C33.6816,35.0462 33.5326,35.0902 33.3796,35.0812 C33.2686,35.0752 33.1626,35.0412 33.0546,35.0102 C32.0496,34.7302 30.8916,34.8592 30.0876,35.5262 C29.4546,36.0502 29.1036,36.8402 28.8426,37.6202 C28.6586,38.1712 28.5076,38.7332 28.2856,39.2712 C28.1806,39.5262 28.0316,39.7642 27.9416,40.0232 C27.8336,40.3382 27.6996,40.6452 27.5796,40.9552 C28.4046,41.5162 29.2306,42.0782 30.0556,42.6382 C30.2596,42.7772 30.4656,42.9182 30.6966,43.0042 C30.8736,43.0702 31.0596,43.1032 31.2456,43.1362 C31.9516,43.2612 32.6586,43.3872 33.3656,43.5132 C33.5536,43.5472 33.7446,43.5812 33.9346,43.5742 C34.1416,43.5672 34.3446,43.5132 34.5446,43.4612 L35.8456,43.1152 C36.1476,43.0352 36.4526,42.9542 36.7296,42.8112 C36.9266,42.7112 37.1076,42.5812 37.2876,42.4522 C37.9816,41.9532 38.6746,41.4542 39.3686,40.9562 C38.8026,39.6152 38.2366,38.2742 37.6706,36.9332 C37.5926,36.7492 37.5136,36.5632 37.4256,36.3822 L37.4256,36.3822 Z" id="Fill-52" fill="#2F527F"></path>
                <path d="M30.1221,37.1971 C32.3811,37.6731 34.4841,37.6661 36.4601,37.1971" id="Stroke-54" stroke="#2F527F" stroke-linecap="round" stroke-linejoin="round"></path>
                <polyline id="Stroke-56" stroke="#2F527F" stroke-linecap="round" stroke-linejoin="round" points="30.4766 66.3221 25.5746 44.2821 19.9156 47.1971 27.1786 66.2701"></polyline>
                <polyline id="Stroke-58" stroke="#2F527F" stroke-linecap="round" stroke-linejoin="round" points="35.9161 66.3221 40.8181 44.2821 46.4771 47.1971 39.2141 66.2701"></polyline>
                <path d="M54.2637,66.2703 L54.2637,56.8913 C54.2637,54.7853 54.9437,52.8713 56.0527,51.4493" id="Stroke-60" stroke="#2F527F" stroke-linecap="round" stroke-linejoin="round"></path>
                <path d="M12.6788,66.2703 L12.6788,56.8913 C12.6788,54.7853 11.9988,52.8713 10.8898,51.4493" id="Stroke-62" stroke="#2F527F" stroke-linecap="round" stroke-linejoin="round"></path>
            </g>
        </g>
    </g>
</svg>