<?xml version="1.0" encoding="UTF-8"?>
<svg width="80px" height="80px" viewBox="0 0 80 80" version="1.1" xmlns="http://www.w3.org/2000/svg" xmlns:xlink="http://www.w3.org/1999/xlink" style="background: #FFFFFF;">
    <!-- Generator: Sketch 47.1 (45422) - http://www.bohemiancoding.com/sketch -->
    <title>Trade Recognition</title>
    <desc>Created with Sketch.</desc>
    <defs></defs>
    <g id="Page-1" stroke="none" stroke-width="1" fill="none" fill-rule="evenodd">
        <g id="Trade-Recognition">
            <g id="Page-1" transform="translate(8.000000, 9.000000)">
                <path d="M63,57 L63,53.7420841 C63,53.0507348 62.6968171,52.3991517 62.169328,51.9600683 C59.2414354,49.5397246 56.0892366,47.9308568 55.4430215,47.6119 C55.3768799,47.5717197 55.3242954,47.505443 55.3242954,47.4259109 L55.3242954,42.8379037 C55.8912228,42.4522559 56.2741042,41.8006727 56.2741042,41.0563021 L56.2741042,36.2955611 C56.2741042,33.9286531 54.3748973,32 52.0143429,32 L51.5,32 L50.9856571,32 C48.637838,32 46.7258958,33.9153977 46.7258958,36.2955611 L46.7258958,41.0293772 C46.7258958,41.774162 47.1079556,42.425331 47.6752938,42.811393 L47.6752938,47.4122413 C47.6752938,47.4921876 47.6358554,47.5717197 47.5565677,47.5986446 C46.9103526,47.9176014 43.7581538,49.5264693 40.830672,51.9468129 C40.3031829,52.3854821 40,53.0374795 40,53.7288287 L40,56.9867447" id="Fill-1" fill="#FEFEFE"></path>
                <path d="M24,57 L24,53.7420841 C24,53.0507348 23.6968171,52.3991517 23.169328,51.9600683 C20.2414354,49.5397246 17.0896474,47.9308568 16.4430215,47.6119 C16.3768799,47.5717197 16.3242954,47.505443 16.3242954,47.4259109 L16.3242954,42.8379037 C16.8912228,42.4522559 17.2741042,41.8006727 17.2741042,41.0563021 L17.2741042,36.2955611 C17.2741042,33.9286531 15.3748973,32 13.0143429,32 L12.5,32 L11.9856571,32 C9.63783803,32 7.72589576,33.9153977 7.72589576,36.2955611 L7.72589576,41.0293772 C7.72589576,41.774162 8.10795556,42.425331 8.67529382,42.811393 L8.67529382,47.4122413 C8.67529382,47.4921876 8.63585539,47.5717197 8.55656771,47.5986446 C7.91035259,47.9176014 4.75856464,49.5264693 1.83067195,51.9468129 C1.30318294,52.3854821 1,53.0374795 1,53.7288287 L1,56.9867447" id="Fill-3" fill="#CDE5F7"></path>
                <path d="M32.5001458,28 C31.8289044,28 31.27811,28.5485314 31.27811,29.2179398 L31.27811,36.8986301 L24.6054261,40.7387668 C24.0282839,41.0730542 23.8271206,41.8091533 24.1625322,42.3976992 C24.3904615,42.7861728 24.7936246,43 25.2235538,43 C25.4247171,43 25.6396816,42.9462306 25.827462,42.8395254 L32.5001458,38.9993887 L39.1724115,42.8395254 C39.36061,42.9462306 39.5751564,43 39.7767379,43 C40.193284,43 40.6094119,42.7861728 40.8377595,42.3976992 C41.1727529,41.8224915 40.9715895,41.0730542 40.3944473,40.7387668 L33.7217635,36.8986301 L33.7217635,29.2179398 C33.7083805,28.5485314 33.1709691,28 32.5001458,28" id="Fill-5" fill="#2F527D"></path>
                <path d="M32.5001458,28 C31.8289044,28 31.27811,28.5485314 31.27811,29.2179398 L31.27811,36.8986301 L24.6054261,40.7387668 C24.0282839,41.0730542 23.8271206,41.8091533 24.1625322,42.3976992 C24.3904615,42.7861728 24.7936246,43 25.2235538,43 C25.4247171,43 25.6396816,42.9462306 25.827462,42.8395254 L32.5001458,38.9993887 L39.1724115,42.8395254 C39.36061,42.9462306 39.5751564,43 39.7767379,43 C40.193284,43 40.6094119,42.7861728 40.8377595,42.3976992 C41.1727529,41.8224915 40.9715895,41.0730542 40.3944473,40.7387668 L33.7217635,36.8986301 L33.7217635,29.2179398 C33.7083805,28.5485314 33.1709691,28 32.5001458,28 Z" id="Stroke-7" stroke="#FCFDFE"></path>
                <path d="M27.5586194,15.7710299 C26.3639821,16.3992782 23.7275272,17.8779652 21.2468243,19.9196702 C20.4547146,20.5744183 20,21.555725 20,22.5896236 L20,25.7960952 C20,26.4504356 20.5327929,26.986954 21.1820962,26.986954 C21.8313996,26.986954 22.3637879,26.4504356 22.3637879,25.7960952 L22.3637879,22.5896236 C22.3637879,22.2622495 22.5069987,21.9613753 22.7533699,21.7518233 C25.5455766,19.4487898 28.5716135,17.9040573 29.1428386,17.616229 C29.6234445,17.380585 29.9224072,16.8966585 29.9224072,16.3597324 L29.9224072,11.84458 C29.9224072,11.4519758 29.727414,11.0724176 29.4029645,10.8628656 C29.1428386,10.6928594 28.9870868,10.4050312 28.9870868,10.0907032 L28.9870868,5.40554457 C28.9870868,3.73035167 30.3378805,2.36907908 32.000178,2.36907908 L33.0002265,2.36907908 C34.6625241,2.36907908 36.0129132,3.73035167 36.0129132,5.40554457 L36.0129132,10.0907032 C36.0129132,10.4050312 35.8575659,10.6928594 35.59744,10.8628656 C35.272586,11.0854636 35.0779973,11.4519758 35.0779973,11.84458 L35.0779973,16.3731862 C35.0779973,16.9092968 35.3765555,17.393631 35.8575659,17.6292751 C36.4417367,17.917511 39.4544234,19.4487898 42.2470346,21.765277 C42.4938104,21.9744213 42.6366167,22.2757033 42.6366167,22.6026696 L42.6366167,25.809549 C42.6366167,26.4634817 43.169005,27 43.8183083,27 C44.4676117,27 45,26.4634817 45,25.809549 L45,22.6026696 C45,21.568771 44.5452854,20.5870566 43.7531757,19.9327163 C41.2858229,17.8910112 38.6364225,16.3992782 37.4417852,15.784076 L37.4417852,12.4075981 C38.0389016,11.7923959 38.3767011,10.9676416 38.3767011,10.1041569 L38.3767011,5.40554457 C38.3767011,2.42126323 35.9740764,0 33.0131722,0 L32.0131236,0 C29.0518148,0 26.6495946,2.42126323 26.6495946,5.40554457 L26.6495946,10.0907032 C26.6495946,10.9676416 26.9873942,11.7923959 27.5845106,12.3941444 L27.5845106,15.7710299 L27.5586194,15.7710299 Z" id="Fill-9" fill="#2F527D"></path>
                <path d="M27.5586194,15.7710299 C26.3639821,16.3992782 23.7275272,17.8779652 21.2468243,19.9196702 C20.4547146,20.5744183 20,21.555725 20,22.5896236 L20,25.7960952 C20,26.4504356 20.5327929,26.986954 21.1820962,26.986954 C21.8313996,26.986954 22.3637879,26.4504356 22.3637879,25.7960952 L22.3637879,22.5896236 C22.3637879,22.2622495 22.5069987,21.9613753 22.7533699,21.7518233 C25.5455766,19.4487898 28.5716135,17.9040573 29.1428386,17.616229 C29.6234445,17.380585 29.9224072,16.8966585 29.9224072,16.3597324 L29.9224072,11.84458 C29.9224072,11.4519758 29.727414,11.0724176 29.4029645,10.8628656 C29.1428386,10.6928594 28.9870868,10.4050312 28.9870868,10.0907032 L28.9870868,5.40554457 C28.9870868,3.73035167 30.3378805,2.36907908 32.000178,2.36907908 L33.0002265,2.36907908 C34.6625241,2.36907908 36.0129132,3.73035167 36.0129132,5.40554457 L36.0129132,10.0907032 C36.0129132,10.4050312 35.8575659,10.6928594 35.59744,10.8628656 C35.272586,11.0854636 35.0779973,11.4519758 35.0779973,11.84458 L35.0779973,16.3731862 C35.0779973,16.9092968 35.3765555,17.393631 35.8575659,17.6292751 C36.4417367,17.917511 39.4544234,19.4487898 42.2470346,21.765277 C42.4938104,21.9744213 42.6366167,22.2757033 42.6366167,22.6026696 L42.6366167,25.809549 C42.6366167,26.4634817 43.169005,27 43.8183083,27 C44.4676117,27 45,26.4634817 45,25.809549 L45,22.6026696 C45,21.568771 44.5452854,20.5870566 43.7531757,19.9327163 C41.2858229,17.8910112 38.6364225,16.3992782 37.4417852,15.784076 L37.4417852,12.4075981 C38.0389016,11.7923959 38.3767011,10.9676416 38.3767011,10.1041569 L38.3767011,5.40554457 C38.3767011,2.42126323 35.9740764,0 33.0131722,0 L32.0131236,0 C29.0518148,0 26.6495946,2.42126323 26.6495946,5.40554457 L26.6495946,10.0907032 C26.6495946,10.9676416 26.9873942,11.7923959 27.5845106,12.3941444 L27.5845106,15.7710299 L27.5586194,15.7710299 Z" id="Stroke-11" stroke="#FCFDFE"></path>
                <path d="M11.9867008,32.3567997 L12.9877861,32.3567997 C14.651402,32.3567997 16.0035961,33.7187509 16.0035961,35.3943711 L16.0035961,40.0822733 C16.0035961,40.396758 15.8476828,40.6847297 15.5876922,40.8548207 C15.2625014,41.0775297 15.067306,41.4442246 15.067306,41.8370245 L15.067306,46.3678883 C15.067306,46.9042662 15.3665787,47.3892498 15.8476828,47.6246034 C16.4328641,47.912983 19.4486741,49.4450252 22.2437756,51.7622594 C22.4908072,51.9719159 22.6337615,52.2729401 22.6337615,52.6004774 L22.6337615,55.8085476 C22.6337615,56.4632142 23.1667018,57 23.8170832,57 C24.4666548,57 25,56.4632142 25,55.8085476 L25,52.6004774 C25,51.5660634 24.5452189,50.5842675 23.7518831,49.929193 C21.2815674,47.8864701 18.6294202,46.3935855 17.4335445,45.7780766 L17.4335445,42.3999154 C18.0316848,41.7844064 18.3698346,40.9596489 18.3698346,40.0957338 L18.3698346,35.4074236 C18.3698346,32.4220624 15.964719,30 13.0007451,30 L11.9992549,30 C9.03528097,30 6.63016539,32.4220624 6.63016539,35.4074236 L6.63016539,40.0822733 C6.63016539,40.9596489 6.96831516,41.7844064 7.56645554,42.3868629 L7.56645554,45.7654319 C6.37057975,46.3935855 3.73098667,47.8734175 1.24811689,49.9161404 C0.454781073,50.570807 0,51.5530108 0,52.5874248 L0,55.7954951 C0,56.4501616 0.533345212,56.9869475 1.18291675,56.9869475 C1.83329824,56.9869475 2.36623848,56.4501616 2.36623848,55.7954951 L2.36623848,52.5874248 C2.36623848,52.2598876 2.50919281,51.9588633 2.75622439,51.7492069 C5.55132587,49.4450252 8.58049989,47.8995226 9.15231724,47.6115509 C9.63342135,47.3757893 9.93269402,46.8916216 9.93269402,46.3544279 L9.93269402,41.8370245 C9.93269402,41.4442246 9.73749858,41.0644771 9.41271281,40.8548207 C9.15231724,40.6847297 8.99640387,40.396758 8.99640387,40.0822733 L8.99640387,35.3943711 C8.9704858,33.7187509 10.3226799,32.3567997 11.9867008,32.3567997" id="Fill-13" fill="#2F527D"></path>
                <path d="M11.9867008,32.3567997 L12.9877861,32.3567997 C14.651402,32.3567997 16.0035961,33.7187509 16.0035961,35.3943711 L16.0035961,40.0822733 C16.0035961,40.396758 15.8476828,40.6847297 15.5876922,40.8548207 C15.2625014,41.0775297 15.067306,41.4442246 15.067306,41.8370245 L15.067306,46.3678883 C15.067306,46.9042662 15.3665787,47.3892498 15.8476828,47.6246034 C16.4328641,47.912983 19.4486741,49.4450252 22.2437756,51.7622594 C22.4908072,51.9719159 22.6337615,52.2729401 22.6337615,52.6004774 L22.6337615,55.8085476 C22.6337615,56.4632142 23.1667018,57 23.8170832,57 C24.4666548,57 25,56.4632142 25,55.8085476 L25,52.6004774 C25,51.5660634 24.5452189,50.5842675 23.7518831,49.929193 C21.2815674,47.8864701 18.6294202,46.3935855 17.4335445,45.7780766 L17.4335445,42.3999154 C18.0316848,41.7844064 18.3698346,40.9596489 18.3698346,40.0957338 L18.3698346,35.4074236 C18.3698346,32.4220624 15.964719,30 13.0007451,30 L11.9992549,30 C9.03528097,30 6.63016539,32.4220624 6.63016539,35.4074236 L6.63016539,40.0822733 C6.63016539,40.9596489 6.96831516,41.7844064 7.56645554,42.3868629 L7.56645554,45.7654319 C6.37057975,46.3935855 3.73098667,47.8734175 1.24811689,49.9161404 C0.454781073,50.570807 0,51.5530108 0,52.5874248 L0,55.7954951 C0,56.4501616 0.533345212,56.9869475 1.18291675,56.9869475 C1.83329824,56.9869475 2.36623848,56.4501616 2.36623848,55.7954951 L2.36623848,52.5874248 C2.36623848,52.2598876 2.50919281,51.9588633 2.75622439,51.7492069 C5.55132587,49.4450252 8.58049989,47.8995226 9.15231724,47.6115509 C9.63342135,47.3757893 9.93269402,46.8916216 9.93269402,46.3544279 L9.93269402,41.8370245 C9.93269402,41.4442246 9.73749858,41.0644771 9.41271281,40.8548207 C9.15231724,40.6847297 8.99640387,40.396758 8.99640387,40.0822733 L8.99640387,35.3943711 C8.9704858,33.7187509 10.3226799,32.3567997 11.9867008,32.3567997 Z" id="Stroke-15" stroke="#FCFDFE"></path>
                <path d="M40.2468243,49.9161404 C39.4547146,50.570807 39,51.5530108 39,52.5874248 L39,55.7954951 C39,56.4505695 39.5323883,56.9869475 40.1816917,56.9869475 C40.830995,56.9869475 41.3637879,56.4505695 41.3637879,55.7954951 L41.3637879,52.5874248 C41.3637879,52.2598876 41.5061896,51.9588633 41.7533699,51.7492069 C44.5455766,49.4450252 47.571209,47.8999305 48.1428386,47.6119588 C48.6234445,47.3757893 48.9220027,46.8916216 48.9220027,46.3548358 L48.9220027,41.8370245 C48.9220027,41.4442246 48.727414,41.0644771 48.40256,40.8548207 C48.1428386,40.6847297 47.9870868,40.396758 47.9870868,40.0826812 L47.9870868,35.3943711 C47.9870868,33.7187509 49.3378805,32.3567997 50.9997735,32.3567997 L52.0002265,32.3567997 C53.6621195,32.3567997 55.0129132,33.7187509 55.0129132,35.3943711 L55.0129132,40.0826812 C55.0129132,40.396758 54.8571614,40.6847297 54.59744,40.8548207 C54.272586,41.0775297 54.0775928,41.4442246 54.0775928,41.8370245 L54.0775928,46.3678883 C54.0775928,46.9042662 54.3765555,47.3892498 54.8571614,47.6246034 C55.4417367,47.912983 58.4544234,49.4450252 61.2466301,51.7622594 C61.4938104,51.9719159 61.6362121,52.2729401 61.6362121,52.6004774 L61.6362121,55.8085476 C61.6362121,56.4632142 62.1686004,57 62.8183083,57 C63.4672071,57 64,56.4632142 64,55.8085476 L64,52.6004774 C64,51.5660634 63.5452854,50.5842675 62.7531757,49.929193 C60.2854184,47.8864701 57.6360179,46.3935855 56.4413806,45.7780766 L56.4413806,42.3999154 C57.0389016,41.7844064 57.3767011,40.9596489 57.3767011,40.0957338 L57.3767011,35.4078315 C57.3767011,32.4220624 54.9736719,30 52.0127676,30 L51.0127191,30 C48.0518148,30 45.6491901,32.4220624 45.6491901,35.4078315 L45.6491901,40.0826812 C45.6491901,40.9596489 45.9869897,41.7844064 46.5845106,42.3868629 L46.5845106,45.7654319 C45.3635775,46.3935855 42.7271227,47.8734175 40.2468243,49.9161404" id="Fill-17" fill="#2F527D"></path>
                <path d="M40.2468243,49.9161404 C39.4547146,50.570807 39,51.5530108 39,52.5874248 L39,55.7954951 C39,56.4505695 39.5323883,56.9869475 40.1816917,56.9869475 C40.830995,56.9869475 41.3637879,56.4505695 41.3637879,55.7954951 L41.3637879,52.5874248 C41.3637879,52.2598876 41.5061896,51.9588633 41.7533699,51.7492069 C44.5455766,49.4450252 47.571209,47.8999305 48.1428386,47.6119588 C48.6234445,47.3757893 48.9220027,46.8916216 48.9220027,46.3548358 L48.9220027,41.8370245 C48.9220027,41.4442246 48.727414,41.0644771 48.40256,40.8548207 C48.1428386,40.6847297 47.9870868,40.396758 47.9870868,40.0826812 L47.9870868,35.3943711 C47.9870868,33.7187509 49.3378805,32.3567997 50.9997735,32.3567997 L52.0002265,32.3567997 C53.6621195,32.3567997 55.0129132,33.7187509 55.0129132,35.3943711 L55.0129132,40.0826812 C55.0129132,40.396758 54.8571614,40.6847297 54.59744,40.8548207 C54.272586,41.0775297 54.0775928,41.4442246 54.0775928,41.8370245 L54.0775928,46.3678883 C54.0775928,46.9042662 54.3765555,47.3892498 54.8571614,47.6246034 C55.4417367,47.912983 58.4544234,49.4450252 61.2466301,51.7622594 C61.4938104,51.9719159 61.6362121,52.2729401 61.6362121,52.6004774 L61.6362121,55.8085476 C61.6362121,56.4632142 62.1686004,57 62.8183083,57 C63.4672071,57 64,56.4632142 64,55.8085476 L64,52.6004774 C64,51.5660634 63.5452854,50.5842675 62.7531757,49.929193 C60.2854184,47.8864701 57.6360179,46.3935855 56.4413806,45.7780766 L56.4413806,42.3999154 C57.0389016,41.7844064 57.3767011,40.9596489 57.3767011,40.0957338 L57.3767011,35.4078315 C57.3767011,32.4220624 54.9736719,30 52.0127676,30 L51.0127191,30 C48.0518148,30 45.6491901,32.4220624 45.6491901,35.4078315 L45.6491901,40.0826812 C45.6491901,40.9596489 45.9869897,41.7844064 46.5845106,42.3868629 L46.5845106,45.7654319 C45.3635775,46.3935855 42.7271227,47.8734175 40.2468243,49.9161404 Z" id="Stroke-19" stroke="#FCFDFE"></path>
            </g>
        </g>
    </g>
</svg>