<?xml version="1.0" encoding="UTF-8"?>
<svg width="80px" height="80px" viewBox="0 0 80 80" version="1.1" xmlns="http://www.w3.org/2000/svg" xmlns:xlink="http://www.w3.org/1999/xlink" style="background: #FFFFFF;">
    <!-- Generator: Sketch 47.1 (45422) - http://www.bohemiancoding.com/sketch -->
    <title>Trusted Network</title>
    <desc>Created with Sketch.</desc>
    <defs></defs>
    <g id="Page-1" stroke="none" stroke-width="1" fill="none" fill-rule="evenodd">
        <g id="Trusted-Network">
            <g id="Page-1" transform="translate(14.000000, 1.000000)">
                <path d="M30.8062853,36.6655502 L25.4997676,33.8758679 L20.1934823,36.6655502 L21.206904,30.757058 L16.9140403,26.5725346 L22.8467411,25.7102015 L25.5,20.3344498 L28.1532589,25.7102015 L34.0859597,26.5725346 L29.7928636,30.757058 L30.8062853,36.6655502 Z M25.5,9 C14.7303025,9 6,17.7304829 6,28.4998838 C6,39.2695171 14.7303025,48 25.5,48 C36.2696975,48 45,39.2695171 45,28.4998838 C45,17.7304829 36.269465,9 25.5,9 L25.5,9 Z" id="Fill-1" fill="#CDE6F7"></path>
                <path d="M26.5,11.6364815 C36.3456738,11.6364815 44.3557215,19.629906 44.3557215,29.4551472 C44.3557215,39.2808565 36.3459084,47.2740469 26.5,47.2740469 C16.6540916,47.2740469 8.6442785,39.2808565 8.6442785,29.4551472 C8.6442785,19.6296719 16.6540916,11.6364815 26.5,11.6364815 M43.1984279,48.0368747 C42.1919531,48.0368747 41.376406,48.8509635 41.376406,49.8551155 L41.376406,61.7766703 L35.8667129,58.0746497 C35.2517101,57.6612855 34.4469524,57.6612855 33.8314805,58.0746497 L28.322022,61.7766703 L28.322022,55.0109328 C28.322022,54.0067808 27.5064748,53.192692 26.5,53.192692 C25.4937598,53.192692 24.677978,54.0067808 24.677978,55.0109328 L24.677978,67.7650677 L19.1685195,64.0630471 C18.5535167,63.649917 17.7485245,63.6496829 17.1332871,64.0630471 L11.623594,67.7650677 L11.623594,44.9303233 C15.4888232,48.6321098 20.7325311,50.9105284 26.5,50.9105284 C38.3548706,50.9105284 48,41.2856495 48,29.4551472 C48,17.6248789 38.3548706,8 26.5,8 C14.6451294,8 5,17.6248789 5,29.4551472 C5,33.4256438 6.08786533,37.1468579 7.97955009,40.3402485 L7.97955009,71.1817593 C7.97955009,71.8535346 8.35108495,72.4710062 8.94568146,72.786764 C9.54004342,73.1022877 10.2603613,73.065305 10.8193055,72.6898598 L18.150786,67.7636633 L25.482032,72.6898598 C25.7885952,72.8956056 26.1434766,73 26.4997654,73 C26.7931935,73 27.0873253,72.9293114 27.3558906,72.786764 C27.9504871,72.4710062 28.322022,71.8537687 28.322022,71.1817593 L28.322022,66.1607652 L34.849214,61.7750318 L42.1809291,66.7012283 C42.4872577,66.9072082 42.8423737,67.0113685 43.1984279,67.0113685 C43.491856,67.0113685 43.7859878,66.9406799 44.0545531,66.7983666 C44.648915,66.4823747 45.0206845,65.8651372 45.0206845,65.1931278 L45.0206845,49.8553495 C45.0202154,48.8509635 44.2046682,48.0368747 43.1984279,48.0368747" id="Fill-3" fill="#2E527C"></path>
                <path d="M26.5,11.6364815 C36.3456738,11.6364815 44.3557215,19.629906 44.3557215,29.4551472 C44.3557215,39.2808565 36.3459084,47.2740469 26.5,47.2740469 C16.6540916,47.2740469 8.6442785,39.2808565 8.6442785,29.4551472 C8.6442785,19.6296719 16.6540916,11.6364815 26.5,11.6364815 Z M43.1984279,48.0368747 C42.1919531,48.0368747 41.376406,48.8509635 41.376406,49.8551155 L41.376406,61.7766703 L35.8667129,58.0746497 C35.2517101,57.6612855 34.4469524,57.6612855 33.8314805,58.0746497 L28.322022,61.7766703 L28.322022,55.0109328 C28.322022,54.0067808 27.5064748,53.192692 26.5,53.192692 C25.4937598,53.192692 24.677978,54.0067808 24.677978,55.0109328 L24.677978,67.7650677 L19.1685195,64.0630471 C18.5535167,63.649917 17.7485245,63.6496829 17.1332871,64.0630471 L11.623594,67.7650677 L11.623594,44.9303233 C15.4888232,48.6321098 20.7325311,50.9105284 26.5,50.9105284 C38.3548706,50.9105284 48,41.2856495 48,29.4551472 C48,17.6248789 38.3548706,8 26.5,8 C14.6451294,8 5,17.6248789 5,29.4551472 C5,33.4256438 6.08786533,37.1468579 7.97955009,40.3402485 L7.97955009,71.1817593 C7.97955009,71.8535346 8.35108495,72.4710062 8.94568146,72.786764 C9.54004342,73.1022877 10.2603613,73.065305 10.8193055,72.6898598 L18.150786,67.7636633 L25.482032,72.6898598 C25.7885952,72.8956056 26.1434766,73 26.4997654,73 C26.7931935,73 27.0873253,72.9293114 27.3558906,72.786764 C27.9504871,72.4710062 28.322022,71.8537687 28.322022,71.1817593 L28.322022,66.1607652 L34.849214,61.7750318 L42.1809291,66.7012283 C42.4872577,66.9072082 42.8423737,67.0113685 43.1984279,67.0113685 C43.491856,67.0113685 43.7859878,66.9406799 44.0545531,66.7983666 C44.648915,66.4823747 45.0206845,65.8651372 45.0206845,65.1931278 L45.0206845,49.8553495 C45.0202154,48.8509635 44.2046682,48.0368747 43.1984279,48.0368747 Z" id="Stroke-5" stroke="#FCFDFE" stroke-width="2.43"></path>
                <path d="M24.0813307,28.443894 C24.6755357,28.3540687 25.1894172,27.9649073 25.455048,27.4039276 L26.4999562,25.197456 L27.5450993,27.4039276 C27.8109649,27.9649073 28.3243767,28.3540687 28.9185816,28.443894 L31.2550048,28.7975658 L29.5644566,30.5150157 C29.1344213,30.9519044 28.9380753,31.5809263 29.0397713,32.1979551 L29.4390394,34.6227486 L27.349223,33.4780268 C27.0833574,33.3326419 26.7918917,33.2597048 26.5001911,33.2597048 C26.2087253,33.2597048 25.9170247,33.3326419 25.651394,33.4780268 L23.5615776,34.6227486 L23.9606108,32.1979551 C24.0623068,31.581171 23.8659608,30.9519044 23.4359255,30.5150157 L21.7453773,28.7975658 L24.0813307,28.443894 Z M20.2018536,32.5403681 L19.340139,37.7771585 C19.2227072,38.4901315 19.503839,39.2111814 20.0656327,39.6368114 C20.6276613,40.0621966 21.3724139,40.1184904 21.9870519,39.7814619 L26.4997213,37.3089411 L31.0126256,39.7814619 C31.2794307,39.927581 31.5711313,39.9997839 31.8614227,39.9997839 C32.2395531,39.9997839 32.6162743,39.8771614 32.9340448,39.6363219 C33.4958385,39.2111814 33.7772051,38.4901315 33.6597733,37.776669 L32.7978239,32.5401234 L36.4490136,28.8313421 C36.9462198,28.3264113 37.1251859,27.5706061 36.9107554,26.8823534 C36.6960901,26.1941007 36.1251367,25.6925965 35.4379257,25.5883307 L30.3925857,24.8242038 L28.1360161,20.0597917 C27.8285796,19.4109446 27.194213,19 26.4999562,19 C25.8056994,19 25.1713327,19.4109446 24.8641311,20.0597917 L22.6075616,24.8242038 L17.5622215,25.5883307 C16.8747757,25.6923518 16.3038223,26.1941007 16.0893918,26.8823534 C15.8747265,27.5706061 16.0536925,28.3261666 16.5508988,28.8313421 L20.2018536,32.5403681 Z" id="Fill-7" fill="#2E527C"></path>
                <path d="M24.0813307,28.443894 C24.6755357,28.3540687 25.1894172,27.9649073 25.455048,27.4039276 L26.4999562,25.197456 L27.5450993,27.4039276 C27.8109649,27.9649073 28.3243767,28.3540687 28.9185816,28.443894 L31.2550048,28.7975658 L29.5644566,30.5150157 C29.1344213,30.9519044 28.9380753,31.5809263 29.0397713,32.1979551 L29.4390394,34.6227486 L27.349223,33.4780268 C27.0833574,33.3326419 26.7918917,33.2597048 26.5001911,33.2597048 C26.2087253,33.2597048 25.9170247,33.3326419 25.651394,33.4780268 L23.5615776,34.6227486 L23.9606108,32.1979551 C24.0623068,31.581171 23.8659608,30.9519044 23.4359255,30.5150157 L21.7453773,28.7975658 L24.0813307,28.443894 Z M20.2018536,32.5403681 L19.340139,37.7771585 C19.2227072,38.4901315 19.503839,39.2111814 20.0656327,39.6368114 C20.6276613,40.0621966 21.3724139,40.1184904 21.9870519,39.7814619 L26.4997213,37.3089411 L31.0126256,39.7814619 C31.2794307,39.927581 31.5711313,39.9997839 31.8614227,39.9997839 C32.2395531,39.9997839 32.6162743,39.8771614 32.9340448,39.6363219 C33.4958385,39.2111814 33.7772051,38.4901315 33.6597733,37.776669 L32.7978239,32.5401234 L36.4490136,28.8313421 C36.9462198,28.3264113 37.1251859,27.5706061 36.9107554,26.8823534 C36.6960901,26.1941007 36.1251367,25.6925965 35.4379257,25.5883307 L30.3925857,24.8242038 L28.1360161,20.0597917 C27.8285796,19.4109446 27.194213,19 26.4999562,19 C25.8056994,19 25.1713327,19.4109446 24.8641311,20.0597917 L22.6075616,24.8242038 L17.5622215,25.5883307 C16.8747757,25.6923518 16.3038223,26.1941007 16.0893918,26.8823534 C15.8747265,27.5706061 16.0536925,28.3261666 16.5508988,28.8313421 L20.2018536,32.5403681 Z" id="Stroke-9" stroke="#CDE6F7" stroke-width="2.43"></path>
            </g>
        </g>
    </g>
</svg>