<?xml version="1.0" encoding="UTF-8"?>
<svg width="80px" height="80px" viewBox="0 0 80 80" version="1.1" xmlns="http://www.w3.org/2000/svg" xmlns:xlink="http://www.w3.org/1999/xlink" style="background: #FFFFFF;">
    <!-- Generator: Sketch 47.1 (45422) - http://www.bohemiancoding.com/sketch -->
    <title>Visible</title>
    <desc>Created with Sketch.</desc>
    <defs></defs>
    <g id="Page-1" stroke="none" stroke-width="1" fill="none" fill-rule="evenodd">
        <g id="Visible">
            <g id="Page-1" transform="translate(19.000000, 10.000000)">
                <path d="M34,38.500057 C34,44.8512928 28.8512673,50 22.5,50 C16.1486186,50 11,44.8512928 11,38.500057 C11,32.1487072 16.1486186,27 22.5,27 C28.8512673,27 34,32.1487072 34,38.500057" id="Fill-1" fill="#CEE6F7"></path>
                <path d="M35,38.500057 C35,44.8512928 29.8512673,50 23.5,50 C17.1486186,50 12,44.8512928 12,38.500057 C12,32.1487072 17.1486186,27 23.5,27 C29.8512673,27 35,32.1487072 35,38.500057 Z" id="Stroke-3" stroke="#000000" stroke-width="0.5"></path>
                <path d="M42.1194905,56.0055195 C42.1196039,56.6027793 41.6415697,57.0884922 41.0541443,57.0884922 L2.94596906,57.0884922 C2.35843029,57.0884922 1.88039614,56.6026641 1.88039614,56.0052891 L1.88039614,2.9945957 C1.88039614,2.39745117 2.35843029,1.91139258 2.94596906,1.91139258 L31.0882035,1.91139258 L31.0882035,10.1305996 C31.0882035,11.7819082 32.409854,13.1251953 34.0341725,13.1251953 L39.0482599,13.1251953 C39.5674433,13.1251953 39.9885714,12.6973301 39.9885714,12.1694414 C39.9885714,11.641668 39.5675567,11.2136875 39.0482599,11.2136875 L34.0341725,11.2136875 C33.4465204,11.2136875 32.9684862,10.7278594 32.9684862,10.1304844 L32.9684862,2.24361328 L41.8074137,11.228668 C42.0085122,11.433209 42.1193771,11.7052773 42.1193771,11.9946309 L42.1193771,56.0055195 L42.1194905,56.0055195 Z M43.1371126,9.87708398 L34.2834486,0.876933594 C33.7271968,0.311478516 32.9871905,0 32.2005936,0 L2.94596906,0 C1.32153715,0 0,1.34351758 0,2.9945957 L0,56.0054043 C0,57.6565977 1.3216505,59 2.94596906,59 L41.0541443,59 C42.6784629,59 44,57.6565977 44,56.0054043 L44,11.9946309 C43.9998866,11.1946738 43.6935911,10.4426543 43.1371126,9.87708398 L43.1371126,9.87708398 Z" id="Fill-5" fill="#2F527F"></path>
                <path d="M42.1194905,56.0055195 C42.1196039,56.6027793 41.6415697,57.0884922 41.0541443,57.0884922 L2.94596906,57.0884922 C2.35843029,57.0884922 1.88039614,56.6026641 1.88039614,56.0052891 L1.88039614,2.9945957 C1.88039614,2.39745117 2.35843029,1.91139258 2.94596906,1.91139258 L31.0882035,1.91139258 L31.0882035,10.1305996 C31.0882035,11.7819082 32.409854,13.1251953 34.0341725,13.1251953 L39.0482599,13.1251953 C39.5674433,13.1251953 39.9885714,12.6973301 39.9885714,12.1694414 C39.9885714,11.641668 39.5675567,11.2136875 39.0482599,11.2136875 L34.0341725,11.2136875 C33.4465204,11.2136875 32.9684862,10.7278594 32.9684862,10.1304844 L32.9684862,2.24361328 L41.8074137,11.228668 C42.0085122,11.433209 42.1193771,11.7052773 42.1193771,11.9946309 L42.1193771,56.0055195 L42.1194905,56.0055195 Z M43.1371126,9.87708398 L34.2834486,0.876933594 C33.7271968,0.311478516 32.9871905,0 32.2005936,0 L2.94596906,0 C1.32153715,0 0,1.34351758 0,2.9945957 L0,56.0054043 C0,57.6565977 1.3216505,59 2.94596906,59 L41.0541443,59 C42.6784629,59 44,57.6565977 44,56.0054043 L44,11.9946309 C43.9998866,11.1946738 43.6935911,10.4426543 43.1371126,9.87708398 Z" id="Stroke-7" stroke="#FFFFFF" stroke-width="0.5"></path>
                <path d="M24.0377967,37.632704 L16.5925062,29.2567451 C18.5199402,27.812785 20.9117466,26.9565764 23.499941,26.9565764 C29.8650381,26.9565764 35.0434321,32.135111 35.0434321,38.500118 C35.0434321,39.2111285 34.9783233,39.9070413 34.8545929,40.5829023 L24.0377967,37.632704 Z M23.499941,50.0435415 C21.6787807,50.0435415 19.9554015,49.6189168 18.422159,48.864854 L23.9574722,39.6389379 L34.3397376,42.4703593 C32.7176782,46.885395 28.4706237,50.0435415 23.499941,50.0435415 L23.499941,50.0435415 Z M12.898523,43.0651878 L21.3003945,40.2644337 L16.7457243,47.8554266 C15.0686998,46.6409999 13.7294864,44.9876763 12.898523,43.0651878 L12.898523,43.0651878 Z M11.9565679,38.5 C11.9565679,35.4257169 13.164738,32.6283835 15.1310958,30.5576301 L21.7831671,38.0410514 L12.2784556,41.2093417 C12.0686212,40.3399226 11.9565679,39.432877 11.9565679,38.5 L11.9565679,38.5 Z M23.499941,25 C16.0561839,25 10,31.0560924 10,38.500118 C10,45.9440255 16.0561839,52 23.499941,52 C30.9439341,52 37,45.9440255 37,38.500118 C37,31.0560924 30.9439341,25 23.499941,25 L23.499941,25 Z" id="Fill-9" fill="#2F527F"></path>
                <path d="M24.0377967,37.632704 L16.5925062,29.2567451 C18.5199402,27.812785 20.9117466,26.9565764 23.499941,26.9565764 C29.8650381,26.9565764 35.0434321,32.135111 35.0434321,38.500118 C35.0434321,39.2111285 34.9783233,39.9070413 34.8545929,40.5829023 L24.0377967,37.632704 Z M23.499941,50.0435415 C21.6787807,50.0435415 19.9554015,49.6189168 18.422159,48.864854 L23.9574722,39.6389379 L34.3397376,42.4703593 C32.7176782,46.885395 28.4706237,50.0435415 23.499941,50.0435415 Z M12.898523,43.0651878 L21.3003945,40.2644337 L16.7457243,47.8554266 C15.0686998,46.6409999 13.7294864,44.9876763 12.898523,43.0651878 Z M11.9565679,38.5 C11.9565679,35.4257169 13.164738,32.6283835 15.1310958,30.5576301 L21.7831671,38.0410514 L12.2784556,41.2093417 C12.0686212,40.3399226 11.9565679,39.432877 11.9565679,38.5 Z M23.499941,25 C16.0561839,25 10,31.0560924 10,38.500118 C10,45.9440255 16.0561839,52 23.499941,52 C30.9439341,52 37,45.9440255 37,38.500118 C37,31.0560924 30.9439341,25 23.499941,25 Z" id="Stroke-11" stroke="#FFFFFF" stroke-width="0.5"></path>
                <path d="M15.3748312,19.5253619 C14.9847302,19.7590334 14.4898926,19.9280748 13.949383,20.0204035 L13.949383,16.7858201 C15.5508802,17.3416163 16.1012339,17.8426992 16.1012339,18.6197424 C16.1012339,18.9187279 15.8364735,19.2488316 15.3748312,19.5253619 L15.3748312,19.5253619 Z M12.0507314,14.2141799 C10.4492342,13.6583837 9.89888052,13.1573008 9.89888052,12.3802576 C9.89888052,12.0812721 10.1636409,11.7511684 10.6252833,11.4746381 C11.0153843,11.2409666 11.5102218,11.0719252 12.0507314,10.9795965 L12.0507314,14.2141799 Z M13.949383,14.7917474 L13.949383,10.9782287 C15.2869211,11.2062008 16.1012339,11.8847601 16.1012339,12.3802576 C16.1012339,12.9023139 16.5262471,13.3256583 17.050617,13.3256583 C17.5748724,13.3256583 18,12.9024279 18,12.3802576 C18,10.7091075 16.2838076,9.35882822 13.949383,9.06759375 L13.949383,8.94540066 C13.949383,8.42334435 13.5243699,8 13,8 C12.4757446,8 12.050617,8.42323037 12.050617,8.94540066 L12.050617,9.06759375 C9.71619239,9.35894221 8,10.7092215 8,12.3802576 C8,14.7475208 10.229688,15.6571298 12.050617,16.2082526 L12.050617,20.0217713 C10.7130789,19.7937992 9.89876605,19.1152399 9.89876605,18.6197424 C9.89876605,18.0976861 9.47375289,17.6743417 8.94938303,17.6743417 C8.42512763,17.6743417 8,18.0975721 8,18.6197424 C8,20.2908925 9.71619239,21.6411718 12.050617,21.9324062 L12.050617,22.0545993 C12.050617,22.5766556 12.4756301,23 13,23 C13.5242554,23 13.949383,22.5767696 13.949383,22.0545993 L13.949383,21.9324062 C16.2838076,21.6410578 18,20.2907785 18,18.6197424 C18,16.2524792 15.770312,15.3428702 13.949383,14.7917474 L13.949383,14.7917474 Z" id="Fill-13" fill="#2F527F"></path>
                <path d="M15.3748312,19.5253619 C14.9847302,19.7590334 14.4898926,19.9280748 13.949383,20.0204035 L13.949383,16.7858201 C15.5508802,17.3416163 16.1012339,17.8426992 16.1012339,18.6197424 C16.1012339,18.9187279 15.8364735,19.2488316 15.3748312,19.5253619 Z M12.0507314,14.2141799 C10.4492342,13.6583837 9.89888052,13.1573008 9.89888052,12.3802576 C9.89888052,12.0812721 10.1636409,11.7511684 10.6252833,11.4746381 C11.0153843,11.2409666 11.5102218,11.0719252 12.0507314,10.9795965 L12.0507314,14.2141799 Z M13.949383,14.7917474 L13.949383,10.9782287 C15.2869211,11.2062008 16.1012339,11.8847601 16.1012339,12.3802576 C16.1012339,12.9023139 16.5262471,13.3256583 17.050617,13.3256583 C17.5748724,13.3256583 18,12.9024279 18,12.3802576 C18,10.7091075 16.2838076,9.35882822 13.949383,9.06759375 L13.949383,8.94540066 C13.949383,8.42334435 13.5243699,8 13,8 C12.4757446,8 12.050617,8.42323037 12.050617,8.94540066 L12.050617,9.06759375 C9.71619239,9.35894221 8,10.7092215 8,12.3802576 C8,14.7475208 10.229688,15.6571298 12.050617,16.2082526 L12.050617,20.0217713 C10.7130789,19.7937992 9.89876605,19.1152399 9.89876605,18.6197424 C9.89876605,18.0976861 9.47375289,17.6743417 8.94938303,17.6743417 C8.42512763,17.6743417 8,18.0975721 8,18.6197424 C8,20.2908925 9.71619239,21.6411718 12.050617,21.9324062 L12.050617,22.0545993 C12.050617,22.5766556 12.4756301,23 13,23 C13.5242554,23 13.949383,22.5767696 13.949383,22.0545993 L13.949383,21.9324062 C16.2838076,21.6410578 18,20.2907785 18,18.6197424 C18,16.2524792 15.770312,15.3428702 13.949383,14.7917474 Z" id="Stroke-15" stroke="#FFFFFF" stroke-width="0.5"></path>
                <path d="M28.0506061,10 L19.9493939,10 C19.4251325,10 19,10.447673 19,11 C19,11.5522064 19.425018,12 19.9493939,12 L28.0506061,12 C28.5748675,12 29,11.552327 29,11 C29,10.447673 28.5748675,10 28.0506061,10" id="Fill-17" fill="#2F527F"></path>
                <path d="M28.0506061,10 L19.9493939,10 C19.4251325,10 19,10.447673 19,11 C19,11.5522064 19.425018,12 19.9493939,12 L28.0506061,12 C28.5748675,12 29,11.552327 29,11 C29,10.447673 28.5748675,10 28.0506061,10 Z" id="Stroke-19" stroke="#FFFFFF" stroke-width="0.5"></path>
                <path d="M23.8461057,13 L20.1537552,13 C19.5165673,13 19,13.447673 19,14 C19,14.5522064 19.5164282,15 20.1537552,15 L23.8461057,15 C24.4832935,15 25,14.552327 25,14 C24.9998609,13.4477936 24.4832935,13 23.8461057,13" id="Fill-21" fill="#2F527F"></path>
                <path d="M23.8461057,13 L20.1537552,13 C19.5165673,13 19,13.447673 19,14 C19,14.5522064 19.5164282,15 20.1537552,15 L23.8461057,15 C24.4832935,15 25,14.552327 25,14 C24.9998609,13.4477936 24.4832935,13 23.8461057,13 Z" id="Stroke-23" stroke="#FFFFFF" stroke-width="0.5"></path>
                <path d="M30.0322054,13 L27.9677946,13 C27.4333722,13 27,13.447673 27,14 C27,14.5522064 27.4332555,15 27.9677946,15 L30.0322054,15 C30.5666278,15 31,14.552327 31,14 C30.9998833,13.4477936 30.5666278,13 30.0322054,13" id="Fill-25" fill="#2F527F"></path>
                <path d="M30.0322054,13 L27.9677946,13 C27.4333722,13 27,13.447673 27,14 C27,14.5522064 27.4332555,15 27.9677946,15 L30.0322054,15 C30.5666278,15 31,14.552327 31,14 C30.9998833,13.4477936 30.5666278,13 30.0322054,13 Z" id="Stroke-27" stroke="#FFFFFF" stroke-width="0.5"></path>
                <path d="M33.0544782,17 L19.9454078,17 C19.4233476,17 19,17.447673 19,18 C19,18.5522064 19.4232336,19 19.9454078,19 L33.0544782,19 C33.5765384,19 34,18.552327 34,18 C34,17.447673 33.5765384,17 33.0544782,17" id="Fill-29" fill="#2F527F"></path>
                <path d="M33.0544782,17 L19.9454078,17 C19.4233476,17 19,17.447673 19,18 C19,18.5522064 19.4232336,19 19.9454078,19 L33.0544782,19 C33.5765384,19 34,18.552327 34,18 C34,17.447673 33.5765384,17 33.0544782,17 Z" id="Stroke-31" stroke="#FFFFFF" stroke-width="0.5"></path>
            </g>
        </g>
    </g>
</svg>