<?xml version="1.0" encoding="UTF-8"?>
<svg width="80px" height="80px" viewBox="0 0 80 80" version="1.1" xmlns="http://www.w3.org/2000/svg" xmlns:xlink="http://www.w3.org/1999/xlink" style="background: #FFFFFF;">
    <!-- Generator: Sketch 47.1 (45422) - http://www.bohemiancoding.com/sketch -->
    <title>Integrated Wallets</title>
    <desc>Created with Sketch.</desc>
    <defs></defs>
    <g id="Page-1" stroke="none" stroke-width="1" fill="none" fill-rule="evenodd">
        <g id="Integrated-Wallets">
            <g id="Page-1" transform="translate(10.000000, 10.000000)">
                <path d="M1.71754817,33 C0.769075432,33 0,32.239387 0,31.3013507 L0,23.3785637 C0,17.104302 5.16149369,12 11.5055615,12 L47.2824518,12 C48.2309246,12 49,12.760613 49,13.6982515 C49,14.6362879 48.2309246,15.3969009 47.2824518,15.3969009 L11.5055615,15.3969009 C7.05562351,15.3969009 3.43509633,18.9771922 3.43509633,23.3785637 L3.43509633,31.3013507 C3.43509633,32.239387 2.66561866,33 1.71754817,33" id="Fill-1" fill="#2E527C"></path>
                <path d="M1.71754817,33 C0.769075432,33 0,32.239387 0,31.3013507 L0,23.3785637 C0,17.104302 5.16149369,12 11.5055615,12 L47.2824518,12 C48.2309246,12 49,12.760613 49,13.6982515 C49,14.6362879 48.2309246,15.3969009 47.2824518,15.3969009 L11.5055615,15.3969009 C7.05562351,15.3969009 3.43509633,18.9771922 3.43509633,23.3785637 L3.43509633,31.3013507 C3.43509633,32.239387 2.66561866,33 1.71754817,33 Z" id="Stroke-3" stroke="#FCFDFE" stroke-width="2"></path>
                <path d="M38.0518659,21 C41.0946455,16.235533 40.573385,9.78365059 36.4857294,5.59866751 C31.7990953,0.800444162 24.2007818,0.800444162 19.5141476,5.59866751 C15.4268846,9.78365059 14.9052316,16.235533 17.9480111,21 L38.0518659,21 Z" id="Fill-5" fill="#CDE6F7"></path>
                <path d="M18.676258,18.6344548 L37.3238662,18.6344548 C39.5008348,14.6579956 38.7865735,9.64219427 35.4802999,6.40198502 C33.4822988,4.44390698 30.8255365,3.36515103 28.0002632,3.36515103 C25.1741855,3.36515103 22.5178253,4.44390698 20.5198242,6.40198502 C17.2131484,9.64219427 16.4992893,14.6579956 18.676258,18.6344548 M38.2995406,22 L17.7009857,22 C17.1214527,22 16.5809307,21.7134616 16.2636153,21.2381311 C12.6581242,15.8341037 13.4266789,8.59299867 18.0914968,4.02178509 C20.7382048,1.42796231 24.2572285,0 28.0002632,0 C31.7428957,0 35.2619194,1.42835644 37.9086274,4.02178509 C42.573043,8.59299867 43.342,15.8337096 39.7365088,21.2377369 C39.4191934,21.7134616 38.8786714,22 38.2995406,22" id="Fill-7" fill="#2E527C"></path>
                <path d="M18.676258,18.6344548 L37.3238662,18.6344548 C39.5008348,14.6579956 38.7865735,9.64219427 35.4802999,6.40198502 C33.4822988,4.44390698 30.8255365,3.36515103 28.0002632,3.36515103 C25.1741855,3.36515103 22.5178253,4.44390698 20.5198242,6.40198502 C17.2131484,9.64219427 16.4992893,14.6579956 18.676258,18.6344548 Z M38.2995406,22 L17.7009857,22 C17.1214527,22 16.5809307,21.7134616 16.2636153,21.2381311 C12.6581242,15.8341037 13.4266789,8.59299867 18.0914968,4.02178509 C20.7382048,1.42796231 24.2572285,0 28.0002632,0 C31.7428957,0 35.2619194,1.42835644 37.9086274,4.02178509 C42.573043,8.59299867 43.342,15.8337096 39.7365088,21.2377369 C39.4191934,21.7134616 38.8786714,22 38.2995406,22 Z" id="Stroke-9" stroke="#FCFDFE" stroke-width="2"></path>
                <path d="M29.0599668,14.921982 L29.0599668,17.4683115 C29.7165798,17.3365417 30.1790709,16.9558734 30.1790709,16.2685555 C30.1790709,15.5511421 29.7016473,15.2001627 29.0599668,14.921982 L29.0599668,14.921982 Z M28.2838943,12.6245509 L28.2838943,10.4145598 C27.5372719,10.5316885 27.0897132,10.8826679 27.0897132,11.4390293 C27.0897132,12.0828306 27.5974164,12.3610113 28.2838943,12.6245509 L28.2838943,12.6245509 Z M28.1644347,19.2244289 C26.3580232,19.1805057 25,18.2292415 25,17.4097472 C25,16.9997967 25.3728964,16.3856843 25.8362171,16.3856843 C26.4032354,16.3856843 26.850794,17.3365417 28.1644347,17.4829526 L28.1644347,14.5710025 C26.8059967,14.0732054 25.2683693,13.5026096 25.2683693,11.6293635 C25.2683693,9.77075849 26.6716046,8.96590524 28.1644347,8.77557107 L28.1644347,8.36562055 C28.1644347,8.17569308 28.3884214,8 28.6717232,8 C28.9255748,8 29.1790116,8.17569308 29.1790116,8.36562055 L29.1790116,8.74628889 C30.149206,8.77557107 31.7312159,9.05375178 31.7312159,9.9025283 C31.7312159,10.2388667 31.4922968,10.9119501 30.940211,10.9119501 C30.5221024,10.9119501 30.1790709,10.4438419 29.1790116,10.3706365 L29.1790116,12.9462482 C30.5075847,13.4289975 32,14.0878465 32,16.0778147 C32,17.878262 30.8506163,18.916966 29.1790116,19.1805057 L29.1790116,19.6343794 C29.1790116,19.8247136 28.9255748,20 28.6717232,20 C28.3884214,20 28.1644347,19.8243069 28.1644347,19.6343794 L28.1644347,19.2244289 Z" id="Fill-11" fill="#2E527C"></path>
                <path d="M47.0581304,61 L11.3560936,61 C5.09461919,61 0,55.8489998 0,49.5178297 L0,30.4821703 C0,24.1510002 5.09422217,19 11.3560936,19 L47.0581304,19 C50.3347741,19 53,21.6947213 53,25.0076269 L53,34.9688232 C53,35.9153676 52.2412861,36.6828795 51.3047051,36.6828795 C50.3689182,36.6828795 49.6102043,35.9153676 49.6102043,34.9688232 L49.6102043,25.0076269 C49.6102043,23.5850003 48.4651854,22.4277112 47.0581304,22.4277112 L11.3560936,22.4277112 C6.96381084,22.4277112 3.39019274,26.0408778 3.39019274,30.4821703 L3.39019274,49.5182311 C3.39019274,53.9591222 6.96381084,57.5722888 11.3560936,57.5722888 L47.0581304,57.5722888 C48.4651854,57.5722888 49.6102043,56.4149997 49.6102043,54.9923731 L49.6102043,53.3650231 C49.6102043,52.41888 50.3689182,51.6513682 51.3051021,51.6513682 C52.2412861,51.6513682 53,52.41888 53,53.3650231 L53,54.9923731 C53,58.3048772 50.3347741,61 47.0581304,61" id="Fill-13" fill="#2E527C"></path>
                <path d="M47.0581304,61 L11.3560936,61 C5.09461919,61 0,55.8489998 0,49.5178297 L0,30.4821703 C0,24.1510002 5.09422217,19 11.3560936,19 L47.0581304,19 C50.3347741,19 53,21.6947213 53,25.0076269 L53,34.9688232 C53,35.9153676 52.2412861,36.6828795 51.3047051,36.6828795 C50.3689182,36.6828795 49.6102043,35.9153676 49.6102043,34.9688232 L49.6102043,25.0076269 C49.6102043,23.5850003 48.4651854,22.4277112 47.0581304,22.4277112 L11.3560936,22.4277112 C6.96381084,22.4277112 3.39019274,26.0408778 3.39019274,30.4821703 L3.39019274,49.5182311 C3.39019274,53.9591222 6.96381084,57.5722888 11.3560936,57.5722888 L47.0581304,57.5722888 C48.4651854,57.5722888 49.6102043,56.4149997 49.6102043,54.9923731 L49.6102043,53.3650231 C49.6102043,52.41888 50.3689182,51.6513682 51.3051021,51.6513682 C52.2412861,51.6513682 53,52.41888 53,53.3650231 L53,54.9923731 C53,58.3048772 50.3347741,61 47.0581304,61 Z" id="Stroke-15" stroke="#FCFDFE" stroke-width="2"></path>
                <path d="M55,46 L41.4705297,46 C37.8966999,46 35,43.0897968 35,39.4998002 C35,35.9102032 37.8966999,33 41.4705297,33 L55,33 L55,46 Z" id="Fill-17" fill="#CDE6F7"></path>
                <path d="M41.030641,34.3267751 C38.4439721,34.3267751 36.3395171,36.4232005 36.3395171,39 C36.3395171,41.5767995 38.4439721,43.6732249 41.030641,43.6732249 L52.6604829,43.6732249 L52.6604829,34.3267751 L41.030641,34.3267751 Z M54.330437,47 L41.030641,47 C36.6023295,47 33,43.4114152 33,39 C33,34.5885848 36.6027206,31 41.030641,31 L54.330437,31 C55.252236,31 56,31.7449109 56,32.6631928 L56,45.3364176 C56,46.2550891 55.252236,47 54.330437,47 L54.330437,47 Z" id="Fill-19" fill="#2E527C"></path>
                <path d="M41.030641,34.3267751 C38.4439721,34.3267751 36.3395171,36.4232005 36.3395171,39 C36.3395171,41.5767995 38.4439721,43.6732249 41.030641,43.6732249 L52.6604829,43.6732249 L52.6604829,34.3267751 L41.030641,34.3267751 L41.030641,34.3267751 Z M54.330437,47 L41.030641,47 C36.6023295,47 33,43.4114152 33,39 C33,34.5885848 36.6027206,31 41.030641,31 L54.330437,31 C55.252236,31 56,31.7449109 56,32.6631928 L56,45.3364176 C56,46.2550891 55.252236,47 54.330437,47 Z" id="Stroke-21" stroke="#FCFDFE" stroke-width="2"></path>
            </g>
        </g>
    </g>
</svg>