<?xml version="1.0" encoding="UTF-8" standalone="no"?>
<!DOCTYPE svg PUBLIC "-//W3C//DTD SVG 1.1//EN" "http://www.w3.org/Graphics/SVG/1.1/DTD/svg11.dtd">
<svg version="1.1" xmlns="http://www.w3.org/2000/svg" xmlns:xlink="http://www.w3.org/1999/xlink" preserveAspectRatio="xMidYMid meet" viewBox="0 0 32 32" width="32" height="32"><defs><path d="M16 0C7.16 0 0 7.16 0 16C0 24.84 7.16 32 16 32C24.84 32 32 24.84 32 16C32 7.16 24.84 0 16 0Z" id="a33svz7l5X"></path><linearGradient id="gradiente35rNhg1Pr" gradientUnits="userSpaceOnUse" x1="16" y1="-4.53" x2="16" y2="35.36"><stop style="stop-color: #f9a606;stop-opacity: 1" offset="0%"></stop><stop style="stop-color: #fbcc5f;stop-opacity: 1" offset="100%"></stop></linearGradient><path d="M17.75 8.65L18.53 8.82L19.26 9.05L19.95 9.33L20.6 9.68L21.2 10.08L21.75 10.53L22.25 11.02L22.7 11.56L23.09 12.15L23.43 12.77L23.7 13.42L25.61 13.42L25.61 15.19L24.11 15.19L24.11 15.25L24.12 15.31L24.12 15.38L24.13 15.44L24.13 15.51L24.14 15.58L24.14 15.64L24.14 15.71L24.15 15.77L24.15 15.84L24.15 15.9L24.15 15.97L24.15 16.04L24.15 16.08L24.15 16.16L24.15 16.23L24.15 16.3L24.14 16.38L24.14 16.45L24.14 16.52L24.13 16.6L24.13 16.67L24.12 16.75L24.12 16.82L24.11 16.89L24.1 16.96L24.09 17.03L25.61 17.03L25.61 18.8L23.66 18.8L23.38 19.44L23.05 20.06L22.65 20.63L22.2 21.16L21.7 21.65L21.15 22.1L20.55 22.49L19.91 22.83L19.23 23.12L18.5 23.35L17.74 23.52L16.94 23.62L16.1 23.65L9.98 23.65L9.98 18.8L7.85 18.8L7.85 17.03L9.98 17.03L9.98 15.19L7.85 15.19L7.85 13.42L9.98 13.42L9.98 8.51L16.1 8.51L16.95 8.54L17.75 8.65ZM11.69 22.07L16.1 22.07L18.01 21.83L19.61 21.16L20.89 20.13L21.79 18.79L11.69 18.79L11.69 22.07ZM11.69 17.03L22.31 17.03L22.33 16.86L22.35 16.65L22.37 16.41L22.38 16.12L22.38 16.08L22.37 15.85L22.36 15.62L22.34 15.4L22.32 15.18L11.69 15.18L11.69 17.03ZM21.8 13.42L20.9 12.06L19.63 11L18.01 10.32L16.1 10.08L11.69 10.08L11.69 13.42L21.8 13.42Z" id="b1twIgPPWp"></path></defs><g><g><g><use xlink:href="#a33svz7l5X" opacity="1" fill="url(#gradiente35rNhg1Pr)"></use><g><use xlink:href="#a33svz7l5X" opacity="1" fill-opacity="0" stroke="#000000" stroke-width="1" stroke-opacity="0"></use></g></g><g><use xlink:href="#b1twIgPPWp" opacity="1" fill="#ffffff" fill-opacity="1"></use><g><use xlink:href="#b1twIgPPWp" opacity="1" fill-opacity="0" stroke="#000000" stroke-width="1" stroke-opacity="0"></use></g></g></g></g></svg>