<svg width="500" height="500" xmlns="http://www.w3.org/2000/svg">
 <!-- Created with Method Draw - http://github.com/duopixel/Method-Draw/ -->

 <g>
  <title>background</title>
  <rect fill="#fff" id="canvas_background" height="502" width="502" y="-1" x="-1"/>
  <g display="none" overflow="visible" y="0" x="0" height="100%" width="100%" id="canvasGrid">
   <rect fill="url(#gridpattern)" stroke-width="0" y="0" x="0" height="100%" width="100%"/>
  </g>
 </g>
 <g>
  <title>Layer 1</title>
  <g stroke="null" id="svg_25">
   <circle stroke="null" transform="matrix(1.4799030685547476,0,0,1.4799030685547476,-3434.379916181526,-2607.784141578623) " id="svg_5" fill="#CEE8FA" r="167.991" cy="1931.05965" cx="2489.60697"/>
   <path stroke="null" id="svg_8" fill="#2D527C" d="m350.35395,233.66024l0,-56.31623c13.90517,3.1152 21.34168,10.99272 22.10235,23.43427c0.15243,2.47884 2.03487,4.41899 4.28728,4.41899l22.49157,0c1.10697,0 2.15622,-0.46173 2.95685,-1.29935c0.9205,-0.96342 1.41331,-2.32049 1.34671,-3.72344c-1.4577,-32.04878 -20.82816,-53.20991 -53.18476,-58.17499l0,-18.77553c0,-2.61203 -1.92831,-4.73717 -4.30208,-4.73717l-22.48861,0c-2.37228,0 -4.3006,2.12514 -4.3006,4.73717l0,18.77553c-33.87498,5.1915 -53.27503,27.80738 -53.27503,62.17073s19.40005,56.97923 53.27503,62.16925l0,56.31623c-13.90517,-3.1152 -21.34168,-10.99272 -22.10235,-23.43427c-0.15243,-2.47884 -2.03487,-4.41899 -4.28728,-4.41899l-22.49157,0c-1.10549,0 -2.15474,0.46173 -2.95537,1.29935c-0.9205,0.96342 -1.41331,2.32049 -1.34671,3.72344c1.4577,32.04878 20.82816,53.20843 53.18476,58.17499l0,18.77553c0,2.61203 1.92831,4.73717 4.3006,4.73717l22.48861,0c2.37228,0 4.30208,-2.12514 4.30208,-4.73717l0,-18.77553c33.87498,-5.1915 53.27503,-27.80738 53.27503,-62.17073c-0.00148,-34.36335 -19.40153,-56.97775 -53.27651,-62.16925zm22.18375,62.17221c0,6.02765 0.00148,21.85817 -22.18375,26.8262l0,-53.65241c22.18523,4.96951 22.18375,20.79856 22.18375,26.8262zm-75.45878,-91.66224c0,-6.02765 -0.00148,-21.85817 22.18375,-26.8262l0,53.65093c-22.18523,-4.96803 -22.18375,-20.79708 -22.18375,-26.82472z"/>
   <path stroke="null" id="svg_9" fill="#2D527C" d="m179.79305,233.52261l-28.91879,-2.26721c-23.40911,-4.65134 -23.40911,-20.94951 -23.40911,-27.08519c0,-5.8545 0,-19.56728 17.59161,-25.54461c2.96573,-1.00781 6.25703,-1.51986 9.78512,-1.51986l21.14633,0c3.27207,0 6.49825,0.54904 9.64601,1.64713l0.3759,0.12135c10.51471,3.79891 16.17682,11.16735 16.83538,21.90553c0.15243,2.47884 2.03487,4.41899 4.28728,4.41899l22.49157,0c1.10697,0 2.15622,-0.46173 2.95537,-1.29935c0.9205,-0.96342 1.41331,-2.31901 1.34671,-3.72344c-1.20316,-26.47103 -14.67916,-45.76008 -37.94027,-54.3154c-7.21601,-2.65347 -15.25188,-4.00018 -23.89008,-4.00018l-13.71426,0c-9.2272,0 -17.80323,1.54058 -25.49429,4.57734c-23.54822,9.30119 -36.51809,29.80673 -36.51809,57.73546c0,34.66081 19.73895,57.36992 54.22217,62.30836l28.91879,2.26721c23.41059,4.65282 23.41059,20.95099 23.41059,27.08519c0,5.25662 0,17.56645 -13.98952,24.10466c-4.20144,1.96531 -8.99041,2.96129 -14.23223,2.96129l-19.03451,0c-5.15302,0 -9.86503,-0.96342 -14.00728,-2.86509c-8.76695,-4.02238 -13.51743,-11.0238 -14.1168,-20.80892c-0.15243,-2.47884 -2.03487,-4.41899 -4.28728,-4.41899l-22.49157,0c-1.10697,0 -2.15622,0.46173 -2.95685,1.29935c-0.9205,0.96342 -1.41331,2.32049 -1.34671,3.72344c1.20316,26.46955 14.67916,45.7586 37.94027,54.3154c7.21157,2.65347 15.2504,3.9987 23.89008,4.00018l13.71426,0c9.2272,0 17.80323,-1.54058 25.49429,-4.57734c23.54822,-9.30119 36.51809,-29.80673 36.51809,-57.73546c0,-34.66377 -19.73747,-57.36992 -54.22217,-62.30984z"/>
   <g stroke="null" transform="matrix(1.4799030685547476,0,0,1.4799030685547476,-3434.379916181526,-2607.784141578623) " id="svg_10"/>
   <g stroke="null" transform="matrix(1.4799030685547476,0,0,1.4799030685547476,-3434.379916181526,-2607.784141578623) " id="svg_11"/>
   <g stroke="null" transform="matrix(1.4799030685547476,0,0,1.4799030685547476,-3434.379916181526,-2607.784141578623) " id="svg_12"/>
   <g stroke="null" transform="matrix(1.4799030685547476,0,0,1.4799030685547476,-3434.379916181526,-2607.784141578623) " id="svg_13"/>
   <g stroke="null" transform="matrix(1.4799030685547476,0,0,1.4799030685547476,-3434.379916181526,-2607.784141578623) " id="svg_14"/>
   <g stroke="null" transform="matrix(1.4799030685547476,0,0,1.4799030685547476,-3434.379916181526,-2607.784141578623) " id="svg_15"/>
   <g stroke="null" transform="matrix(1.4799030685547476,0,0,1.4799030685547476,-3434.379916181526,-2607.784141578623) " id="svg_16"/>
   <g stroke="null" transform="matrix(1.4799030685547476,0,0,1.4799030685547476,-3434.379916181526,-2607.784141578623) " id="svg_17"/>
   <g stroke="null" transform="matrix(1.4799030685547476,0,0,1.4799030685547476,-3434.379916181526,-2607.784141578623) " id="svg_18"/>
   <g stroke="null" transform="matrix(1.4799030685547476,0,0,1.4799030685547476,-3434.379916181526,-2607.784141578623) " id="svg_19"/>
   <g stroke="null" transform="matrix(1.4799030685547476,0,0,1.4799030685547476,-3434.379916181526,-2607.784141578623) " id="svg_20"/>
   <g stroke="null" transform="matrix(1.4799030685547476,0,0,1.4799030685547476,-3434.379916181526,-2607.784141578623) " id="svg_21"/>
   <g stroke="null" transform="matrix(1.4799030685547476,0,0,1.4799030685547476,-3434.379916181526,-2607.784141578623) " id="svg_22"/>
   <g stroke="null" transform="matrix(1.4799030685547476,0,0,1.4799030685547476,-3434.379916181526,-2607.784141578623) " id="svg_23"/>
   <g stroke="null" transform="matrix(1.4799030685547476,0,0,1.4799030685547476,-3434.379916181526,-2607.784141578623) " id="svg_24"/>
  </g>
 </g>
</svg>