<?xml version="1.0" encoding="iso-8859-1"?>
<!-- Generator: Adobe Illustrator 16.0.0, SVG Export Plug-In . SVG Version: 6.00 Build 0)  -->
<!DOCTYPE svg PUBLIC "-//W3C//DTD SVG 1.1//EN" "http://www.w3.org/Graphics/SVG/1.1/DTD/svg11.dtd">
<svg version="1.1" id="Layer_1" xmlns="http://www.w3.org/2000/svg" xmlns:xlink="http://www.w3.org/1999/xlink" x="0px" y="0px"
	 width="145px" height="135px" viewBox="0 0 145 135" style="enable-background:new 0 0 145 135;" xml:space="preserve">
<g>
	<path style="opacity:0.8;fill:#AEDCFD;" d="M38.926,130.339c0,0,12.619-7.818,12.942-18.471h76.622c0,0-4.241,18.146-16.485,18.471
		l-73.079,0.972"/>
	<g style="opacity:0.8;">
		<g>
			<polygon style="fill:#AEDCFD;" points="80.123,77.161 79.278,78.006 68.891,80.985 71.192,69.92 71.803,69.308 			"/>
		</g>
		<g>
			<path style="fill:#FAB6B6;" d="M137.397,19.887L80.123,77.161l-8.32-7.854l57.507-57.498c2.232-2.233,5.854-2.233,8.087,0
				C139.62,14.033,139.62,17.654,137.397,19.887z"/>
		</g>
		<g>
			<path style="fill:#263357;" d="M115.112,109.559V42.088c0-2.565,3.882-2.569,3.882,0v67.471
				C118.994,112.123,115.112,112.127,115.112,109.559z"/>
		</g>
		<g>
			<path style="fill:#263357;" d="M12.887,111.192V4.755c0-1.072,0.869-1.941,1.941-1.941h102.225c1.072,0,1.94,0.869,1.94,1.941
				v10.158c0,2.565-3.882,2.568-3.882,0V6.697H16.771v104.495C16.771,113.758,12.887,113.762,12.887,111.192z"/>
		</g>
		<g>
			<path style="fill:#263357;" d="M4.132,76.433V16.247c0-1.072,0.87-1.941,1.942-1.941c1.072,0,1.941,0.869,1.941,1.941v60.186
				C8.015,78.998,4.132,79.002,4.132,76.433z"/>
		</g>
		<g>
			<path style="fill:#263357;" d="M110.613,132.04c-0.497,0-78.159,0.058-78.63-0.103c-10.87-1.033-19.096-9.745-19.096-20.681
				c0-2.565,3.883-2.568,3.883,0c0,9.477,7.639,16.901,17.391,16.901c9.914,0,17.39-7.631,17.39-17.749
				c0-1.071,0.87-1.941,1.941-1.941h76.453c1.071,0,1.941,0.87,1.941,1.941C131.887,122.741,122.741,132.04,110.613,132.04z
				 M46.641,128.158h63.972c9.269,0,16.407-6.67,17.296-15.808H55.357C54.825,119.021,51.566,124.649,46.641,128.158z"/>
		</g>
		<g>
			<g>
				<path style="fill:#263357;" d="M67.569,82.405c-1.07-0.998-0.74-1.046,1.725-12.879c0.183-0.881-3.472,3.023,58.646-59.093
					c2.982-2.985,7.842-2.987,10.826,0c2.986,2.984,2.986,7.842,0,10.826c-0.552,0.553-58.203,58.395-58.955,58.613l-10.385,2.977
					C68.76,83.038,68.06,82.86,67.569,82.405z M72.977,70.886l-1.529,7.344l6.811-1.953l57.763-57.762
					c1.47-1.472,1.47-3.864,0-5.335c-1.474-1.473-3.866-1.471-5.337,0L72.977,70.886z M79.276,78.005h0.01H79.276z"/>
			</g>
			<g>
				<path style="fill:#263357;" d="M93.985,34.285l11.954-11.954c5.677-5.677,14.913-5.677,20.592,0l6.455,6.455
					c1.813,1.813-0.929,4.562-2.746,2.745l-6.455-6.455c-4.163-4.162-10.937-4.162-15.101,0L96.731,37.03
					C94.917,38.844,92.169,36.101,93.985,34.285z"/>
			</g>
			<g>
				<path style="fill:#263357;" d="M131.979,24.626l-6.734-6.733c-1.815-1.813,0.929-4.562,2.745-2.745l6.734,6.733
					c0.759,0.757,0.759,1.987,0,2.745S132.738,25.385,131.979,24.626z"/>
			</g>
			<g>
				<path style="fill:#263357;" d="M92.246,63.014l-6.733-6.735c-1.815-1.813,0.929-4.562,2.745-2.745l6.734,6.734
					c0.758,0.759,0.758,1.988,0,2.746C94.232,63.772,93.005,63.772,92.246,63.014z"/>
			</g>
			<g>
				<path style="fill:#263357;" d="M64.636,82.491l2.693-2.693c1.813-1.813,4.561,0.93,2.745,2.746l-2.693,2.693
					C65.567,87.051,62.819,84.309,64.636,82.491z"/>
			</g>
			<g>
				<path style="fill:#263357;" d="M78.104,77.156l-6.734-6.735c-1.813-1.813,0.929-4.561,2.745-2.745l6.735,6.734
					c0.758,0.759,0.758,1.987,0,2.746C80.091,77.914,78.862,77.914,78.104,77.156z"/>
			</g>
		</g>
		<g>
			<path style="fill:#263357;" d="M93.441,24.013H31.313c-2.565,0-2.568-3.883,0-3.883h62.128
				C96.007,20.129,96.011,24.013,93.441,24.013z"/>
		</g>
		<g>
			<path style="fill:#263357;" d="M83.734,42.214h-7.767c-2.565,0-2.569-3.883,0-3.883h7.767c1.072,0,1.94,0.869,1.94,1.941
				S84.807,42.214,83.734,42.214z"/>
		</g>
		<g>
			<path style="fill:#263357;" d="M63.348,42.214H31.313c-2.565,0-2.568-3.883,0-3.883h32.035c1.072,0,1.941,0.869,1.941,1.941
				S64.42,42.214,63.348,42.214z"/>
		</g>
		<g>
			<path style="fill:#263357;" d="M68.202,60.416H31.313c-2.565,0-2.568-3.883,0-3.883h36.889c1.072,0,1.941,0.87,1.941,1.942
				S69.274,60.416,68.202,60.416z"/>
		</g>
		<g>
			<path style="fill:#263357;" d="M100.957,98.668c-5.107,0-9.262-4.155-9.262-9.262c0-5.107,4.154-9.263,9.262-9.263
				c5.108,0,9.263,4.155,9.263,9.263C110.22,94.513,106.065,98.668,100.957,98.668z M100.957,84.026
				c-2.966,0-5.379,2.413-5.379,5.38s2.413,5.379,5.379,5.379s5.381-2.412,5.381-5.379S103.923,84.026,100.957,84.026z"/>
		</g>
		<g>
			<path style="fill:#263357;" d="M4.078,85.637c-0.665,2.639,3.327,3.647,3.992,1.007C8.734,84.005,4.743,82.997,4.078,85.637z"/>
		</g>
		<g>
			<path style="fill:#263357;" d="M81.92,96.819H33.383c-2.565,0-2.569-3.884,0-3.884H81.92c1.072,0,1.942,0.869,1.942,1.941
				S82.992,96.819,81.92,96.819z"/>
		</g>
		<g>
			<path style="fill:#263357;" d="M58.495,78.617H31.313c-2.565,0-2.568-3.883,0-3.883h27.181c1.072,0,1.941,0.869,1.941,1.941
				S59.566,78.617,58.495,78.617z"/>
		</g>
	</g>
</g>
</svg>
