<?xml version="1.0" encoding="iso-8859-1"?>
<!-- Generator: Adobe Illustrator 16.0.0, SVG Export Plug-In . SVG Version: 6.00 Build 0)  -->
<!DOCTYPE svg PUBLIC "-//W3C//DTD SVG 1.1//EN" "http://www.w3.org/Graphics/SVG/1.1/DTD/svg11.dtd">
<svg version="1.1" id="Layer_1" xmlns="http://www.w3.org/2000/svg" xmlns:xlink="http://www.w3.org/1999/xlink" x="0px" y="0px"
	 width="135px" height="145px" viewBox="0 0 135 145" style="enable-background:new 0 0 135 145;" xml:space="preserve">
<g>
	<path style="opacity:0.8;fill:#263357;" d="M19.885,20.444h44.85c2.521,0,2.525-3.818,0-3.818h-44.85
		C17.364,16.626,17.36,20.444,19.885,20.444z"/>
	<g style="opacity:0.8;">
		<g>
			<path style="fill:#AEDCFD;" d="M126.755,134.61l-0.87,0.871c-4.561,4.56-11.953,4.56-16.514,0l-14.218-14.219
				c-2.667-2.667-2.667-6.99,0-9.659l12.554-12.553l19.048,19.048C131.313,122.659,131.313,130.052,126.755,134.61z"/>
		</g>
		<g>
			<path style="fill:#263357;" d="M85.649,83.659c0.232,0.093,0.473,0.137,0.709,0.137c0.757,0,1.474-0.454,1.772-1.2
				c2.363-5.911,2.938-12.343,1.666-18.602c-0.506-2.47-4.244-1.714-3.741,0.762c1.126,5.526,0.618,11.205-1.47,16.422
				C84.194,82.157,84.671,83.268,85.649,83.659z"/>
			<path style="fill:#263357;" d="M37.779,50.266c1.782-1.782-0.913-4.484-2.699-2.699c-10.188,10.188-12.417,26.105-5.419,38.706
				c0.348,0.627,0.999,0.981,1.669,0.981c1.437,0,2.378-1.555,1.667-2.835C26.824,73.3,28.791,59.256,37.779,50.266z"/>
			<path style="fill:#263357;" d="M125.901,114.547L105.924,94.57c-0.746-0.745-1.954-0.745-2.699,0l-2.496,2.496
				c-0.061-0.086-0.126-0.17-0.201-0.249l-6.553-6.551c8.555-15.582,6.25-35.585-6.938-48.772
				c-15.998-15.999-42.029-15.999-58.027,0c-25.799,25.798-7.368,70.027,29.013,70.027c7.138,0,14.274-1.852,20.625-5.543
				l6.36,6.359c0.079,0.076,0.162,0.141,0.248,0.202l-2.947,2.946c-0.356,0.357-0.559,0.843-0.559,1.35
				c0,0.506,0.202,0.991,0.559,1.35l19.979,19.979c6.508,6.508,17.104,6.51,23.615,0C132.41,131.652,132.41,121.058,125.901,114.547
				z M31.708,96.823c-23.4-23.398-6.683-63.512,26.314-63.512c32.996,0,49.719,40.11,26.316,63.512
				C69.826,111.333,46.218,111.333,31.708,96.823z M87.705,109.64l-5.783-5.783c1.792-1.287,3.507-2.726,5.114-4.334
				c1.846-1.845,3.466-3.827,4.888-5.91l5.904,5.904c0.075,0.077,0.162,0.143,0.247,0.204l-10.166,10.166
				C87.848,109.802,87.784,109.716,87.705,109.64z M123.202,135.464c-5.022,5.023-13.194,5.023-18.218,0l-18.628-18.628
				l18.218-18.218l18.628,18.627C128.226,122.269,128.226,130.441,123.202,135.464z"/>
		</g>
	</g>
	<path style="opacity:0.8;fill:#263357;" d="M27.227,109.174h-6.387c-2.522,0-2.526,3.817,0,3.817h6.387
		C29.749,112.991,29.752,109.174,27.227,109.174z"/>
	<circle style="fill:#FAB6B6;" cx="58.187" cy="70.739" r="21.694"/>
	<path style="fill:none;" d="M81.201,28.73c-1.055,0-1.909-0.854-1.909-1.908V6.783H9.701v114.785h70.286l-2.118-2.591
		l24.095-29.796l1.821,0.896V28.73H81.201z"/>
	<polygon style="fill:none;" points="83.109,9.075 83.109,24.914 101.245,24.914 	"/>
	<path style="opacity:0.8;fill:#263357;" d="M9.701,121.567V6.783h69.591v20.039c0,1.054,0.854,1.908,1.909,1.908h22.584v60.721
		l3.816,1.877V26.266c0-1.238,1.339,0.302-25.146-22.829c-0.01-0.009-0.204-0.15-0.233-0.169c-0.169-0.107-0.431-0.221-0.659-0.266
		C81.271,2.945,8.09,2.966,7.792,2.966c-1.054,0-1.909,0.854-1.909,1.908v118.601c0,1.054,0.855,1.908,1.909,1.908H83.11
		l-4.078-3.815H9.701z M83.109,9.075l18.136,15.838H83.109V9.075z"/>
</g>
</svg>
