<?xml version="1.0" encoding="UTF-8"?>
<svg width="80px" height="80px" viewBox="0 0 80 80" version="1.1" xmlns="http://www.w3.org/2000/svg" xmlns:xlink="http://www.w3.org/1999/xlink" style="background: #FFFFFF;">
    <!-- Generator: Sketch 47.1 (45422) - http://www.bohemiancoding.com/sketch -->
    <title>Economical</title>
    <desc>Created with Sketch.</desc>
    <defs></defs>
    <g id="Page-1" stroke="none" stroke-width="1" fill="none" fill-rule="evenodd">
        <g id="Economical">
            <g id="Page-1" transform="translate(9.000000, 9.000000)">
                <path d="M56,12.5147905 C56,11.4831553 54.3126239,11.1824158 53,11 L53,14 C54.4653007,13.938373 56,13.5119145 56,12.5147905" id="Fill-1" fill="#2F527F"></path>
                <path d="M50.9992754,5 C50.3927536,5.03272727 50,5.705 50,6.425 C50,7.26363636 50.3318841,7.74909091 51,8 L50.9992754,5 Z" id="Fill-3" fill="#2F527F"></path>
                <path d="M54.00269,20 C59.5158036,20 64,15.5135535 64,10.0006726 C64,4.48779175 59.5144586,0 54.00269,0 C48.4855414,0 44,4.48644649 44,10.0006726 C44,15.5135535 48.4855414,20 54.00269,20" id="Fill-5" fill="#2F527F"></path>
                <path d="M13.00028,45 L3.99971891,45 C2.34257082,45 1,46.102724 1,47.4614375 L1,58.5385625 C1.00140436,59.8999015 2.34537955,61 3.99971891,61 L13.00028,61 C14.6574281,61 15.9999989,59.8999015 15.9999989,58.5385625 L15.9999989,47.4614375 C16.0014033,46.102724 14.6588324,45 13.00028,45" id="Fill-7" fill="#FAFBFC"></path>
                <path d="M13.00028,45 L3.99971891,45 C2.34257082,45 1,46.102724 1,47.4614375 L1,58.5385625 C1.00140436,59.8999015 2.34537955,61 3.99971891,61 L13.00028,61 C14.6574281,61 15.9999989,59.8999015 15.9999989,58.5385625 L15.9999989,47.4614375 C16.0014033,46.102724 14.6588324,45 13.00028,45 Z" id="Stroke-9" stroke="#2F527F" stroke-width="1.2"></path>
                <path d="M34.9991575,35 L25.9994383,35 C24.3424452,35 23,36.1647379 23,37.5998613 L23,58.3987521 C23,59.8380353 24.3438495,61 25.9994383,61 L34.9991575,61 C36.6561505,61 38,59.8380353 38,58.3987521 L38,37.5957016 C38,36.1647379 36.6575548,35 34.9991575,35 Z" id="Stroke-11" stroke="#2F527F" stroke-width="1.2"></path>
                <path d="M57.9991566,26 L49.0008423,26 C47.3424451,26 46,27.12 46,28.5 L46,58.5 C46,59.8826667 47.3438494,61 49.0008423,61 L57.9991566,61 C59.6575538,61 60.9999989,59.8826667 60.9999989,58.5 L60.9999989,28.5 C61.0014031,27.12 59.6575538,26 57.9991566,26" id="Fill-13" fill="#FFFFFF"></path>
                <path d="M57.9991566,26 L49.0008423,26 C47.3424451,26 46,27.12 46,28.5 L46,58.5 C46,59.8826667 47.3438494,61 49.0008423,61 L57.9991566,61 C59.6575538,61 60.9999989,59.8826667 60.9999989,58.5 L60.9999989,28.5 C61.0014031,27.12 59.6575538,26 57.9991566,26 Z" id="Stroke-15" stroke="#2F527F" stroke-width="1.2"></path>
                <path d="M39.844823,15.514297 L32.652789,14.0298846 C32.1023714,13.9174494 31.5356852,14.1275961 31.1981137,14.5706444 C30.8605423,15.0150312 30.8144482,15.6106701 31.0788114,16.1019048 L32.6731247,19.0613601 L0.784147777,35.301555 C0.0737564889,35.6642924 -0.205519476,36.5276342 0.161877546,37.2263387 C0.419462173,37.716235 0.925141468,38 1.44980068,38 C1.6734926,38 1.89989593,37.950475 2.11274217,37.8407168 L34.0315446,21.5844597 L35.4943542,24.2989669 C35.7478717,24.7674469 36.2386382,25.0579045 36.7727874,25.0579045 C36.7971901,25.0579045 36.8215929,25.056566 36.8459956,25.0552275 C37.407259,25.0271187 37.9020926,24.681782 38.1149388,24.1677925 L40.89143,17.4511273 C41.0554707,17.0576041 41.0324237,16.6145558 40.8304231,16.2397718 C40.6243554,15.8690033 40.2664483,15.602639 39.844823,15.514297" id="Fill-17" fill="#CDE6F8"></path>
            </g>
            <g id="Page-1" transform="translate(59.000000, 11.000000)" fill="#FFFFFF">
                <path d="M4.10099641,12.6445214 L4.10099641,8.40150671 C5.06589325,8.66493808 5.71344624,9.51479102 5.71344624,10.5230018 C5.71344624,11.5312371 5.06589325,12.38109 4.10099641,12.6445214 L4.10099641,12.6445214 Z M2.8313499,6.95466847 C1.96799521,6.6752322 1.26967115,5.83741357 1.26967115,4.8474871 C1.26967115,3.85758514 1.96797057,3.01984004 2.8313499,2.74030573 L2.8313499,6.95466847 Z M4.10099641,7.10790377 L4.10099641,2.72726651 C5.06589325,2.99425181 5.73032885,3.8539822 5.73032885,4.85704592 L7,4.85704592 C7,3.14510965 5.77693472,1.72055083 4.10099641,1.43258514 L4.10099641,0.210526316 L2.8313499,0.210526316 L2.8313499,1.44128612 C1.25695374,1.74800181 0,3.15427632 0,4.84437436 C0,6.53447239 1.25695374,7.94562436 2.83132526,8.25354102 L2.83132526,12.6287861 C1.96797057,12.3456244 1.28655376,11.4983204 1.28655376,10.51359 L0.0169072601,10.51359 C0.0169072601,12.2077322 1.25695374,13.6207224 2.83132526,13.9289332 L2.83132526,15.2105263 L4.10097176,15.2105263 L4.10097176,13.9381489 C5.77691008,13.651041 6.98306809,12.2308449 6.98306809,10.5230508 C6.98306809,8.81528122 5.77693472,7.39501161 4.10099641,7.10790377 L4.10099641,7.10790377 Z" id="Fill-1"></path>
            </g>
        </g>
    </g>
</svg>