<?xml version="1.0" encoding="UTF-8"?>
<svg width="80px" height="80px" viewBox="0 0 80 80" version="1.1" xmlns="http://www.w3.org/2000/svg" xmlns:xlink="http://www.w3.org/1999/xlink" style="background: #FFFFFF;">
    <!-- Generator: Sketch 47.1 (45422) - http://www.bohemiancoding.com/sketch -->
    <title>Efficient</title>
    <desc>Created with Sketch.</desc>
    <defs></defs>
    <g id="Page-1" stroke="none" stroke-width="1" fill="none" fill-rule="evenodd">
        <g id="Efficient" fill="#223569">
            <g id="Page-1" transform="translate(12.000000, 13.000000)">
                <path d="M29.912927,22.5238609 C29.2916946,23.1526018 29.2916946,24.1609598 29.912927,24.7897007 C32.479789,27.3877056 32.479789,31.611065 29.912927,34.2089512 L16.4333557,47.8514424 C13.8663764,50.4494473 9.69356999,50.4494473 7.12659076,47.8514424 L5.09879437,45.7991372 C2.53181514,43.2011324 2.53181514,38.9778916 5.09879437,36.3798868 L18.5783657,22.7373955 C19.1995981,22.1086546 19.1995981,21.1002966 18.5783657,20.4715557 C17.9571333,19.8428148 16.9608171,19.8428148 16.3395847,20.4715557 L2.8600134,34.1140469 C1.01975887,35.9765435 0,38.455918 0,41.089512 C0,43.723106 1.00803751,46.2025991 2.8600134,48.0649771 L4.88780978,50.1174009 C6.78667113,52.0390941 9.28332217,53 11.7799732,53 C14.2766242,53 16.7732753,52.0390941 18.6721366,50.1174009 L32.151708,36.4749097 C35.9494307,32.6311674 35.9494307,26.3674845 32.151708,22.5238609 C31.5420797,21.89512 30.5341594,21.89512 29.912927,22.5238609" id="Fill-1"></path>
                <path d="M54.1507538,4.93457944 L52.1222781,2.88245866 C48.3232831,-0.960819554 42.1323283,-0.960819554 38.3333333,2.88245866 L24.8492462,16.5237239 C21.0502513,20.3670022 21.0502513,26.6301222 24.8492462,30.4734004 C25.4706868,31.1020848 26.4673367,31.1020848 27.0887772,30.4734004 C27.7102178,29.844716 27.7102178,28.8364486 27.0887772,28.2077642 C24.520938,25.6099928 24.520938,21.3871316 27.0887772,18.7893602 L40.5728643,5.1480949 C43.1407035,2.55032351 47.3149079,2.55032351 49.8827471,5.1480949 L51.9112228,7.20021567 C54.479062,9.79798706 54.479062,14.0208483 51.9112228,16.6186197 L38.4271357,30.259885 C37.8056951,30.8885694 37.8056951,31.8968368 38.4271357,32.5255212 C38.7319933,32.8339324 39.1423786,33 39.5410385,33 C39.9396985,33 40.3500838,32.8457944 40.6549414,32.5255212 L54.1390285,18.8842559 C55.9798995,17.0219267 57,14.542775 57,11.9094177 C57,9.27606039 55.9916248,6.7969087 54.1507538,4.93457944" id="Fill-3"></path>
            </g>
        </g>
    </g>
</svg>