<?xml version="1.0" encoding="iso-8859-1"?>
<!-- Generator: Adobe Illustrator 16.0.0, SVG Export Plug-In . SVG Version: 6.00 Build 0)  -->
<!DOCTYPE svg PUBLIC "-//W3C//DTD SVG 1.1//EN" "http://www.w3.org/Graphics/SVG/1.1/DTD/svg11.dtd">
<svg version="1.1" id="Layer_1" xmlns="http://www.w3.org/2000/svg" xmlns:xlink="http://www.w3.org/1999/xlink" x="0px" y="0px"
	 width="120px" height="130px" viewBox="0 0 120 130" style="enable-background:new 0 0 120 130;" xml:space="preserve">
<g style="opacity:0.8;">
	<path style="fill-rule:evenodd;clip-rule:evenodd;fill:#FAB6B6;stroke:#263357;stroke-width:3;stroke-miterlimit:10;" d="
		M85.884,43.708h23.824c4.368,0,7.941,3.573,7.941,7.941c0,4.369-3.573,7.942-7.941,7.942H85.884c-4.368,0-7.94-3.573-7.94-7.941
		C77.943,47.282,81.515,43.708,85.884,43.708z"/>
	<path style="fill-rule:evenodd;clip-rule:evenodd;fill:#FAB6B6;stroke:#263357;stroke-width:3;stroke-miterlimit:10;" d="
		M85.884,59.592h23.824c4.368,0,7.941,3.572,7.941,7.942c0,4.368-3.573,7.94-7.941,7.94H85.884c-4.368,0-7.94-3.572-7.94-7.94
		C77.943,63.165,81.515,59.592,85.884,59.592z"/>
	<path style="fill-rule:evenodd;clip-rule:evenodd;fill:#FAB6B6;stroke:#263357;stroke-width:3;stroke-miterlimit:10;" d="
		M85.884,91.358h23.824c4.368,0,7.941-3.573,7.941-7.941c0-4.369-3.573-7.942-7.941-7.942H85.884c-4.368,0-7.94,3.573-7.94,7.941
		C77.943,87.785,81.515,91.358,85.884,91.358z"/>
	<path style="fill-rule:evenodd;clip-rule:evenodd;fill:#FAB6B6;stroke:#263357;stroke-width:3;stroke-miterlimit:10;" d="
		M85.884,91.358h23.824c4.368,0,7.941,3.573,7.941,7.941s-3.573,7.941-7.941,7.941H85.884c-4.368,0-7.94-3.573-7.94-7.941
		S81.515,91.358,85.884,91.358z"/>
	<path style="fill-rule:evenodd;clip-rule:evenodd;fill:#AEDCFD;stroke:#263357;stroke-width:3;stroke-miterlimit:10;" d="
		M6.471,107.239h15.882c2.185,0,3.971-1.787,3.971-3.971V47.679c0-2.185-1.786-3.971-3.971-3.971H6.471
		c-2.184,0-3.971,1.786-3.971,3.971v55.589C2.5,105.452,4.287,107.239,6.471,107.239z"/>
	<path style="fill-rule:evenodd;clip-rule:evenodd;fill:none;stroke:#263357;stroke-width:3;stroke-miterlimit:10;" d="
		M71.645,6.057l1.287,1.609c3.255,4.066,4.286,8.98,2.944,14.012l-5.875,22.03h15.883c-4.369,0-7.94,3.573-7.94,7.942
		c0,4.368,3.572,7.941,7.94,7.941c-4.369,0-7.94,3.572-7.94,7.942c0,4.368,3.572,7.94,7.94,7.94c-4.368,0-7.94,3.573-7.94,7.941
		c0,4.369,3.571,7.942,7.94,7.942c-4.369,0-7.94,3.573-7.94,7.941c0,4.327,3.506,7.873,7.817,7.939H48.163
		c-2.765,0-5.319-0.956-7.346-2.552c-2.918-2.297-6.112-3.404-9.827-3.404h-4.666V49.665h2.707c5.516,0,10.258-2.561,13.282-7.175
		C50.03,30.719,60.564,17.193,68.481,6.14c0.374-0.521,0.919-0.81,1.561-0.828C70.685,5.295,71.243,5.555,71.645,6.057z"/>
	<path style="fill-rule:evenodd;clip-rule:evenodd;fill:none;stroke:#263357;stroke-width:3;stroke-miterlimit:10;" d="
		M102.24,35.768c-4.659-6.583-10.821-12.027-17.985-15.833 M52.512,14.482C38.247,16.577,25.879,24.505,17.91,35.768 M32.871,109.42
		c1.334,0.829,2.708,1.598,4.118,2.305 M45.002,114.927c4.768,1.454,9.829,2.239,15.072,2.239c4.932,0,9.702-0.693,14.22-1.985"/>
	<path style="fill-rule:evenodd;clip-rule:evenodd;fill:none;stroke:#263357;stroke-width:3;stroke-miterlimit:10;" d="
		M114.319,36.452C107.432,23.64,96.14,13.547,82.467,8.205 M60.229,4.004l-0.155-0.002c-23.188,0-43.378,12.826-53.871,31.769
		 M23.594,115.115c10.209,7.526,22.824,11.978,36.48,11.978c13.616,0,26.196-4.426,36.39-11.911"/>
	<path style="fill-rule:evenodd;clip-rule:evenodd;fill:none;stroke:#263357;stroke-width:3;stroke-miterlimit:10;" d="
		M70.001,43.708v15.884c0,8.747-7.135,15.881-15.882,15.881H26.324"/>
	
		<line style="fill-rule:evenodd;clip-rule:evenodd;fill:none;stroke:#263357;stroke-width:3;stroke-miterlimit:10;" x1="10.441" y1="61.577" x2="10.441" y2="99.298"/>
	
		<line style="fill-rule:evenodd;clip-rule:evenodd;fill:none;stroke:#263357;stroke-width:3;stroke-miterlimit:10;" x1="10.441" y1="52.831" x2="10.441" y2="57.173"/>
</g>
</svg>
