<?xml version="1.0" encoding="iso-8859-1"?>
<!-- Generator: Adobe Illustrator 16.0.0, SVG Export Plug-In . SVG Version: 6.00 Build 0)  -->
<!DOCTYPE svg PUBLIC "-//W3C//DTD SVG 1.1//EN" "http://www.w3.org/Graphics/SVG/1.1/DTD/svg11.dtd">
<svg version="1.1" id="Layer_1" xmlns="http://www.w3.org/2000/svg" xmlns:xlink="http://www.w3.org/1999/xlink" x="0px" y="0px"
	 width="100px" height="130px" viewBox="0 0 100 130" style="enable-background:new 0 0 100 130;" xml:space="preserve">
<g style="opacity:0.8;">
	<g>
		<path style="fill:none;stroke:#263357;stroke-width:3;stroke-miterlimit:10;" d="M55.357,112.527v-8.977
			c0,0,8.977-5.438,8.977-15.709c0-17.953,0-40.394,0-40.394L27.592,42.96L13.221,54.678c-3.172,2.91-4.99,7.105-4.99,11.512v21.18
			l0.002,25.158H55.357z"/>
		<rect x="3.743" y="112.527" style="fill:#AEDCFD;" width="53.858" height="15.708"/>
		<polyline style="fill:none;stroke:#263357;stroke-width:3;stroke-miterlimit:10;" points="3.743,128.235 3.743,112.527 
			57.602,112.527 57.602,128.235 		"/>
		
			<line style="fill:none;stroke:#263357;stroke-width:3;stroke-miterlimit:10;" x1="10.476" y1="121.503" x2="17.208" y2="121.503"/>
		<path style="fill:#FAB6B6;stroke:#263357;stroke-width:3;stroke-miterlimit:10;" d="M80.042,2.566H32.916
			c-2.479,0-4.488,2.01-4.488,4.488v67.322l6.732,6.732h44.882c2.479,0,4.488-2.01,4.488-4.488V7.055
			C84.53,4.576,82.521,2.566,80.042,2.566z"/>
		<path style="fill:none;stroke:#263357;stroke-width:3;stroke-miterlimit:10;" d="M35.16,81.109h44.882
			c2.479,0,4.488-2.01,4.488-4.488V7.055c0-2.479-2.01-4.488-4.488-4.488H32.916c-2.479,0-4.488,2.01-4.488,4.488v67.322"/>
		
			<rect x="59.846" y="2.566" style="fill:none;stroke:#263357;stroke-width:3;stroke-miterlimit:10;" width="13.464" height="78.543"/>
		<line style="fill:none;stroke:#263357;stroke-width:3;stroke-miterlimit:10;" x1="50.869" y1="9.299" x2="50.869" y2="18.275"/>
		<line style="fill:none;stroke:#263357;stroke-width:3;stroke-miterlimit:10;" x1="50.869" y1="22.764" x2="50.869" y2="31.74"/>
		<path style="fill:#FFFFFF;" d="M44.845,47.998c-5.206,5.205-25.542,25.091-25.542,25.091l17.922,23.413c0,0,7.574-9.18,2.54-20.42
			c0,0,9.06-10.143,11.279-13.215C55.994,55.528,50.052,42.791,44.845,47.998z"/>
		<path style="fill:none;stroke:#263357;stroke-width:3;stroke-miterlimit:10;" d="M19.303,73.089c0,0,20.336-19.886,25.542-25.091
			c5.207-5.207,11.149,7.53,6.199,14.869c-2.22,3.072-11.279,13.215-11.279,13.215c5.034,11.24-2.54,20.42-2.54,20.42"/>
	</g>
	<g>
		<path style="fill:#263357;" d="M93.366,63.401V5.005c0-1.04,0.844-1.884,1.884-1.884c1.041,0,1.884,0.844,1.884,1.884v58.396
			C97.134,65.891,93.366,65.895,93.366,63.401z"/>
	</g>
	<g>
		<path style="fill:#263357;" d="M93.193,77.618c-0.684,2.718,3.428,3.757,4.113,1.036C97.99,75.938,93.879,74.898,93.193,77.618z"
			/>
	</g>
</g>
</svg>
