<?xml version="1.0" encoding="UTF-8"?>
<svg width="80px" height="80px" viewBox="0 0 80 80" version="1.1" xmlns="http://www.w3.org/2000/svg" xmlns:xlink="http://www.w3.org/1999/xlink" style="background: #FFFFFF;">
    <!-- Generator: Sketch 47.1 (45422) - http://www.bohemiancoding.com/sketch -->
    <title>Expensive</title>
    <desc>Created with Sketch.</desc>
    <defs></defs>
    <g id="Page-1" stroke="none" stroke-width="1" fill="none" fill-rule="evenodd">
        <g id="Expensive">
            <g id="Page-1" transform="translate(2.000000, 8.000000)">
                <path d="M60,7.5 C60,10.5375832 56.6421589,13 52.5,13 C48.3578411,13 45,10.5375832 45,7.5 C45,4.46241683 48.3578411,2 52.5,2 C56.6421589,2 60,4.46241683 60,7.5" id="Fill-1" fill="#30537C"></path>
                <path d="M49,26 C49,30.4183028 45.4183393,34 41.0000816,34 C36.5816607,34 33,30.4183028 33,26 C33,21.5816972 36.5816607,18 41.0000816,18 C45.4183393,18 49,21.5816972 49,26" id="Fill-3" fill="#B1DBFE"></path>
                <path d="M28.5810108,42.4189016 L41.037585,46.3173261 C41.021634,46.3991409 40.9898964,46.4974205 40.9581589,46.5794051 C40.6249969,47.5129765 39.9425575,48.0371344 38.8317436,48.2172288 C34.7379295,48.8887212 27.9464244,48.4628429 27.8827849,48.4628429 C26.8356105,48.3974929 25.9310083,49.2163199 25.8676977,50.2973956 C25.8040581,51.3784713 26.5974967,52.3120427 27.6448356,52.3775625 C27.9464244,52.3940273 34.9124038,52.8362007 39.4347569,52.0828934 C43.9255368,51.3457115 45.2108251,47.2671926 44.9728757,44.6956277 C44.8936141,43.8930958 44.3698624,43.2216033 43.6241124,42.9922842 L29.6760383,38.6353913 C22.7891561,36.489535 15.23595,40.4534792 14.9185746,40.6172785 C14.886837,40.6335736 14.8393129,40.6500384 14.8075754,40.6826285 L0.922811856,49.3473594 C0.0183741301,49.9042772 -0.267263748,51.1163924 0.272274466,52.0499638 C0.637173978,52.6561062 1.25613827,53 1.90667566,53 C2.23983763,53 2.57316404,52.9017204 2.89053946,52.7214562 L16.7116635,44.1224148 C17.3146768,43.7948162 23.3921694,40.797373 28.5810108,42.4189016" id="Fill-5" fill="#2F527F"></path>
                <path d="M28.5810108,42.4189016 L41.037585,46.3173261 C41.021634,46.3991409 40.9898964,46.4974205 40.9581589,46.5794051 C40.6249969,47.5129765 39.9425575,48.0371344 38.8317436,48.2172288 C34.7379295,48.8887212 27.9464244,48.4628429 27.8827849,48.4628429 C26.8356105,48.3974929 25.9310083,49.2163199 25.8676977,50.2973956 C25.8040581,51.3784713 26.5974967,52.3120427 27.6448356,52.3775625 C27.9464244,52.3940273 34.9124038,52.8362007 39.4347569,52.0828934 C43.9255368,51.3457115 45.2108251,47.2671926 44.9728757,44.6956277 C44.8936141,43.8930958 44.3698624,43.2216033 43.6241124,42.9922842 L29.6760383,38.6353913 C22.7891561,36.489535 15.23595,40.4534792 14.9185746,40.6172785 C14.886837,40.6335736 14.8393129,40.6500384 14.8075754,40.6826285 L0.922811856,49.3473594 C0.0183741301,49.9042772 -0.267263748,51.1163924 0.272274466,52.0499638 C0.637173978,52.6561062 1.25613827,53 1.90667566,53 C2.23983763,53 2.57316404,52.9017204 2.89053946,52.7214562 L16.7116635,44.1224148 C17.3146768,43.7948162 23.3921694,40.797373 28.5810108,42.4189016 Z" id="Stroke-7" stroke="#FDFEFF" stroke-width="2"></path>
                <path d="M76.765877,37.8445246 C75.6739994,35.7646166 72.2715986,32.4464809 67.1128132,34.823543 C62.2385589,37.0853017 51.9367316,42.2522256 51.8258711,42.3016657 C50.876341,42.7804996 50.4807855,43.9525221 50.939807,44.9428649 C51.3985005,45.9333787 52.5381006,46.3460073 53.4715592,45.8673444 C53.5824197,45.8177332 63.821109,40.6674035 68.6476408,38.4388329 C70.0245414,37.7950845 71.179721,37.7950845 72.1766456,38.4388329 C72.2082966,38.4552559 72.2242041,38.47185 72.2556911,38.4884441 L46.4453647,58.2152369 C44.6097705,59.6183793 42.2833398,60.1962646 40.0521902,59.8330762 L17.0269879,56.0030894 C16.4889209,55.9206321 15.9349463,56.0692947 15.5077398,56.4324831 L9.68411937,61.5003556 C8.87710081,62.1937152 8.7662403,63.4483661 9.44681885,64.2902173 C9.82663088,64.7524571 10.3646979,65 10.902765,65 C11.3299715,65 11.757178,64.8515085 12.1212466,64.5377602 L17.2801959,60.0476019 L39.4667286,63.7453492 C42.6948029,64.2902173 46.0655526,63.431772 48.7083293,61.4178983 L76.2435534,40.3866724 C76.987434,39.7925351 77.2247345,38.7193929 76.765877,37.8445246" id="Fill-9" fill="#2F527F"></path>
                <path d="M76.765877,37.8445246 C75.6739994,35.7646166 72.2715986,32.4464809 67.1128132,34.823543 C62.2385589,37.0853017 51.9367316,42.2522256 51.8258711,42.3016657 C50.876341,42.7804996 50.4807855,43.9525221 50.939807,44.9428649 C51.3985005,45.9333787 52.5381006,46.3460073 53.4715592,45.8673444 C53.5824197,45.8177332 63.821109,40.6674035 68.6476408,38.4388329 C70.0245414,37.7950845 71.179721,37.7950845 72.1766456,38.4388329 C72.2082966,38.4552559 72.2242041,38.47185 72.2556911,38.4884441 L46.4453647,58.2152369 C44.6097705,59.6183793 42.2833398,60.1962646 40.0521902,59.8330762 L17.0269879,56.0030894 C16.4889209,55.9206321 15.9349463,56.0692947 15.5077398,56.4324831 L9.68411937,61.5003556 C8.87710081,62.1937152 8.7662403,63.4483661 9.44681885,64.2902173 C9.82663088,64.7524571 10.3646979,65 10.902765,65 C11.3299715,65 11.757178,64.8515085 12.1212466,64.5377602 L17.2801959,60.0476019 L39.4667286,63.7453492 C42.6948029,64.2902173 46.0655526,63.431772 48.7083293,61.4178983 L76.2435534,40.3866724 C76.987434,39.7925351 77.2247345,38.7193929 76.765877,37.8445246 Z" id="Stroke-11" stroke="#FDFEFF" stroke-width="2"></path>
                <path d="M37.1588234,21.8970651 C38.5885928,20.5288078 40.4787156,19.7741152 42.500149,19.7741152 C44.5214121,19.7741152 46.4115349,20.5288078 47.8411341,21.8970651 C50.7831039,24.7118031 50.7831039,29.3038415 47.8411341,32.1187425 C46.4115349,33.4868368 44.5214121,34.2416925 42.500149,34.2416925 C40.4787156,34.2416925 38.5887631,33.4868368 37.1588234,32.1187425 C34.2170238,29.3038415 34.2170238,24.7118031 37.1588234,21.8970651 M42.500149,38 C45.5732592,38 48.4493183,36.8520719 50.6351028,34.7762189 C55.1216324,30.483222 55.1216324,23.516778 50.6351028,19.2237811 C48.4656682,17.1479281 45.5732592,16 42.500149,16 C39.4266983,16 36.5508094,17.1479281 34.3650249,19.2237811 C29.878325,23.516778 29.878325,30.483222 34.3650249,34.7762189 C36.5508094,36.8520719 39.4266983,38 42.500149,38" id="Fill-13" fill="#2F527F"></path>
                <path d="M37.1588234,21.8970651 C38.5885928,20.5288078 40.4787156,19.7741152 42.500149,19.7741152 C44.5214121,19.7741152 46.4115349,20.5288078 47.8411341,21.8970651 C50.7831039,24.7118031 50.7831039,29.3038415 47.8411341,32.1187425 C46.4115349,33.4868368 44.5214121,34.2416925 42.500149,34.2416925 C40.4787156,34.2416925 38.5887631,33.4868368 37.1588234,32.1187425 C34.2170238,29.3038415 34.2170238,24.7118031 37.1588234,21.8970651 Z M42.500149,38 C45.5732592,38 48.4493183,36.8520719 50.6351028,34.7762189 C55.1216324,30.483222 55.1216324,23.516778 50.6351028,19.2237811 C48.4656682,17.1479281 45.5732592,16 42.500149,16 C39.4266983,16 36.5508094,17.1479281 34.3650249,19.2237811 C29.878325,23.516778 29.878325,30.483222 34.3650249,34.7762189 C36.5508094,36.8520719 39.4266983,38 42.500149,38 Z" id="Stroke-15" stroke="#FDFEFF" stroke-width="2"></path>
                <path d="M49.8336783,4.83519654 C50.6839147,3.98534743 51.8126009,3.51646516 53.0145073,3.51646516 C54.2167176,3.51646516 55.3452519,3.98534743 56.1954883,4.83519654 C57.9398629,6.57877655 57.9398629,9.43595194 56.1954883,11.179532 C55.3452519,12.0292292 54.2167176,12.4981115 53.0145073,12.4981115 C51.8126009,12.4981115 50.6839147,12.0292292 49.8336783,11.179532 C48.0893037,9.42122345 48.0893037,6.57877655 49.8336783,4.83519654 M52.999924,16 C55.1401743,16 57.1482635,15.1648794 58.658242,13.6557405 C61.780586,10.5348188 61.780586,5.46518116 58.658242,2.34441133 C57.1482635,0.835120618 55.1401743,0 52.999924,0 C50.8598257,0 48.8514327,0.835120618 47.341758,2.34441133 C44.219414,5.46518116 44.219414,10.5348188 47.341758,13.6557405 C48.8514327,15.179456 50.8745609,16 52.999924,16" id="Fill-17" fill="#2F527F"></path>
                <path d="M49.8336783,4.83519654 C50.6839147,3.98534743 51.8126009,3.51646516 53.0145073,3.51646516 C54.2167176,3.51646516 55.3452519,3.98534743 56.1954883,4.83519654 C57.9398629,6.57877655 57.9398629,9.43595194 56.1954883,11.179532 C55.3452519,12.0292292 54.2167176,12.4981115 53.0145073,12.4981115 C51.8126009,12.4981115 50.6839147,12.0292292 49.8336783,11.179532 C48.0893037,9.42122345 48.0893037,6.57877655 49.8336783,4.83519654 Z M52.999924,16 C55.1401743,16 57.1482635,15.1648794 58.658242,13.6557405 C61.780586,10.5348188 61.780586,5.46518116 58.658242,2.34441133 C57.1482635,0.835120618 55.1401743,0 52.999924,0 C50.8598257,0 48.8514327,0.835120618 47.341758,2.34441133 C44.219414,5.46518116 44.219414,10.5348188 47.341758,13.6557405 C48.8514327,15.179456 50.8745609,16 52.999924,16 Z" id="Stroke-19" stroke="#FDFEFF" stroke-width="2"></path>
            </g>
        </g>
    </g>
</svg>