<?xml version="1.0" encoding="iso-8859-1"?>
<!-- Generator: Adobe Illustrator 16.0.0, SVG Export Plug-In . SVG Version: 6.00 Build 0)  -->
<!DOCTYPE svg PUBLIC "-//W3C//DTD SVG 1.1//EN" "http://www.w3.org/Graphics/SVG/1.1/DTD/svg11.dtd">
<svg version="1.1" id="Layer_1" xmlns="http://www.w3.org/2000/svg" xmlns:xlink="http://www.w3.org/1999/xlink" x="0px" y="0px"
	 width="140px" height="130px" viewBox="0 0 140 130" style="enable-background:new 0 0 140 130;" xml:space="preserve">
<path style="opacity:0.8;fill:#AEDCFD;" d="M11.504,68.146c0,0-12.741-14.076-5.123-37.444L29.247,6.99
	c0,0,30.357-8.265,41.224,4.872L94.85,36.265v5.069l-5.643,3.334l-14.364-1L55.086,26.334L11.504,68.146z"/>
<path style="opacity:0.8;fill:#FAB6B6;" d="M129.1,72.998l-1.248-4.672L108,51.283l-3.265,3.287
	c-1.646-0.219-3.495,0.402-4.892,1.821c-1.379,1.403-1.975,3.238-1.751,4.866l-6.93,6.977c-1.38-0.225-2.972,0.087-4.396,1.013
	c-2.314,1.505-3.375,4.075-2.65,6.082l-7.1,7.148c-1.545,0.163-3.29,0.886-4.867,2.134c-2.35,1.857-3.658,4.346-3.513,6.303
	l-6.569,6.614c-0.597-0.183-1.241-0.287-1.917-0.287c-3.031,0-5.489,2.014-5.489,4.498c0,0.88,0.313,1.699,0.847,2.393l-2.988,3.009
	l14.654,14.264c-0.001,0.033-0.008,0.063-0.008,0.096c0,1.749,1.231,3.167,2.75,3.167c0.187,0,0.369-0.022,0.545-0.063l2.205,2.146
	l2.154-2.051c1.196,0.799,3.243,0.638,5.068-0.534c2.214-1.421,3.241-3.767,2.296-5.237c-0.165-0.258-0.395-0.456-0.649-0.625
	l7.004-6.672c1.857,0.825,4.676,0.433,7.215-1.191c3.402-2.177,5.012-5.738,3.593-7.957c-0.151-0.236-0.337-0.443-0.541-0.63
	l4.925-4.69c1.597,1.004,3.989,0.915,6.03-0.411c2.612-1.699,3.638-4.756,2.292-6.828c-0.093-0.142-0.214-0.255-0.322-0.381
	l7.102-6.765c1.951,0.44,4.51-0.462,6.502-2.487c1.83-1.861,2.707-4.186,2.471-6.059L129.1,72.998z"/>
<g style="opacity:0.8;">
	<path style="fill:#263357;" d="M11.222,71.253c-12.44-15.192-11.311-37.116,2.623-50.998l6.917-6.89
		c14.912-14.85,39.168-14.853,54.081,0.002l-2.583,2.589c-13.485-13.432-35.43-13.432-48.915,0l-6.917,6.891
		C3.832,35.392,2.812,55.207,14.051,68.935L11.222,71.253z"/>
	<g>
		<path style="fill:#263357;" d="M22.663,85.439c-3.016,0-6.035-1.144-8.333-3.434l-0.521-0.52c-2.219-2.209-3.442-5.16-3.442-8.306
			c0-3.148,1.222-6.1,3.442-8.31l41.822-41.66l15.785,15.834c6.43,6.306,14.209,4.946,19.607,2.696
			c1.122-0.469,1.898-1.425,2.137-2.63c0.24-1.223-0.143-2.479-1.025-3.357L70.75,14.453l2.583-2.591l21.382,21.3
			c1.75,1.742,2.509,4.229,2.032,6.655c-0.469,2.388-2.083,4.369-4.316,5.3c-6.416,2.677-15.719,4.245-23.592-3.475L55.621,28.385
			L16.392,67.459c-1.527,1.522-2.367,3.555-2.367,5.72c0,2.166,0.841,4.196,2.367,5.715l0.521,0.521c3.168,3.159,8.331,3.159,11.5,0
			l24.638-24.54l2.583,2.59L30.995,82.006C28.698,84.296,25.68,85.439,22.663,85.439z"/>
		<path style="fill:#263357;" d="M129.71,70.608l-2.858-2.282c10.928-13.693,9.789-33.363-2.648-45.753l-6.918-6.888
			C104.866,3.309,85.131,2.156,71.378,13.013l-2.265-2.872c15.202-12,37.023-10.729,50.754,2.953l6.918,6.887
			C140.547,33.691,141.803,55.455,129.71,70.608z"/>
		<path style="fill:#263357;" d="M51.875,114.528c-3.09,0-6.103-1.204-8.335-3.429l-0.521-0.516
			c-2.223-2.215-3.444-5.166-3.444-8.314c0-3.145,1.224-6.097,3.442-8.308l2.583,2.594c-1.526,1.519-2.367,3.55-2.367,5.716
			s0.84,4.197,2.367,5.719l0.521,0.518c2.074,2.068,5.13,2.852,7.981,2.058l0.986,3.522
			C54.027,114.383,52.947,114.528,51.875,114.528z"/>
		<path style="fill:#263357;" d="M37.266,99.986c-3.016,0-6.035-1.144-8.333-3.431l-0.523-0.524c-2.216-2.209-3.44-5.159-3.44-8.305
			c0-3.146,1.222-6.1,3.442-8.312l2.583,2.591c-1.527,1.522-2.367,3.553-2.367,5.719c0,2.168,0.841,4.197,2.367,5.717l0.523,0.525
			c3.168,3.153,8.329,3.157,11.498-0.005l24.638-24.539l2.583,2.589L45.599,96.556C43.301,98.843,40.283,99.986,37.266,99.986z"/>
	</g>
	<path style="fill:#263357;" d="M103.363,100.434c-2.909,0-5.818-1.102-8.033-3.31L83.564,85.402c-2.14-2.13-3.318-4.976-3.318-8.01
		c0-3.033,1.179-5.878,3.318-8.009l1.119-1.116c4.428-4.41,11.635-4.418,16.066,0l11.766,11.72c2.141,2.131,3.319,4.978,3.319,8.012
		s-1.179,5.88-3.319,8.011l-1.121,1.115C109.182,99.332,106.271,100.434,103.363,100.434z M92.719,68.612
		c-1.976,0-3.949,0.748-5.451,2.245l-1.12,1.115c-1.446,1.442-2.243,3.367-2.243,5.42c0,2.055,0.797,3.979,2.243,5.422l11.765,11.72
		c3.006,2.995,7.897,2.991,10.901,0l1.122-1.117c1.444-1.438,2.24-3.364,2.24-5.418s-0.796-3.979-2.242-5.422l-11.766-11.72
		C96.666,69.36,94.691,68.612,92.719,68.612z"/>
	<path style="fill:#263357;" d="M88.758,114.981c-2.907,0-5.816-1.102-8.031-3.31L68.959,99.953
		c-2.14-2.132-3.319-4.979-3.319-8.012c0-3.035,1.179-5.881,3.319-8.012l1.124-1.117c4.428-4.416,11.636-4.414,16.064,0.002
		l11.765,11.72c2.141,2.13,3.319,4.976,3.319,8.011s-1.179,5.879-3.319,8.011l-1.119,1.116
		C94.578,113.878,91.668,114.981,88.758,114.981z M71.541,86.521c-1.446,1.439-2.242,3.365-2.242,5.42
		c0,2.053,0.796,3.978,2.244,5.42L83.31,109.08c3.003,2.996,7.895,2.998,10.9,0.002l1.12-1.116c1.446-1.441,2.242-3.367,2.242-5.421
		c0-2.055-0.796-3.979-2.242-5.421L83.564,85.402c-3.006-2.995-7.898-2.991-10.9,0L71.541,86.521z"/>
	<path style="fill:#263357;" d="M73.743,128.142c-2.814,0-5.629-1.068-7.772-3.2l-11.31-11.266c-2.07-2.065-3.212-4.816-3.212-7.752
		s1.142-5.688,3.212-7.753h0.001l1.078-1.073c4.283-4.268,11.254-4.269,15.541,0.002l11.311,11.268
		c2.07,2.062,3.211,4.812,3.211,7.749c0,2.937-1.141,5.688-3.211,7.753l-1.076,1.07C79.373,127.073,76.558,128.142,73.743,128.142z
		 M57.242,100.764c-1.377,1.372-2.134,3.204-2.134,5.16s0.759,3.789,2.137,5.158l11.31,11.266c2.864,2.851,7.52,2.854,10.379,0
		l1.074-1.07c1.379-1.373,2.137-3.205,2.137-5.161c0-1.957-0.759-3.786-2.135-5.157L68.699,99.69c-2.862-2.851-7.516-2.851-10.378,0
		L57.242,100.764z"/>
	<path style="fill:#263357;" d="M117.967,85.887c-2.909,0-5.818-1.102-8.033-3.31l-11.766-11.72
		c-2.14-2.132-3.318-4.977-3.318-8.012c0-3.034,1.179-5.88,3.318-8.01l1.122-1.118c4.427-4.415,11.636-4.413,16.063,0.002
		l11.769,11.72c2.14,2.133,3.318,4.979,3.318,8.013c0,3.032-1.179,5.879-3.318,8.01l-1.124,1.117
		C123.785,84.785,120.875,85.887,117.967,85.887z M100.75,57.426c-1.445,1.439-2.242,3.367-2.242,5.42
		c0,2.054,0.797,3.98,2.242,5.422l11.766,11.72c3.006,2.995,7.898,2.991,10.901,0l1.124-1.118c1.444-1.439,2.24-3.365,2.24-5.417
		c0-2.055-0.796-3.979-2.242-5.421l-11.768-11.719c-3.004-2.996-7.896-2.996-10.901-0.002L100.75,57.426z"/>
</g>
</svg>
